<svg width="77" height="77" viewBox="0 0 77 77" fill="none" xmlns="http://www.w3.org/2000/svg">
<g clip-path="url(#clip0_20_554)">
<path d="M77 38.5C77 17.237 59.763 0 38.5 0C17.237 0 0 17.237 0 38.5C0 59.763 17.237 77 38.5 77C59.763 77 77 59.763 77 38.5Z" fill="#FF914C"/>
<path style="mix-blend-mode:multiply" opacity="0.5" d="M77 47.8924L53.4197 24.3122C51.5175 22.389 49.2552 20.8592 46.7617 19.8103C44.2683 18.7614 41.5927 18.2139 38.8877 18.199C36.1827 18.1842 33.5012 18.7023 30.9964 19.7237C28.4916 20.7451 26.2126 22.2499 24.2893 24.1521C22.3661 26.0543 20.8364 28.3167 19.7875 30.8101C18.7386 33.3035 18.191 35.9791 18.1762 38.6841C18.1613 41.3891 18.6794 44.0706 19.7008 46.5754C20.7223 49.0802 22.227 51.3592 24.1293 53.2825L47.9154 77.0382" fill="url(#paint0_linear_20_554)"/>
<path d="M26.3325 38.523C26.3964 35.112 27.7965 31.8622 30.2316 29.4728C32.6667 27.0833 35.9422 25.745 39.3539 25.7456C42.3178 25.7288 45.2024 26.7028 47.5494 28.513C47.9557 28.8538 48.2177 29.3357 48.2827 29.862C48.3478 30.3882 48.2111 30.9196 47.9001 31.349C47.5679 31.7655 47.0887 32.0388 46.5611 32.1125C46.0335 32.1863 45.4977 32.0549 45.064 31.7455C43.449 30.4444 41.4274 29.7534 39.3539 29.7937C36.9776 29.8048 34.6942 30.7177 32.9651 32.3478C32.1478 33.1558 31.4982 34.1172 31.0533 35.1769C30.6085 36.2366 30.3773 37.3737 30.373 38.523C30.3707 39.6721 30.5989 40.8101 31.0441 41.8695C31.4894 42.9289 32.1426 43.8881 32.9651 44.6906C34.6942 46.3207 36.9776 47.2335 39.3539 47.2445C41.4264 47.2784 43.4458 46.5883 45.064 45.2929C45.5029 44.9991 46.0347 44.8771 46.5577 44.9503C47.0808 45.0234 47.5586 45.2865 47.9001 45.6894C48.2111 46.1188 48.3478 46.6501 48.2827 47.1763C48.2177 47.7026 47.9557 48.1846 47.5494 48.5254C45.2024 50.3356 42.3178 51.3096 39.3539 51.2928C35.9388 51.3093 32.6552 49.9771 30.2169 47.5859C27.7786 45.1947 26.3827 41.9378 26.3325 38.523Z" fill="white"/>
<path d="M38.5 61.7525C33.9011 61.7525 29.4054 60.3888 25.5816 57.8338C21.7577 55.2788 18.7774 51.6472 17.0175 47.3984C15.2576 43.1496 14.7971 38.4743 15.6943 33.9638C16.5915 29.4532 18.8061 25.31 22.058 22.058C25.3099 18.8061 29.4532 16.5916 33.9637 15.6944C38.4743 14.7972 43.1495 15.2576 47.3984 17.0175C51.6472 18.7775 55.2788 21.7578 57.8338 25.5816C60.3888 29.4055 61.7525 33.9011 61.7525 38.5C61.7464 44.6651 59.2947 50.576 54.9353 54.9353C50.5759 59.2947 44.6651 61.7465 38.5 61.7525ZM38.5 18.9832C34.6399 18.9832 30.8665 20.1278 27.657 22.2724C24.4475 24.4169 21.946 27.465 20.4688 31.0312C18.9916 34.5975 18.6051 38.5217 19.3582 42.3076C20.1112 46.0934 21.9701 49.571 24.6995 52.3005C27.429 55.03 30.9066 56.8888 34.6925 57.6419C38.4784 58.395 42.4026 58.0085 45.9688 56.5313C49.5351 55.0541 52.5831 52.5526 54.7277 49.3431C56.8722 46.1335 58.0168 42.3601 58.0168 38.5C58.0128 33.3251 55.9553 28.3633 52.296 24.704C48.6368 21.0448 43.675 18.9873 38.5 18.9832Z" fill="white"/>
</g>
<defs>
<linearGradient id="paint0_linear_20_554" x1="24.053" y1="24.053" x2="62.4844" y2="62.4844" gradientUnits="userSpaceOnUse">
<stop stop-color="#FF7A00"/>
<stop offset="1" stop-color="#FFB05E" stop-opacity="0"/>
</linearGradient>
<clipPath id="clip0_20_554">
<rect width="77" height="77" fill="white"/>
</clipPath>
</defs>
</svg>
