<svg width="210" height="58" viewBox="0 0 210 58" fill="none" xmlns="http://www.w3.org/2000/svg">
<path d="M200.221 2.78259H12.51C7.37319 2.78259 3.20895 6.94683 3.20895 12.0837V48.6989C3.20895 53.8358 7.37319 58 12.51 58H200.221C205.358 58 209.522 53.8358 209.522 48.6989V12.0837C209.522 6.94683 205.358 2.78259 200.221 2.78259Z" fill="#FF914C"/>
<path d="M197.012 0H9.30114C4.1643 0 6.10352e-05 4.16423 6.10352e-05 9.30108V45.9163C6.10352e-05 51.0532 4.1643 55.2174 9.30114 55.2174H197.012C202.149 55.2174 206.313 51.0532 206.313 45.9163V9.30108C206.313 4.16423 202.149 0 197.012 0Z" fill="black"/>
</svg>
