<svg width="293" height="84" viewBox="0 0 293 84" fill="none" xmlns="http://www.w3.org/2000/svg">
<path d="M279.619 4.89807H17.4708C10.2969 4.89807 4.48137 10.8195 4.48137 18.1241V70.1903C4.48137 77.4948 10.2969 83.4163 17.4708 83.4163H279.619C286.793 83.4163 292.609 77.4948 292.609 70.1903V18.1241C292.609 10.8195 286.793 4.89807 279.619 4.89807Z" fill="#FF914C"/>
<path d="M275.138 0.941284H12.9894C5.81557 0.941284 0 6.86276 0 14.1673V66.2335C0 73.538 5.81557 79.4595 12.9894 79.4595H275.138C282.312 79.4595 288.127 73.538 288.127 66.2335V14.1673C288.127 6.86276 282.312 0.941284 275.138 0.941284Z" fill="black"/>
</svg>
