<svg width="73" height="74" viewBox="0 0 73 74" fill="none" xmlns="http://www.w3.org/2000/svg">
<path d="M39.4159 35.1193L18.2176 10.9226C0.970461 22.4192 0.13901 43.714 12.78 58.6293L39.4159 35.1193Z" fill="url(#paint0_linear_20_537)"/>
<path d="M39.5631 15.3529C39.5631 15.7092 39.4578 16.0575 39.2605 16.3538C39.0633 16.6501 38.7829 16.881 38.4548 17.0174C38.1268 17.1537 37.7658 17.1894 37.4175 17.1199C37.0692 17.0503 36.7493 16.8788 36.4983 16.6268C36.2472 16.3749 36.0762 16.0539 36.0069 15.7044C35.9376 15.3549 35.9732 14.9926 36.1091 14.6634C36.245 14.3342 36.4751 14.0528 36.7703 13.8548C37.0656 13.6569 37.4127 13.5513 37.7678 13.5513C38.2439 13.5513 38.7006 13.741 39.0373 14.0789C39.374 14.4168 39.5631 14.875 39.5631 15.3529Z" fill="#FF914C"/>
<path d="M36.2447 58.5997C36.2447 58.2434 36.35 57.8951 36.5473 57.5988C36.7445 57.3025 37.0249 57.0716 37.353 56.9352C37.681 56.7988 38.042 56.7632 38.3903 56.8327C38.7386 56.9022 39.0585 57.0738 39.3095 57.3258C39.5606 57.5777 39.7316 57.8988 39.8009 58.2483C39.8702 58.5978 39.8346 58.96 39.6987 59.2892C39.5628 59.6185 39.3327 59.8998 39.0375 60.0977C38.7422 60.2957 38.3951 60.4014 38.04 60.4014C37.5639 60.4014 37.1072 60.2115 36.7705 59.8737C36.4338 59.5358 36.2447 59.0775 36.2447 58.5997Z" fill="#FF914C"/>
<path d="M67.4573 24.0732C54.3527 -11.5536 -3.95932 3.46493 4.91441 43.8543C11.6102 74.4158 51.8952 79.4959 66.1108 52.1168" stroke="#FF914C" stroke-width="8" stroke-linecap="round" stroke-linejoin="round"/>
<path d="M50.6591 18.528C57.2077 19.1187 63.3442 21.5258 69.1644 24.435L64.9998 26.4434C66.3757 20.6692 68.2667 14.9689 71.622 9.98486C72.5638 15.8919 71.9089 21.8802 70.7537 27.706C70.6566 28.1414 70.4624 28.5491 70.1858 28.8984C69.9091 29.2478 69.5572 29.5297 69.1564 29.723C68.7556 29.9163 68.3164 30.0159 67.8718 30.0144C67.4271 30.0129 66.9886 29.9103 66.5891 29.7143C60.7542 26.8347 55.1327 23.4013 50.6885 18.5354L50.6591 18.528Z" fill="#FF914C"/>
<path d="M25.2077 18.8972C31.7563 23.8222 36.9805 30.187 41.7926 36.7586C36.7103 41.6612 31.1209 46.0054 25.1194 49.7172C23.324 50.8273 21.4557 51.814 19.5273 52.6707C22.7501 47.2805 26.9516 42.6804 31.4031 38.3387C32.8747 36.921 34.3831 35.5403 35.9357 34.2112L35.5089 38.1393C31.359 32.1585 27.5696 25.8749 25.2077 18.9415V18.8972Z" fill="#FF914C"/>
<path d="M44.3973 36.0866C44.3988 37.3326 44.0319 38.5511 43.3431 39.5878C42.6544 40.6246 41.6747 41.4329 40.5279 41.9108C39.3812 42.3886 38.119 42.5144 36.901 42.2722C35.683 42.03 34.564 41.4307 33.6855 40.5502C32.807 39.6697 32.2085 38.5474 31.9657 37.3255C31.723 36.1035 31.8468 34.8367 32.3217 33.6854C32.7965 32.5341 33.6009 31.55 34.6332 30.8576C35.6655 30.1652 36.8793 29.7957 38.121 29.7957C38.9448 29.7947 39.7608 29.9567 40.5223 30.2724C41.2837 30.5881 41.9757 31.0513 42.5586 31.6356C43.1415 32.2198 43.6039 32.9137 43.9194 33.6775C44.2349 34.4412 44.3973 35.2598 44.3973 36.0866Z" fill="black"/>
<defs>
<linearGradient id="paint0_linear_20_537" x1="4.16383" y1="34.7501" x2="39.4159" y2="34.7501" gradientUnits="userSpaceOnUse">
<stop stop-color="white"/>
<stop offset="1" stop-color="#FF894C"/>
</linearGradient>
</defs>
</svg>
