<svg width="173" height="28" viewBox="0 0 173 28" fill="none" xmlns="http://www.w3.org/2000/svg">
<path d="M51.6082 1.83521L55.5518 9.99509L64.3884 11.3036L57.9931 17.655L59.5058 26.6234L51.6082 22.3892L43.7001 26.6234L45.2128 17.655L38.8175 11.3036L47.6541 9.99509L51.6082 1.83521Z" fill="#FF914C" stroke="black" stroke-width="1.5" stroke-miterlimit="10"/>
<path d="M14.7907 1.83521L18.7343 9.99509L27.5709 11.3036L21.1756 17.655L22.6883 26.6234L14.7907 22.3892L6.88257 26.6234L8.39533 17.655L2 11.3036L10.8366 9.99509L14.7907 1.83521Z" fill="#FF914C" stroke="black" stroke-width="1.5" stroke-miterlimit="10"/>
<path d="M86.3391 1.83521L90.2932 9.99509L99.1194 11.3036L92.7345 17.655L94.2368 26.6234L86.3391 22.3892L78.4415 26.6234L79.9438 17.655L73.5589 11.3036L82.3851 9.99509L86.3391 1.83521Z" fill="#FF914C" stroke="black" stroke-width="1.5" stroke-miterlimit="10"/>
<path d="M122.468 1.83521L126.412 9.99509L135.248 11.3036L128.853 17.655L130.366 26.6234L122.468 22.3892L114.56 26.6234L116.073 17.655L109.677 11.3036L118.514 9.99509L122.468 1.83521Z" fill="#FF914C" stroke="black" stroke-width="1.5" stroke-miterlimit="10"/>
<path d="M157.888 1.83521L161.842 9.99509L170.678 11.3036L164.283 17.655L165.796 26.6234L157.888 22.3892L149.99 26.6234L151.503 17.655L145.107 11.3036L153.944 9.99509L157.888 1.83521Z" fill="#FF914C" stroke="black" stroke-width="1.5" stroke-miterlimit="10"/>
</svg>
