<svg width="326" height="91" viewBox="0 0 326 91" fill="none" xmlns="http://www.w3.org/2000/svg">
<path d="M311.528 4.32959H19.4645C11.472 4.32959 4.99277 10.8088 4.99277 18.8013V75.7717C4.99277 83.7643 11.472 90.2435 19.4645 90.2435H311.528C319.521 90.2435 326 83.7643 326 75.7717V18.8013C326 10.8088 319.521 4.32959 311.528 4.32959Z" fill="#FF914C"/>
<path d="M306.535 0H14.4717C6.47922 0 0 6.47922 0 14.4717V71.4421C0 79.4347 6.47922 85.9139 14.4717 85.9139H306.535C314.528 85.9139 321.007 79.4347 321.007 71.4421V14.4717C321.007 6.47922 314.528 0 306.535 0Z" fill="black"/>
</svg>
