<svg width="392" height="344" viewBox="0 0 392 344" fill="none" xmlns="http://www.w3.org/2000/svg">
<path d="M382.989 1H8.72358C4.45797 1 1 4.46273 1 8.73422V334.977C1 339.248 4.45797 342.711 8.72358 342.711H382.989C387.255 342.711 390.713 339.248 390.713 334.977V8.73422C390.713 4.46273 387.255 1 382.989 1Z" fill="white" stroke="black" stroke-width="2" stroke-miterlimit="10"/>
<path d="M185.13 81.1523L188.265 87.5137L195.267 88.5321L190.202 93.482L191.399 100.462L185.13 97.1686L178.868 100.462L180.065 93.482L174.993 88.5321L182.002 87.5137L185.13 81.1523Z" fill="#FF914C" stroke="black" stroke-width="1.5" stroke-miterlimit="10"/>
<path d="M155.935 81.1523L159.07 87.5137L166.072 88.5321L161.007 93.482L162.204 100.462L155.935 97.1686L149.673 100.462L150.87 93.482L145.798 88.5321L152.801 87.5137L155.935 81.1523Z" fill="#FF914C" stroke="black" stroke-width="1.5" stroke-miterlimit="10"/>
<path d="M212.678 81.1523L215.806 87.5137L222.815 88.5321L217.743 93.482L218.94 100.462L212.678 97.1686L206.409 100.462L207.606 93.482L202.54 88.5321L209.543 87.5137L212.678 81.1523Z" fill="#FF914C" stroke="black" stroke-width="1.5" stroke-miterlimit="10"/>
<path d="M241.319 81.1523L244.454 87.5137L251.457 88.5321L246.391 93.482L247.588 100.462L241.319 97.1686L235.057 100.462L236.254 93.482L231.182 88.5321L238.185 87.5137L241.319 81.1523Z" fill="#FF914C" stroke="black" stroke-width="1.5" stroke-miterlimit="10"/>
<path d="M269.414 81.1523L272.548 87.5137L279.551 88.5321L274.486 93.482L275.683 100.462L269.414 97.1686L263.151 100.462L264.348 93.482L259.277 88.5321L266.279 87.5137L269.414 81.1523Z" fill="#FF914C" stroke="black" stroke-width="1.5" stroke-miterlimit="10"/>
<path d="M68.8968 118.418C96.2678 118.418 118.456 96.1993 118.456 68.7905C118.456 41.3818 96.2678 19.1626 68.8968 19.1626C41.5257 19.1626 19.3371 41.3818 19.3371 68.7905C19.3371 96.1993 41.5257 118.418 68.8968 118.418Z" fill="#FF914C" stroke="black" stroke-width="3" stroke-miterlimit="10"/>
</svg>
