<svg width="392" height="351" viewBox="0 0 392 351" fill="none" xmlns="http://www.w3.org/2000/svg">
<path d="M382.989 1.72339H8.72358C4.45797 1.72339 1 5.24918 1 9.59846V341.782C1 346.131 4.45797 349.657 8.72358 349.657H382.989C387.255 349.657 390.713 346.131 390.713 341.782V9.59846C390.713 5.24918 387.255 1.72339 382.989 1.72339Z" fill="white" stroke="black" stroke-width="2" stroke-miterlimit="10"/>
<path d="M185.13 83.3354L188.265 89.8127L195.267 90.8496L190.202 95.8896L191.399 102.997L185.13 99.6434L178.868 102.997L180.065 95.8896L174.993 90.8496L182.002 89.8127L185.13 83.3354Z" fill="#FF914C" stroke="black" stroke-width="1.5" stroke-miterlimit="10"/>
<path d="M155.935 83.3354L159.07 89.8127L166.072 90.8496L161.007 95.8896L162.204 102.997L155.935 99.6434L149.673 102.997L150.87 95.8896L145.798 90.8496L152.801 89.8127L155.935 83.3354Z" fill="#FF914C" stroke="black" stroke-width="1.5" stroke-miterlimit="10"/>
<path d="M212.678 83.3354L215.806 89.8127L222.815 90.8496L217.743 95.8896L218.94 102.997L212.678 99.6434L206.409 102.997L207.606 95.8896L202.54 90.8496L209.543 89.8127L212.678 83.3354Z" fill="#FF914C" stroke="black" stroke-width="1.5" stroke-miterlimit="10"/>
<path d="M241.319 83.3354L244.454 89.8127L251.457 90.8496L246.391 95.8896L247.588 102.997L241.319 99.6434L235.057 102.997L236.254 95.8896L231.182 90.8496L238.185 89.8127L241.319 83.3354Z" fill="#FF914C" stroke="black" stroke-width="1.5" stroke-miterlimit="10"/>
<path d="M269.414 83.3354L272.548 89.8127L279.551 90.8496L274.486 95.8896L275.683 102.997L269.414 99.6434L263.151 102.997L264.348 95.8896L259.277 90.8496L266.279 89.8127L269.414 83.3354Z" fill="#FF914C" stroke="black" stroke-width="1.5" stroke-miterlimit="10"/>
<path d="M68.8968 121.28C96.2678 121.28 118.456 98.6561 118.456 70.7482C118.456 42.8404 96.2678 20.2166 68.8968 20.2166C41.5257 20.2166 19.3371 42.8404 19.3371 70.7482C19.3371 98.6561 41.5257 121.28 68.8968 121.28Z" fill="#FF914C" stroke="black" stroke-width="3" stroke-miterlimit="10"/>
</svg>
