<svg width="150" height="150" viewBox="0 0 150 150" fill="none" xmlns="http://www.w3.org/2000/svg">
<g clip-path="url(#clip0_23_863)">
<path d="M3.58649 96.7678C0.730013 87.3396 -0.23263 77.4397 0.753958 67.6381C1.74054 57.8365 4.65688 48.3268 9.33507 39.6566C14.0133 30.9863 20.3609 23.3268 28.0124 17.119C35.664 10.9112 44.4684 6.27778 53.9186 3.48551C92.929 -8.21657 134.693 14.2842 146.428 53.4666C152.037 72.3625 149.938 92.7095 140.59 110.064C131.242 127.418 115.404 140.369 96.536 146.089C77.6676 151.809 57.3017 149.832 39.8862 140.591C22.4707 131.35 9.42074 115.595 3.58649 96.7678ZM144.165 66.7337L142.265 67.2672C136.081 68.9958 129.918 70.824 123.699 72.4033C121.934 72.8657 121.45 73.5771 121.45 75.3839C121.493 97.7922 104.927 118.685 80.1414 121.203C60.6931 123.181 45.5643 115.306 35.061 98.7739C34.4134 97.7637 33.8939 97.529 32.7553 97.8562C26.2584 99.7271 19.74 101.52 13.2288 103.348C12.6951 103.497 12.1756 103.689 11.6419 103.874C21.8677 129.014 54.3384 152.611 92.7653 142.552C130.523 132.635 148.513 96.2983 144.165 66.6981V66.7337ZM115.209 63.9877C109.31 42.0561 86.4107 28.8957 64.3792 34.7788C42.3478 40.6618 29.0265 63.4044 34.4276 84.9305C40.1205 107.538 63.4115 121.516 86.062 115.306C96.7352 112.354 105.8 105.287 111.265 95.6581C116.73 86.0293 118.149 74.6258 115.209 63.9522V63.9877ZM25.7887 88.2313L25.3688 83.6999L18.7722 84.2334C20.3093 83.0597 21.4906 82.1775 22.6434 81.2741C24.0239 80.1928 23.8531 78.6349 22.2733 77.8311C20.964 77.1624 19.6404 76.5221 18.3239 75.8677L18.4378 75.5618L24.5007 74.8148L24.0666 70.2976L8.75278 71.8698C8.50372 75.5333 8.53218 75.6187 11.464 77.0486C13.4494 78.0232 15.4561 78.9479 17.6194 79.9723C15.6838 81.3951 13.9689 82.9174 12.0618 84.0911C10.1546 85.2649 9.67787 86.5809 10.1262 88.587C10.3041 89.3909 10.4962 89.8035 11.4284 89.6754C13.058 89.462 14.7018 89.3695 16.3385 89.2059C19.434 88.8929 22.5295 88.5799 25.7887 88.2313ZM75.1245 24.2078C77.8002 24.6133 80.3121 25.0117 82.8241 25.3816C83.7188 25.5271 84.6222 25.6127 85.5283 25.6377C87.4425 25.6377 89.1859 25.1682 90.0896 23.2759C90.5553 22.4305 90.6987 21.4449 90.4933 20.5019C90.2879 19.5589 89.7476 18.7222 88.9724 18.1469C91.9897 14.8959 91.3777 11.7445 87.3144 10.5494C84.1904 9.64599 80.9099 9.33299 77.5084 8.72832C76.7185 14.0352 75.9429 19.0575 75.1459 24.2434L75.1245 24.2078ZM33.6164 46.2603L28.0587 41.7075L35.1108 41.608C37.6868 41.5724 38.6688 40.8966 39.722 38.2645L27.8381 28.6894L24.828 32.4241L30.3786 36.9841C27.9022 37.0267 25.8456 37.3041 23.8531 37.0409C21.1277 36.6853 19.8041 38.1578 18.6228 40.3275L30.6276 50.0164L33.6164 46.2603ZM11.7415 60.5376C12.3156 62.587 13.6739 64.328 15.5224 65.3838C17.371 66.4396 19.5611 66.7252 21.6187 66.1788C25.9453 64.9339 28.813 59.4634 27.5179 54.9391C26.9046 52.9384 25.5427 51.2513 23.7159 50.2296C21.8892 49.2078 19.7384 48.9301 17.7119 49.4544C13.2786 50.6282 10.4464 55.9066 11.7558 60.5518L11.7415 60.5376ZM131.37 40.4769L117.351 47.2847L119.436 51.4747C121.279 51.304 122.539 49.2197 124.588 50.6139C123.713 52.4351 122.297 54.1708 122.176 55.999C122.062 57.7206 123.315 59.5559 123.969 61.2988L124.503 61.1707L129.178 51.9229L138.123 54.5763C137.618 53.4523 137.198 52.7196 136.942 51.9371C136.739 51.144 136.306 50.4287 135.697 49.8817C135.087 49.3347 134.33 48.9805 133.519 48.864C131.855 48.4453 130.213 47.9395 128.602 47.3488L133.512 44.8234L131.37 40.4769ZM43.465 16.8593L33.2464 23.8592L42.0561 36.7137L52.4954 29.5573L50.1969 26.3562L43.7924 30.6244L42.7677 29.0309L48.1261 25.2464L45.9201 22.1448L40.519 25.787L39.5583 24.3643L45.6639 20.096L43.465 16.8593ZM106.087 34.6436C106.186 33.9322 106.293 33.4556 106.329 32.9648C106.656 28.3836 106.941 23.8023 107.325 19.2282C107.424 18.09 107.026 17.6134 106.108 16.9803C104.108 15.6144 102.472 15.6002 100.842 17.4782C100.272 18.0314 99.6528 18.5314 98.9919 18.9721L90.0612 26.0147C91.4488 26.7972 92.5874 27.5157 93.7971 28.0919C94.0159 28.1631 94.2486 28.1802 94.4754 28.1418C94.7022 28.1034 94.9163 28.0106 95.0994 27.8714C96.3732 26.3277 97.6612 26.6407 99.0488 27.6437C99.4215 27.9068 99.8285 28.1174 100.259 28.2697C101.568 28.7393 102.159 29.5147 101.796 30.9801C101.74 31.2578 101.75 31.5448 101.825 31.8179C101.901 32.091 102.039 32.3425 102.23 32.5522C103.49 33.3335 104.792 34.0459 106.129 34.6863L106.087 34.6436ZM125.72 37.3326C126.432 33.7758 124.56 30.1691 121.13 28.2413C119.7 27.3965 118.037 27.0326 116.384 27.2029C114.732 27.3732 113.178 28.0687 111.95 29.1874C110.69 30.2748 109.801 31.7289 109.408 33.3462C109.015 34.9636 109.137 36.6633 109.759 38.2076C111.317 41.9139 114.925 44.297 118.689 43.9626V39.8936C115.402 39.4169 113.857 38.0582 113.914 35.8387C113.982 34.8098 114.426 33.8418 115.163 33.1199C115.899 32.398 116.876 31.973 117.906 31.9262C120.006 31.8266 121.336 33.4841 121.906 37.0339L125.72 37.3326ZM62.4864 26.3348C62.4644 25.9356 62.3902 25.541 62.2658 25.1611C60.6219 22.0452 61.1912 18.9365 62.2159 15.7994C62.5148 14.8888 62.6998 13.9427 62.9276 13.0037C63.1553 12.0647 63.3688 10.9834 63.6392 9.7527C62.4935 10.0728 61.6894 10.3787 60.8639 10.5139C60.2443 10.5563 59.6629 10.8286 59.2337 11.2774C58.8045 11.7261 58.5586 12.319 58.544 12.9396C58.3377 14.3624 57.8751 15.714 57.4766 17.3004C56.0178 15.9985 54.7867 14.8319 53.4703 13.7435C53.0182 13.3655 52.435 13.1815 51.8478 13.2313C50.4505 13.6079 49.073 14.0542 47.7205 14.5687C49.777 16.4325 51.5205 18.2038 53.4632 19.719C55.5058 21.1742 56.8938 23.3743 57.3272 25.8439C57.4799 26.4361 57.6823 27.0143 57.9321 27.5726L62.4864 26.3348Z" fill="#00CE5D" stroke="black" stroke-miterlimit="10"/>
<path d="M144.165 66.6982C148.513 96.2985 130.523 132.635 92.7796 142.516C54.3527 152.575 21.8678 129 11.6562 103.839C12.1899 103.654 12.7094 103.462 13.2431 103.313C19.7543 101.484 26.2726 99.6917 32.7696 97.8208C33.9082 97.4936 34.4276 97.7283 35.0752 98.7385C45.5786 115.271 60.6931 123.146 80.1556 121.168C104.941 118.65 121.507 97.7568 121.465 75.3486C121.465 73.5417 121.948 72.8303 123.713 72.3679C129.933 70.7673 136.095 68.9604 142.279 67.2318L144.165 66.6982ZM121.486 110.028C118.967 111.102 115.836 108.996 113.808 112.02L121.066 117.874L122.525 115.975L118.597 112.681C120.383 112.639 121.728 112.568 123.066 112.596C124.403 112.624 125.912 112.781 126.453 110.818L119.337 105.127L117.878 107.026L121.486 110.028ZM105.489 126.774C105.645 126.254 105.71 125.991 105.809 125.735C106.329 124.312 106.023 122.961 104.891 122.242C103.872 121.605 102.648 121.379 101.468 121.609C99.7889 122.086 98.2874 123.167 96.608 124.056L101.063 132.244L103.098 131.099L101.995 128.431C102.984 128.474 103.831 128.26 104.336 128.581C105.802 129.52 107.005 129.391 108.407 127.962L105.489 126.774ZM82.1837 127.955C82.1262 128.159 82.0881 128.369 82.0699 128.581C82.1766 129.875 82.2976 131.17 82.3972 132.465C82.5609 134.599 82.0627 135.545 80.7747 135.644C79.4867 135.744 78.7822 134.855 78.5901 132.799C78.4549 131.376 78.277 129.911 78.1062 128.396L75.6298 128.588C75.9073 130.722 76.0354 132.792 76.4553 134.762C76.9463 137.046 78.7039 137.971 81.3084 137.608C83.5785 137.281 84.9803 135.815 84.9092 133.603C84.8451 131.689 84.589 129.79 84.4039 127.784L82.1837 127.955ZM34.3636 112.603C31.7307 113.315 29.7168 116.437 30.3715 118.728C30.5043 119.237 30.7382 119.713 31.0591 120.13C31.3801 120.546 31.7816 120.894 32.2397 121.152C32.6978 121.41 33.2032 121.574 33.7258 121.633C34.2484 121.692 34.7775 121.645 35.2816 121.495C37.9501 120.72 39.9142 117.711 39.2666 115.392C39.1366 114.885 38.9061 114.409 38.5888 113.992C38.2714 113.576 37.8737 113.227 37.4192 112.967C36.9646 112.707 36.4625 112.541 35.9425 112.478C35.4226 112.416 34.8953 112.458 34.3921 112.603H34.3636ZM127.221 93.4814C127.698 91.8453 128.111 90.4083 128.566 88.8433L126.745 88.452L124.702 95.3025L133.633 98.0413C134.345 95.6226 135.056 93.3178 135.825 90.9276L134.046 90.4012C133.526 91.9947 133.042 93.4886 132.516 95.0963L130.758 94.5271C131.142 93.1044 131.47 91.8595 131.868 90.5079L130.217 90.0455L128.936 93.9296L127.221 93.4814ZM47.2651 121.609C46.955 120.628 46.2833 119.801 45.3861 119.296C44.4888 118.792 43.4332 118.647 42.4333 118.892C39.9355 119.603 38.0213 122.961 38.7115 125.386C38.8477 125.879 39.0803 126.34 39.3958 126.742C39.7113 127.144 40.1035 127.479 40.5496 127.728C40.9957 127.978 41.4868 128.136 41.9946 128.195C42.5024 128.253 43.0167 128.21 43.5078 128.068C46.0553 127.357 47.998 124.028 47.2935 121.609H47.2651ZM128.502 78.7347C128.118 81.2174 127.791 83.4938 127.392 85.9195L136.643 87.3423C137.027 84.7671 137.355 82.4338 137.739 79.9867L135.939 79.7733L135.085 84.6248L133.284 84.2265C133.469 82.8037 133.633 81.5304 133.811 80.1788L132.096 79.8871C131.861 81.3099 131.648 82.6046 131.384 84.0202L129.655 83.6929C129.883 82.0995 130.089 80.6127 130.31 79.0548L128.502 78.7347ZM71.1965 132.941C70.6912 135.644 70.2216 136.064 68.5778 135.488C68.2113 135.368 67.8745 135.172 67.5893 134.912C67.3042 134.653 67.0772 134.336 66.9232 133.983C66.7693 133.629 66.692 133.247 66.6963 132.862C66.7006 132.476 66.7864 132.096 66.9482 131.746C67.0777 131.367 67.2924 131.023 67.5756 130.739C67.8589 130.456 68.2033 130.241 68.5825 130.111C68.9616 129.981 69.3655 129.94 69.7631 129.99C70.1607 130.041 70.5414 130.181 70.8762 130.402C72.1429 131.234 72.8616 130.949 73.6586 129.868C72.9537 129.064 72.0365 128.475 71.012 128.168C69.9875 127.861 68.8973 127.849 67.8662 128.132C67.016 128.277 66.2283 128.672 65.6034 129.266C64.9786 129.86 64.545 130.627 64.3579 131.469C64.0883 132.317 64.0719 133.226 64.3107 134.084C64.5496 134.942 65.0333 135.712 65.7029 136.299C67.5459 137.914 69.7306 138.042 71.9437 137.231C73.7725 136.519 72.7264 134.748 73.189 133.525C73.189 133.446 73.1107 133.318 73.0324 133.119L71.1965 132.941ZM88.026 136.42C89.5062 136.249 90.5238 136.057 90.6092 134.385C90.6661 133.368 94.3594 132.422 94.9784 133.247C96.0316 134.67 96.9425 133.959 98.1807 133.333C96.0459 130.9 94.1032 128.581 92.0537 126.326C91.2354 125.422 89.2642 126.148 89.0934 127.407C88.7234 130.373 88.4103 133.354 88.0545 136.42H88.026ZM110.598 126.838C111.943 126.041 112.947 125.465 112.192 123.992C112.151 123.89 112.134 123.78 112.143 123.67C112.151 123.56 112.185 123.454 112.242 123.359C113.053 122.491 113.969 121.726 114.968 121.083C115.43 120.834 116.298 121.346 117.102 121.552L118.896 119.994C115.921 118.529 113.203 117.149 110.42 115.84C109.424 115.363 107.809 116.736 108.093 117.825C108.905 120.812 109.759 123.743 110.627 126.838H110.598ZM125.713 97.394L124.055 96.6826L124.432 97.0454C122.973 99.2649 121.507 101.484 119.97 103.832L121.778 104.792C122.297 103.91 122.745 103.149 123.244 102.317L129.783 105.738L130.822 103.604L124.524 99.9478L125.713 97.394ZM26.294 114.773L33.7161 109.125L31.14 105.753L29.7737 106.855L30.6134 108.328L24.821 112.809L26.294 114.773ZM59.1205 126.112C58.1954 125.913 57.5621 125.571 57.2632 125.756C54.2246 127.634 51.2359 129.598 48.2329 131.54L48.4037 132.088C48.9516 132.088 49.6205 132.237 50.019 131.981C52.9651 130.202 55.8329 128.268 59.1489 126.112H59.1205ZM56.3167 134.755C56.9514 134.501 57.4732 134.027 57.7868 133.419C58.1004 132.812 58.1848 132.112 58.0246 131.447C57.8317 130.877 57.4335 130.399 56.9074 130.105C56.3813 129.812 55.7649 129.725 55.1782 129.861C54.5166 130.125 53.9737 130.621 53.6504 131.256C53.3271 131.89 53.2454 132.621 53.4205 133.311C53.6303 133.881 54.0506 134.348 54.5947 134.616C55.1389 134.885 55.7655 134.935 56.3452 134.755H56.3167ZM53.4703 124.711C53.3997 124.421 53.2692 124.149 53.0873 123.913C52.9053 123.677 52.6758 123.482 52.4137 123.34C52.1516 123.198 51.8626 123.112 51.5653 123.088C51.2681 123.065 50.9692 123.104 50.6879 123.203C50.3523 123.309 50.0412 123.481 49.773 123.709C49.5047 123.937 49.2846 124.216 49.1256 124.53C48.9665 124.844 48.8717 125.187 48.8468 125.538C48.8218 125.889 48.8671 126.241 48.9801 126.574C49.0692 126.858 49.2144 127.12 49.407 127.346C49.5997 127.572 49.8358 127.757 50.1014 127.889C50.367 128.022 50.6566 128.1 50.953 128.119C51.2493 128.137 51.5464 128.096 51.8265 127.997C52.477 127.773 53.015 127.305 53.327 126.692C53.639 126.079 53.7006 125.368 53.4988 124.711H53.4703Z" fill="white"/>
<path d="M115.209 63.9523C118.137 74.6249 116.709 86.0226 111.239 95.6438C105.769 105.265 96.704 112.324 86.0335 115.271C63.383 121.481 40.0707 107.502 34.3992 84.8951C28.9981 63.3689 42.3336 40.6192 64.3508 34.7433C86.368 28.8674 109.31 41.9922 115.209 63.9523ZM99.8458 61.306L99.6608 61.3486C98.5293 57.3009 97.3623 53.2603 96.2878 49.1913C96.2288 48.7216 96.0003 48.2897 95.6452 47.9766C95.2901 47.6635 94.8328 47.4909 94.3593 47.4911C85.6136 46.545 76.8822 45.4921 68.1294 44.5958C67.0348 44.5281 65.95 44.8369 65.0553 45.4708C58.0815 50.7421 51.2002 56.1414 44.2621 61.4482C43.8483 61.6752 43.5325 62.0464 43.375 62.4912C43.2176 62.936 43.2293 63.4231 43.4081 63.8598C45.5003 71.1229 47.4928 78.4144 49.5493 85.6847C51.0111 91.1544 54.0089 96.0914 58.1882 99.9121C65.4538 106.485 74.2421 109.06 83.8062 109.445C84.5374 109.447 85.2468 109.196 85.8129 108.733C89.065 105.923 92.5803 103.32 95.3912 100.111C101.539 93.0901 104.542 84.8097 103.126 75.4125C102.408 70.6391 100.963 65.9939 99.8458 61.306Z" fill="white"/>
<path d="M25.7887 88.2316C22.5082 88.5588 19.3842 88.8718 16.3172 89.1706C14.6805 89.3342 13.0367 89.4267 11.4071 89.6401C10.4749 89.7681 10.2827 89.3555 10.1048 88.5517C9.65653 86.5456 10.2187 85.1656 12.0404 84.0558C13.8621 82.9461 15.6625 81.3882 17.5981 79.937C15.4633 78.9126 13.4281 77.9878 11.4427 77.0132C8.51084 75.5905 8.48238 75.498 8.73144 71.8344L24.0666 70.2979L24.5007 74.8151L18.4378 75.562L18.3239 75.8679C19.6404 76.5224 20.964 77.1626 22.2734 77.8313C23.8531 78.6352 24.0239 80.193 22.6434 81.2743C21.4906 82.1778 20.3093 83.0599 18.7723 84.2337L25.3689 83.7001L25.7887 88.2316Z" fill="white"/>
<path d="M75.1459 24.2436C75.9429 19.0577 76.7185 14.0354 77.5298 8.76416C80.9099 9.36883 84.2118 9.68183 87.3357 10.5853C91.399 11.759 92.011 14.9318 88.9938 18.1828C89.7689 18.7581 90.3092 19.5948 90.5147 20.5378C90.7201 21.4808 90.5767 22.4663 90.111 23.3117C89.2073 25.204 87.4638 25.6877 85.5496 25.6735C84.6435 25.6485 83.7401 25.5629 82.8455 25.4174C80.3335 25.0475 77.8215 24.6491 75.1459 24.2436ZM80.5612 21.2985C81.7951 21.5123 83.04 21.6572 84.2901 21.7325C84.7241 21.7325 85.1725 21.2345 85.6137 20.9571C85.2792 20.516 85.023 19.8189 84.5961 19.6838C83.3802 19.3822 82.1467 19.1565 80.9028 19.0079L80.5612 21.2985ZM81.4507 15.4582C82.518 15.6285 83.5944 15.7354 84.6743 15.7783C85.0515 15.7783 85.699 15.3159 85.7275 15.0172C85.7035 14.7851 85.6228 14.5625 85.4925 14.369C85.3622 14.1755 85.1863 14.017 84.9803 13.9074C83.9261 13.6397 82.8568 13.4354 81.7781 13.2956L81.4507 15.4582Z" fill="white"/>
<path d="M33.6164 46.2608L30.6276 50.0168L18.6726 40.3421C19.8539 38.208 21.1775 36.6999 23.9029 37.0556C25.8954 37.3188 27.952 37.0556 30.4284 36.9987L24.8778 32.4388L27.8879 28.7041L39.7718 38.2792C38.7186 40.8828 37.7366 41.587 35.1606 41.6226L28.1085 41.7222L33.6164 46.2608Z" fill="white"/>
<path d="M11.7558 60.5519C10.4464 55.9067 13.2786 50.5927 17.7119 49.4403C19.7384 48.916 21.8892 49.1937 23.7159 50.2154C25.5427 51.2372 26.9046 52.9242 27.5179 54.9249C28.813 59.4493 25.9452 64.9197 21.6187 66.1646C19.5669 66.7078 17.3837 66.4241 15.5392 65.3744C13.6946 64.3246 12.336 62.5929 11.7558 60.5519ZM15.876 58.6454C16.2026 59.6476 16.9011 60.4864 17.8278 60.9893C18.7544 61.4921 19.8386 61.6208 20.8572 61.3487C21.7606 61.0679 22.5224 60.4526 22.9867 59.6287C23.4511 58.8048 23.5828 57.8346 23.355 56.9168C22.8497 54.9534 20.4516 53.68 18.3239 54.2491C17.8744 54.377 17.4544 54.5922 17.088 54.8824C16.7217 55.1725 16.4161 55.532 16.1888 55.9403C15.9615 56.3486 15.8168 56.7976 15.7632 57.2617C15.7095 57.7259 15.7478 58.1961 15.876 58.6454Z" fill="white"/>
<path d="M131.384 40.4912L133.519 44.8448L128.609 47.3702C130.22 47.9609 131.862 48.4667 133.526 48.8854C134.337 49.002 135.095 49.3561 135.704 49.9031C136.313 50.4501 136.746 51.1654 136.949 51.9585C137.205 52.741 137.625 53.4737 138.13 54.5977L129.193 51.9514L124.517 61.1993L123.984 61.3273C123.329 59.556 122.076 57.7704 122.19 56.0276C122.311 54.1993 123.727 52.4707 124.603 50.6425C122.553 49.2197 121.294 51.3539 119.451 51.5032L117.366 47.3132L131.384 40.4912Z" fill="white"/>
<path d="M43.4793 16.8735L45.6995 20.1458L39.5939 24.4141L40.5546 25.8368L45.9557 22.1946L48.1617 25.2962L42.8033 29.0807L43.828 30.6742L50.2325 26.4059L52.531 29.6071L42.0703 36.7279L33.2606 23.8735L43.4793 16.8735Z" fill="white"/>
<path d="M106.129 34.6864C104.807 34.0585 103.52 33.3604 102.272 32.595C102.082 32.3853 101.943 32.1338 101.868 31.8607C101.792 31.5876 101.782 31.3006 101.838 31.0229C102.201 29.5575 101.611 28.7821 100.301 28.3126C99.8712 28.1603 99.4642 27.9496 99.0915 27.6866C97.7039 26.6835 96.4158 26.3705 95.1421 27.9142C94.959 28.0534 94.7449 28.1462 94.5181 28.1846C94.2913 28.223 94.0586 28.2059 93.8398 28.1347C92.6301 27.5585 91.4915 26.84 90.1039 26.0575L99.0346 19.0149C99.6954 18.5742 100.315 18.0742 100.885 17.521C102.514 15.643 104.151 15.6573 106.151 17.0231C107.069 17.6562 107.467 18.1328 107.368 19.271C106.983 23.8451 106.699 28.4264 106.371 33.0076C106.336 33.4985 106.2 33.9822 106.129 34.6864ZM100.017 23.8878L102.429 25.1185C102.55 23.8594 102.65 22.8421 102.778 21.5617L100.017 23.8878Z" fill="white"/>
<path d="M125.763 37.3756L121.856 37.0128C121.287 33.4559 119.956 31.8056 117.857 31.9052C116.826 31.952 115.849 32.377 115.113 33.0989C114.376 33.8207 113.932 34.7888 113.864 35.8177C113.808 38.0372 115.352 39.3746 118.639 39.8725V43.9416C114.875 44.2759 111.267 41.8928 109.709 38.1866C109.104 36.6421 108.996 34.9477 109.399 33.3388C109.802 31.7299 110.696 30.2864 111.957 29.2091C113.185 28.0904 114.739 27.3948 116.391 27.2245C118.044 27.0542 119.707 27.4182 121.137 28.2629C124.603 30.2121 126.481 33.8045 125.763 37.3756Z" fill="white"/>
<path d="M62.529 26.3776L57.9676 27.651C57.7179 27.0927 57.5155 26.5145 57.3628 25.9223C56.9293 23.4526 55.5414 21.2525 53.4987 19.7974C51.556 18.2822 49.8126 16.5109 47.756 14.6471C49.1086 14.1326 50.4861 13.6862 51.8834 13.3097C52.4706 13.2598 53.0538 13.4439 53.5059 13.8219C54.8223 14.8747 56.0534 16.0414 57.5122 17.3787C57.9107 15.7924 58.3732 14.4266 58.5796 13.018C58.5941 12.3973 58.8401 11.8045 59.2693 11.3557C59.6985 10.9069 60.2798 10.6346 60.8995 10.5922C61.7249 10.4571 62.529 10.1512 63.6747 9.83105C63.4043 11.0617 63.1908 12.0719 62.9631 13.082C62.7354 14.0922 62.5575 14.9672 62.2515 15.8777C61.2268 19.0149 60.6575 22.1236 62.3013 25.2394C62.4252 25.6076 62.5017 25.9901 62.529 26.3776Z" fill="white"/>
<path d="M121.486 110.028L117.892 106.99L119.351 105.091L126.467 110.782C125.955 112.745 124.51 112.589 123.08 112.56C121.65 112.532 120.397 112.603 118.611 112.646L122.539 115.939L121.08 117.839L113.822 111.984C115.836 108.996 118.967 111.102 121.486 110.028Z" fill="black"/>
<path d="M105.489 126.774L108.406 127.962C106.983 129.384 105.802 129.519 104.336 128.58C103.831 128.26 102.984 128.474 101.995 128.431L103.098 131.099L101.063 132.244L96.608 124.056C98.2874 123.167 99.7889 122.086 101.468 121.609C102.648 121.378 103.872 121.605 104.891 122.242C106.023 122.954 106.314 124.376 105.809 125.735C105.738 125.991 105.674 126.254 105.489 126.774ZM101.305 127.485C102.078 126.705 102.792 125.868 103.439 124.981C103.56 124.775 102.92 123.7 102.664 123.715C101.611 123.832 100.571 124.039 99.554 124.334L101.305 127.485Z" fill="black"/>
<path d="M82.2121 127.955L84.4324 127.805C84.6174 129.811 84.8735 131.711 84.9376 133.624C85.0087 135.837 83.6069 137.302 81.3368 137.629C78.7324 137.992 76.9747 137.067 76.4837 134.784C76.0638 132.813 75.9357 130.779 75.6582 128.609L78.1346 128.417C78.3054 129.932 78.4833 131.376 78.6185 132.82C78.8106 134.855 79.4795 135.737 80.8031 135.666C82.1267 135.595 82.5893 134.613 82.4256 132.486C82.326 131.191 82.205 129.897 82.0983 128.602C82.1151 128.383 82.1533 128.166 82.2121 127.955Z" fill="black"/>
<path d="M34.392 112.603C34.8971 112.454 35.4272 112.408 35.9504 112.468C36.4737 112.529 36.9793 112.694 37.4371 112.954C37.8949 113.215 38.2954 113.565 38.6147 113.983C38.9339 114.402 39.1653 114.881 39.295 115.392C39.9426 117.711 37.9786 120.72 35.31 121.495C34.8059 121.645 34.2768 121.691 33.7542 121.633C33.2316 121.574 32.7262 121.41 32.2681 121.152C31.81 120.894 31.4085 120.546 31.0876 120.13C30.7666 119.713 30.5328 119.237 30.3999 118.728C29.7453 116.437 31.7591 113.35 34.392 112.603ZM33.9509 119.475C35.7868 118.892 37.6228 116.544 37.0962 115.655C36.8764 115.384 36.5934 115.17 36.2721 115.034C35.9508 114.898 35.6009 114.842 35.2531 114.872C33.7658 115.199 32.0936 117.625 32.6201 118.55C32.9048 119.048 33.6591 119.283 33.9509 119.475Z" fill="black"/>
<path d="M127.25 93.4816L128.922 93.9226L130.203 90.0385L131.854 90.5009C131.484 91.8525 131.142 93.133 130.744 94.5202L132.502 95.0893C133.028 93.4816 133.512 91.9877 134.031 90.3942L135.811 90.9206C135.099 93.318 134.387 95.6228 133.619 98.0344L124.702 95.3027L126.787 88.4521L128.609 88.8434C128.139 90.4084 127.727 91.8454 127.25 93.4816Z" fill="black"/>
<path d="M47.2935 121.609C48.0051 124.028 46.0553 127.357 43.5362 128.068C43.0452 128.21 42.5308 128.253 42.023 128.195C41.5152 128.136 41.0241 127.978 40.578 127.728C40.1319 127.479 39.7398 127.143 39.4243 126.741C39.1088 126.339 38.8762 125.879 38.74 125.386C38.0284 122.961 39.9639 119.617 42.4617 118.892C43.4617 118.647 44.5173 118.792 45.4145 119.296C46.3117 119.801 46.9835 120.628 47.2935 121.609ZM43.3654 121.033C42.3265 121.353 40.7325 123.75 40.8463 124.832C40.9602 125.913 42.0917 126.525 42.8175 125.806C43.7927 124.831 44.5579 123.666 45.0662 122.384C45.4433 121.453 44.3759 120.72 43.3654 121.033Z" fill="black"/>
<path d="M128.531 78.7349L130.352 79.0479C130.132 80.6058 129.926 82.0925 129.698 83.686L131.427 84.0132C131.669 82.5905 131.882 81.2745 132.139 79.8802L133.854 80.1718C133.676 81.5234 133.512 82.7968 133.327 84.2195L135.127 84.6179L135.981 79.7663L137.782 79.9798C137.419 82.4269 137.07 84.7602 136.686 87.3353L127.435 85.9126C127.798 83.4939 128.146 81.2176 128.531 78.7349Z" fill="black"/>
<path d="M71.2249 132.941L73.0609 133.119C73.1391 133.318 73.2459 133.446 73.2174 133.525C72.7549 134.748 73.8009 136.555 71.9721 137.231C69.759 138.042 67.5744 137.942 65.7313 136.299C65.0618 135.712 64.578 134.942 64.3392 134.084C64.1003 133.226 64.1167 132.317 64.3864 131.469C64.5734 130.627 65.0071 129.86 65.6319 129.266C66.2567 128.672 67.0445 128.277 67.8946 128.132C68.9257 127.849 70.016 127.861 71.0404 128.168C72.0649 128.475 72.9822 129.064 73.6871 129.868C72.8901 130.949 72.1714 131.234 70.9047 130.402C70.5699 130.182 70.1891 130.041 69.7915 129.99C69.3939 129.94 68.9901 129.981 68.6109 130.111C68.2318 130.241 67.8873 130.456 67.6041 130.739C67.3208 131.023 67.1062 131.367 66.9766 131.746C66.8149 132.096 66.729 132.476 66.7247 132.862C66.7204 133.247 66.7978 133.629 66.9517 133.983C67.1056 134.336 67.3326 134.653 67.6178 134.912C67.9029 135.172 68.2398 135.368 68.6062 135.488C70.25 136.064 70.7197 135.644 71.2249 132.941Z" fill="black"/>
<path d="M88.0544 136.42C88.4102 133.354 88.7234 130.373 89.1219 127.407C89.2926 126.148 91.2567 125.422 92.0822 126.326C94.1316 128.581 96.0956 130.9 98.2091 133.333C96.9709 133.923 96.0743 134.649 95.0069 133.247C94.3878 132.422 90.6945 133.368 90.6376 134.385C90.5451 136.057 89.5346 136.249 88.0544 136.42ZM91.4417 128.78L91.0219 128.872L90.844 131.789L93.3203 131.077C92.6159 130.202 92.0252 129.491 91.4417 128.78Z" fill="black"/>
<path d="M110.627 126.838C109.766 123.743 108.905 120.813 108.136 117.846C107.851 116.758 109.467 115.385 110.463 115.861C113.231 117.17 115.964 118.55 118.938 120.016L117.145 121.574C116.327 121.367 115.459 120.862 115.01 121.104C114.011 121.748 113.096 122.513 112.285 123.381C112.228 123.475 112.194 123.581 112.185 123.691C112.177 123.801 112.194 123.912 112.235 124.014C112.975 125.465 111.972 126.041 110.627 126.838ZM111.466 121.517L113.494 119.817L110.577 118.344L111.466 121.517Z" fill="black"/>
<path d="M125.741 97.394L124.553 99.898L130.851 103.554L129.812 105.689L123.272 102.267C122.774 103.099 122.326 103.86 121.806 104.742L119.999 103.782C121.536 101.435 123.002 99.2151 124.46 96.9956L124.083 96.6328L125.741 97.394Z" fill="black"/>
<path d="M26.3224 114.773L24.8494 112.809L30.6419 108.328L29.8022 106.855L31.1685 105.752L33.7445 109.124L26.3224 114.773Z" fill="black"/>
<path d="M59.1489 126.112C55.8328 128.246 52.965 130.167 50.0474 131.981C49.6489 132.237 48.98 132.059 48.4321 132.087L48.2613 131.54C51.2643 129.598 54.253 127.634 57.2916 125.756C57.5905 125.571 58.2238 125.934 59.1489 126.112Z" fill="black"/>
<path d="M56.3452 134.755C55.7719 134.928 55.1547 134.877 54.6174 134.613C54.0801 134.349 53.6626 133.892 53.4489 133.333C53.2738 132.642 53.3555 131.912 53.6788 131.277C54.0021 130.642 54.5451 130.147 55.2066 129.882C55.7934 129.747 56.4098 129.834 56.9359 130.127C57.462 130.42 57.8602 130.898 58.053 131.469C58.2076 132.13 58.1204 132.825 57.8072 133.428C57.494 134.031 56.9754 134.501 56.3452 134.755ZM57.1351 131.554C56.7042 131.342 56.2506 131.18 55.783 131.07C55.3719 131.68 55.0351 132.337 54.7796 133.027C55.0471 133.271 55.3587 133.461 55.6976 133.589C56.2116 132.936 56.6913 132.257 57.1351 131.554Z" fill="black"/>
<path d="M53.4988 124.711C53.6957 125.362 53.6349 126.064 53.329 126.671C53.0231 127.279 52.4954 127.746 51.8549 127.976C51.5749 128.074 51.2778 128.116 50.9814 128.097C50.6851 128.079 50.3955 128.001 50.1299 127.868C49.8643 127.735 49.6281 127.55 49.4355 127.324C49.2428 127.099 49.0976 126.836 49.0085 126.553C48.8955 126.22 48.8502 125.867 48.8752 125.516C48.9002 125.165 48.995 124.823 49.154 124.509C49.313 124.195 49.5331 123.915 49.8014 123.688C50.0697 123.46 50.3807 123.287 50.7164 123.181C50.9991 123.083 51.2994 123.044 51.5979 123.069C51.8963 123.094 52.1861 123.182 52.4485 123.326C52.7109 123.47 52.9401 123.668 53.121 123.907C53.3019 124.145 53.4306 124.419 53.4988 124.711ZM52.6021 124.903C52.1881 124.674 51.7576 124.477 51.3141 124.312C50.8887 124.913 50.542 125.566 50.2823 126.254C50.2396 126.368 50.8729 126.717 51.1931 126.966L52.6021 124.903Z" fill="black"/>
<path d="M99.8458 61.3061C100.963 65.994 102.408 70.6393 103.133 75.3913C104.557 84.7885 101.547 93.0688 95.3983 100.09C92.5874 103.298 89.0721 105.902 85.82 108.712C85.2539 109.175 84.5445 109.426 83.8133 109.423C74.2421 109.039 65.4538 106.464 58.1954 99.8909C54.016 96.0702 51.0182 91.1332 49.5564 85.6635C47.4999 78.3933 45.5074 71.1017 43.4152 63.8386C43.2364 63.4019 43.2247 62.9147 43.3822 62.47C43.5397 62.0252 43.8554 61.654 44.2692 61.427C51.2074 56.106 58.0886 50.7208 65.0624 45.4496C65.9571 44.8156 67.042 44.5069 68.1365 44.5746C76.8893 45.4709 85.6208 46.5238 94.3664 47.4699C94.8399 47.4697 95.2972 47.6423 95.6523 47.9554C96.0074 48.2685 96.2359 48.7004 96.2949 49.1701C97.3694 53.2391 98.5365 57.2797 99.6679 61.3274L99.8458 61.3061ZM73.3882 83.0172C70.5418 81.7438 67.8875 80.5345 65.2189 79.4105C64.7413 79.1845 64.2228 79.0574 63.6948 79.0368C63.1667 79.0162 62.6399 79.1025 62.1461 79.2905C61.6522 79.4786 61.2015 79.7644 60.8209 80.131C60.4404 80.4976 60.1379 80.9373 59.9317 81.4237C59.7084 81.8864 59.5792 82.3889 59.5519 82.9019C59.5245 83.415 59.5994 83.9283 59.7722 84.4122C59.945 84.896 60.2123 85.3407 60.5585 85.7204C60.9047 86.1 61.323 86.4071 61.789 86.6238C65.8594 88.5161 69.9583 90.3514 74.0927 92.0872C76.4339 93.0688 78.5402 92.0872 79.4653 89.6898C80.1271 88.0039 80.732 86.2895 81.3724 84.5893C83.8346 77.9972 86.3015 71.4028 88.7732 64.806C89.6556 62.4301 89.2215 60.6516 87.5492 59.485C85.2365 57.8702 82.3972 58.923 81.3013 61.8396C78.6684 68.8466 76.0568 75.8607 73.3882 83.0172Z" fill="#00CE5D" stroke="black" stroke-miterlimit="10"/>
<path d="M80.5826 21.2984L80.9242 19.0078C82.1681 19.1564 83.4015 19.3821 84.6174 19.6836C85.0444 19.8188 85.329 20.5159 85.635 20.957C85.1938 21.2344 84.7455 21.7466 84.3114 21.7324C83.0614 21.6571 81.8165 21.5122 80.5826 21.2984Z" fill="#00CE5D" stroke="black" stroke-width="0.5" stroke-miterlimit="10"/>
<path d="M81.4507 15.4583L81.7781 13.3242C82.8568 13.464 83.9261 13.6683 84.9803 13.936C85.1863 14.0456 85.3622 14.2041 85.4925 14.3976C85.6228 14.5911 85.7035 14.8137 85.7275 15.0457C85.7275 15.3445 85.0159 15.7998 84.6743 15.8069C83.5939 15.7545 82.5174 15.6381 81.4507 15.4583Z" fill="#00CE5D" stroke="black" stroke-width="0.5" stroke-miterlimit="10"/>
<path d="M15.876 58.6455C15.7482 58.1948 15.7108 57.7233 15.7659 57.258C15.8209 56.7928 15.9674 56.3429 16.1968 55.9344C16.4262 55.5259 16.7342 55.1668 17.1029 54.8776C17.4715 54.5884 17.8938 54.3748 18.3453 54.2492C20.4801 53.6801 22.8711 54.9606 23.3763 56.9169C23.6042 57.8347 23.4724 58.8049 23.0081 59.6288C22.5437 60.4527 21.7819 61.068 20.8786 61.3488C19.857 61.6271 18.7675 61.5015 17.836 60.9982C16.9045 60.4949 16.2026 59.6524 15.876 58.6455Z" fill="#00CE5D" stroke="black" stroke-width="0.5" stroke-miterlimit="10"/>
<path d="M100.017 23.888L102.778 21.5405C102.65 22.8423 102.55 23.8596 102.429 25.0974L100.017 23.888Z" fill="#00CE5D" stroke="black" stroke-width="0.5" stroke-miterlimit="10"/>
<path d="M101.333 127.478L99.6181 124.326C100.635 124.032 101.675 123.825 102.728 123.708C102.984 123.708 103.624 124.767 103.503 124.974C102.845 125.862 102.119 126.699 101.333 127.478Z" fill="white"/>
<path d="M33.9508 119.475C33.6591 119.283 32.9048 119.048 32.6201 118.55C32.0935 117.625 33.7658 115.199 35.2531 114.872C35.6009 114.842 35.9508 114.898 36.2721 115.034C36.5934 115.17 36.8764 115.384 37.0962 115.655C37.6227 116.544 35.7868 118.892 33.9508 119.475Z" fill="white"/>
<path d="M43.3655 121.033C44.3759 120.72 45.4433 121.453 45.0662 122.384C44.5579 123.666 43.7927 124.831 42.8175 125.806C42.1059 126.518 40.946 125.806 40.8464 124.832C40.7467 123.857 42.3265 121.353 43.3655 121.033Z" fill="white"/>
<path d="M91.4417 128.78C92.0253 129.491 92.6159 130.203 93.3204 131.092L90.844 131.803L91.0219 128.887L91.4417 128.78Z" fill="white"/>
<path d="M111.466 121.517L110.577 118.344L113.494 119.816L111.466 121.517Z" fill="white"/>
<path d="M57.1351 131.554C56.696 132.256 56.2209 132.935 55.7118 133.589C55.3729 133.461 55.0613 133.271 54.7939 133.027C55.0493 132.337 55.3862 131.68 55.7973 131.07C56.26 131.181 56.7088 131.343 57.1351 131.554Z" fill="white"/>
<path d="M52.6021 124.903L51.1789 126.959C50.8587 126.717 50.2253 126.368 50.268 126.247C50.5277 125.559 50.8745 124.906 51.2999 124.305C51.7484 124.471 52.1837 124.671 52.6021 124.903Z" fill="white"/>
<path d="M73.3882 83.0173C76.0567 75.8609 78.6683 68.8468 81.3013 61.8398C82.3972 58.9231 85.2365 57.8703 87.5492 59.4851C89.2215 60.6518 89.684 62.4302 88.7732 64.8062C86.311 71.3982 83.8441 77.9926 81.3724 84.5894C80.732 86.2896 80.1271 88.004 79.4653 89.69C78.5402 92.0517 76.4339 93.069 74.0927 92.0873C69.9582 90.3515 65.8594 88.5304 61.789 86.624C61.323 86.4073 60.9047 86.1002 60.5585 85.7205C60.2123 85.3408 59.945 84.8961 59.7722 84.4123C59.5993 83.9284 59.5245 83.4151 59.5518 82.9021C59.5792 82.389 59.7083 81.8865 59.9317 81.4238C60.1379 80.9374 60.4404 80.4977 60.8209 80.1312C61.2015 79.7646 61.6522 79.4787 62.1461 79.2907C62.6399 79.1026 63.1667 79.0163 63.6948 79.0369C64.2228 79.0575 64.7413 79.1847 65.2189 79.4106C67.8875 80.5346 70.5204 81.7439 73.3882 83.0173Z" fill="white"/>
</g>
<defs>
<clipPath id="clip0_23_863">
<rect width="150" height="150" fill="white"/>
</clipPath>
</defs>
</svg>
