<svg width="230" height="144" viewBox="0 0 230 144" fill="none" xmlns="http://www.w3.org/2000/svg">
<g clip-path="url(#clip0_20_520)">
<path d="M221.563 7.75977H18.6394C13.9796 7.75977 10.2021 11.5429 10.2021 16.2096V135.55C10.2021 140.217 13.9796 144 18.6394 144H221.563C226.223 144 230 140.217 230 135.55V16.2096C230 11.5429 226.223 7.75977 221.563 7.75977Z" fill="#FF914C"/>
<path d="M212.064 0.704102H9.1404C4.48062 0.704102 0.703125 4.48724 0.703125 9.15398V128.494C0.703125 133.161 4.48062 136.944 9.1404 136.944H212.064C216.724 136.944 220.501 133.161 220.501 128.494V9.15398C220.501 4.48724 216.724 0.704102 212.064 0.704102Z" fill="white" stroke="black" stroke-width="2" stroke-miterlimit="10"/>
<path d="M112.181 23.2372L114.838 28.6381L120.794 29.5042L116.484 33.708L117.503 39.644L112.181 36.8415L106.851 39.644L107.871 33.708L103.56 29.5042L109.516 28.6381L112.181 23.2372Z" fill="#FF914C" stroke="black" stroke-width="1.5" stroke-miterlimit="10"/>
<path d="M87.3679 23.2372L90.0257 28.6381L95.981 29.5042L91.6709 33.708L92.6905 39.644L87.3679 36.8415L82.0384 39.644L83.0579 33.708L78.7479 29.5042L84.7032 28.6381L87.3679 23.2372Z" fill="#FF914C" stroke="black" stroke-width="1.5" stroke-miterlimit="10"/>
<path d="M135.587 23.2372L138.252 28.6381L144.2 29.5042L139.897 33.708L140.909 39.644L135.587 36.8415L130.264 39.644L131.277 33.708L126.974 29.5042L132.922 28.6381L135.587 23.2372Z" fill="#FF914C" stroke="black" stroke-width="1.5" stroke-miterlimit="10"/>
<path d="M159.936 23.2372L162.593 28.6381L168.549 29.5042L164.239 33.708L165.258 39.644L159.936 36.8415L154.606 39.644L155.625 33.708L151.315 29.5042L157.271 28.6381L159.936 23.2372Z" fill="#FF914C" stroke="black" stroke-width="1.5" stroke-miterlimit="10"/>
<path d="M183.806 23.2372L186.471 28.6381L192.426 29.5042L188.116 33.708L189.135 39.644L183.806 36.8415L178.483 39.644L179.503 33.708L175.193 29.5042L181.148 28.6381L183.806 23.2372Z" fill="#FF914C" stroke="black" stroke-width="1.5" stroke-miterlimit="10"/>
</g>
<defs>
<clipPath id="clip0_20_520">
<rect width="230" height="144" fill="white"/>
</clipPath>
</defs>
</svg>
