<svg width="112" height="112" viewBox="0 0 112 112" fill="none" xmlns="http://www.w3.org/2000/svg">
<g clip-path="url(#clip0_20_665)">
<path d="M72.9614 91.7885C68.3621 93.9037 63.3998 95.1159 58.3437 95.3595C51.4989 95.6213 44.9713 94.6215 38.7768 91.5664C33.4411 89.0223 28.7522 85.2996 25.0634 80.679C18.8927 72.8865 15.7836 64.0147 16.4102 54.0796C17.2588 40.7323 23.2391 30.1703 34.5494 22.7587C41.1543 18.3593 48.9701 16.1393 56.9002 16.4103C68.9005 16.7912 78.9417 21.5445 86.659 30.9004C93.369 39.05 96.1767 48.4455 95.6453 58.9202C95.3757 63.8401 93.7259 68.4427 92.1158 73.0135C88.9433 72.4024 85.969 68.4109 86.4211 65.1574C86.8176 62.3403 86.5797 59.5233 86.7145 56.7062C86.7796 56.0294 86.6178 55.35 86.2545 54.7753C85.8912 54.2006 85.347 53.7633 84.7079 53.5321C77.863 50.1357 70.9706 46.8584 64.1258 43.4859C55.6074 39.296 47.0731 35.1379 38.5944 30.8686C35.4218 29.2816 35.4218 29.2816 32.971 31.7574L31.6147 33.1223C29.4177 35.3124 29.3781 35.5029 30.8216 38.2565C38.4517 53.3893 45.8041 68.649 53.3152 83.8294C54.2511 85.718 55.3218 86.4877 57.4316 86.3608C60.4376 86.1783 63.4595 86.2973 66.4735 86.3132C69.2178 86.3528 72.3269 88.9635 72.9614 91.7885Z" fill="#E86810"/>
<path d="M81.4718 89.0747L76.5861 94.1216C75.6581 94.0502 75.436 93.209 74.9998 92.6377C73.12 90.3205 71.4227 87.8288 68.7498 86.2894C64.4192 86.0672 60.0807 86.4084 55.7581 86.1228C54.846 85.8847 54.4494 85.1467 54.0766 84.3928C46.3355 68.7125 38.5072 53.0718 30.9247 37.3836C30.3457 36.1854 30.3537 35.2252 31.3847 34.2809C32.2413 33.4873 33.0266 33.3524 33.899 34.2015C34.2242 34.5189 34.5494 34.8205 34.8666 35.1379C42.3539 42.6289 49.8492 50.112 57.3523 57.5871C58.6213 58.8488 59.1765 59.9677 58.4389 61.8008C57.4158 64.3401 58.5975 66.927 61.0404 68.3475C62.0685 68.8864 63.2383 69.0933 64.3887 68.9399C65.5392 68.7864 66.6139 68.28 67.4649 67.4904C68.3234 66.5677 68.8636 65.3939 69.0064 64.1414C69.1491 62.8889 68.8868 61.6236 68.2581 60.5311C67.617 59.4759 66.6247 58.6803 65.4557 58.2841C64.2866 57.8879 63.0154 57.9165 61.8653 58.3648C59.938 59.2059 58.8038 58.5869 57.503 57.2697C49.9602 49.6517 42.3539 42.0972 34.7953 34.503C33.209 32.916 33.2883 31.9003 34.9539 30.7972C35.2761 30.5836 35.654 30.4697 36.0405 30.4697C36.427 30.4697 36.8049 30.5836 37.1271 30.7972C38.8403 31.686 40.6566 32.3446 42.3698 33.1779C53.4738 38.8278 64.7603 44.0652 75.8564 49.7073C78.6562 51.1277 81.5512 52.3736 84.3668 53.7702C84.9336 53.9908 85.4138 54.3891 85.7355 54.9055C86.0571 55.4219 86.2031 56.0286 86.1514 56.6348C86.1117 60.0391 86.2149 63.4434 86.1117 66.8477C86.0601 67.6138 86.205 68.3804 86.5326 69.0748C86.8601 69.7692 87.3596 70.3683 87.9836 70.8154C89.7047 72.1565 91.3386 73.6086 93.0518 74.9497C94.0194 75.7433 94.3129 76.5923 93.369 77.5604C89.7364 81.2742 86.0721 84.9642 82.3364 88.5827C82.0936 88.8161 81.7965 88.9853 81.4718 89.0747Z" fill="#FED468"/>
<path d="M50.5392 7.12603C49.0163 6.20552 47.5332 7.06257 46.1293 7.39585C25.222 12.4428 12.2435 25.4383 7.19381 46.3824C7.13829 46.6284 7.0669 46.8744 7.00345 47.1204C6.2103 47.5727 5.91684 48.6043 4.85403 48.7075C4.32262 48.1123 4.58436 47.3743 4.58436 46.7157C4.58436 40.4308 4.58436 34.146 4.58436 27.8612C4.70166 27.2302 4.64125 26.5791 4.40987 25.9805C1.48316 25.0124 0.0555013 22.9968 0.499662 20.4257C0.699848 19.3634 1.25545 18.4008 2.07508 17.6963C2.89472 16.9918 3.92959 16.5874 5.00949 16.5495C6.08939 16.5116 7.15001 16.8426 8.01693 17.488C8.88385 18.1333 9.50543 19.0547 9.77946 20.1004C10.0698 21.132 9.98053 22.2335 9.52787 23.2048C9.07521 24.1761 8.28922 24.9527 7.31278 25.3933C6.03582 25.925 5.86925 26.663 5.87718 27.8454C5.92477 33.3604 5.87718 38.8755 6.01202 44.4223C6.98759 41.6211 7.74108 38.7565 8.94666 36.0426C15.4504 21.4203 26.3456 11.7445 41.6322 7.01497C42.116 6.8642 42.6553 6.84832 42.917 6.30871C39.8079 5.84052 36.6829 6.13415 33.5659 6.12621C31.0357 6.12621 28.4897 5.7929 25.9755 6.34838C25.4441 8.44332 24.3019 9.93517 22.0097 10.3161C20.8628 10.5294 19.6776 10.3078 18.685 9.69466C17.6923 9.08148 16.9634 8.12055 16.6402 6.99908C16.3768 5.8608 16.541 4.66537 17.1015 3.64035C17.662 2.61533 18.5796 1.83228 19.6797 1.44025C20.7798 1.04821 21.9855 1.07458 23.0675 1.5143C24.1494 1.95402 25.032 2.7764 25.5472 3.82493C25.7068 4.24448 25.8393 4.67388 25.9438 5.11046C26.2055 5.51516 26.6259 5.38818 26.9907 5.38818H48.1201C48.4393 5.42612 48.7622 5.35929 49.0401 5.19774C49.5319 5.02316 50.1188 5.19776 50.5233 4.72958C51.1182 3.7932 50.7533 2.75365 50.7533 1.78553C50.7533 0.817415 51.1023 0.333366 52.1889 0.357172C54.5684 0.420655 56.9478 0.460332 59.2717 0.357172C60.7628 0.277819 61.4291 0.722171 61.1832 2.26164C61.1517 2.59152 61.1517 2.92367 61.1832 3.25356C61.318 2.39654 60.9452 1.42847 61.4132 0.523833C61.9605 2.02362 61.4132 3.61069 61.7701 5.12635C62.0636 5.49137 62.4681 5.38818 62.8409 5.38818H84.9617C85.3344 5.38818 85.7548 5.50724 86.0166 5.1184C86.1276 4.81686 86.2228 4.51531 86.3417 4.2217C86.7209 3.18561 87.448 2.31345 88.3988 1.75429C89.3495 1.19513 90.4648 0.983665 91.5541 1.15609C92.6434 1.32851 93.639 1.87409 94.3707 2.69957C95.1025 3.52505 95.525 4.57922 95.566 5.68183C95.5582 6.78318 95.169 7.84771 94.4647 8.69417C93.7604 9.54062 92.7845 10.1166 91.7034 10.324C90.5945 10.5672 89.4349 10.3924 88.447 9.83299C87.459 9.27359 86.7122 8.36901 86.3497 7.29269C86.2307 6.99908 86.1355 6.68959 86.0245 6.38804C85.2313 5.92779 84.4382 6.17381 83.5975 6.16588C79.3674 6.16588 75.1372 6.16588 70.9071 6.16588C70.2885 6.16588 69.6302 5.9516 69.0591 6.38804C69.3412 6.7354 69.7429 6.96467 70.1854 7.03081C88.6445 12.8501 100.462 25.0706 105.639 43.6923C105.66 43.8405 105.714 43.9819 105.798 44.1058C105.882 44.2296 105.993 44.3325 106.123 44.4065V37.8995C106.123 34.4317 106.123 30.9719 106.123 27.5041C106.123 26.6233 106.059 26.044 105.012 25.6234C103.973 25.238 103.105 24.4954 102.562 23.5284C102.02 22.5613 101.838 21.4327 102.051 20.3443C102.264 19.2559 102.856 18.2787 103.723 17.5871C104.589 16.8955 105.673 16.5347 106.781 16.5692C107.878 16.5303 108.953 16.8782 109.82 17.5522C110.686 18.2262 111.288 19.1834 111.52 20.2564C111.753 21.3294 111.601 22.45 111.091 23.4223C110.582 24.3947 109.747 25.1569 108.732 25.5758C108.376 25.6709 108.066 25.8922 107.86 26.1988C107.654 26.5053 107.567 26.8761 107.614 27.2423C107.614 34.4952 107.654 41.7402 107.614 48.9931C107.614 50.1517 108.018 50.3898 109.049 50.3501C109.843 50.3501 110.707 50.0882 111.484 50.5485C111.865 53.7226 111.548 56.8968 111.659 60.1106C111.659 60.9518 111.286 61.2136 110.501 61.2057C107.812 61.2057 105.131 61.2057 102.443 61.2057C101.499 61.2057 101.245 60.8169 101.253 59.936C101.253 57.4443 101.253 54.9526 101.253 52.4609C101.253 50.8738 101.253 50.8738 103.331 50.8738C102.538 50.6278 101.879 51.0087 101.348 50.5326C101.927 50.0961 102.585 50.3184 103.212 50.3104C105.496 50.3104 105.496 50.3104 105.108 47.9695C103.363 37.5818 98.3769 28.0131 90.8644 20.6336C83.3518 13.2542 73.6978 8.44258 63.285 6.88798C62.0001 6.68959 61.6035 6.88797 61.6115 8.26873C61.6115 11.3 61.6115 11.3 58.542 11.3C56.4243 11.3 54.3066 11.3 52.1969 11.3C51.6734 11.3 51.0151 11.6095 50.6581 10.9033C50.9472 9.65524 50.9062 8.35338 50.5392 7.12603Z" fill="#3C3C3D"/>
<path d="M69.6857 86.0354C72.3234 88.4253 74.6449 91.1427 76.594 94.1216C77.4506 95.4626 78.331 96.7878 79.1717 98.1448C79.4335 98.5812 80.0521 99.0335 79.251 99.5732C78.4499 100.113 78.2675 99.4303 77.9582 98.978C76.3243 96.5577 74.9046 93.9866 72.9455 91.7885C71.8587 90.2863 70.6461 88.8793 69.3209 87.5828C69.0485 87.3149 68.7173 87.1144 68.3538 86.9973C67.9902 86.8802 67.6044 86.8497 67.227 86.9083C63.4992 86.9083 59.7793 86.8607 56.0595 86.948C55.503 87.0275 54.936 86.9133 54.4537 86.6243C53.9714 86.3353 53.603 85.8893 53.4104 85.3609C46.9383 72.1035 40.4345 58.8779 33.899 45.684C32.392 42.6368 30.9247 39.5817 29.386 36.5504C29.1575 36.21 29.0695 35.7944 29.1404 35.3905C29.2114 34.9867 29.4358 34.626 29.7667 34.384C31.1716 33.1471 32.4962 31.8219 33.7324 30.4163C34.827 29.1387 35.7867 28.9641 37.3413 29.7418C45.5186 33.8682 53.7594 37.8835 61.9922 41.9147C69.8126 45.7554 77.633 49.5961 85.4931 53.3654C86.0301 53.5496 86.4865 53.9145 86.7845 54.3978C87.0825 54.8812 87.2035 55.4531 87.127 56.0159C86.9921 59.0869 87.0238 62.1737 86.9128 65.2447C86.8335 67.4111 87.2618 69.2759 89.1495 70.617C90.1885 71.3549 91.1403 72.204 92.1238 72.9976C94.2573 74.8465 96.7557 76.1717 99.0558 77.7588C99.5238 78.0921 100.357 78.2587 99.738 79.1634C99.1193 80.068 98.7148 79.2268 98.3262 79.0047C95.1536 77.1636 95.1536 77.1478 92.5917 79.7347C89.554 82.7581 86.4845 85.7577 83.4944 88.8207C82.8043 89.5349 82.2729 89.8444 81.4956 89.0667C82.9391 86.8369 85.0727 85.2419 86.8811 83.3532C88.9195 81.2265 91.0292 79.1554 93.1549 77.1081C93.8608 76.4415 93.829 76.0844 93.028 75.521C90.8711 74.0135 88.8441 72.3279 86.9683 70.4821C86.5373 70.1109 86.1961 69.6466 85.9708 69.1242C85.7455 68.6018 85.6418 68.035 85.6676 67.4666C85.731 63.8719 85.6121 60.2772 85.6676 56.6904C85.7432 56.1935 85.6457 55.6858 85.3916 55.2524C85.1374 54.8189 84.742 54.4861 84.2716 54.3097C68.488 46.6283 52.7203 38.9045 36.9685 31.1384C35.4377 30.3846 34.8666 31.2416 34.1528 32.0669C33.2645 33.0985 34.5494 33.3921 34.946 33.8047C42.8774 41.7401 50.8089 49.6755 58.7403 57.6108C59.4462 58.325 59.9221 58.579 60.977 58.0553C62.278 57.3922 63.7772 57.2304 65.1897 57.6005C66.6022 57.9706 67.8296 58.8469 68.6388 60.0629C69.3975 61.2279 69.7421 62.6147 69.6169 63.9995C69.4917 65.3844 68.9041 66.6868 67.9487 67.6967C66.9488 68.7122 65.6264 69.3469 64.209 69.4918C62.7917 69.6366 61.3682 69.2825 60.1838 68.4903C58.9655 67.6871 58.0863 66.4624 57.7145 65.0508C57.3428 63.6393 57.5047 62.1401 58.1692 60.8406C58.2859 60.6797 58.3697 60.4974 58.4157 60.3041C58.4617 60.1108 58.4691 59.9104 58.4374 59.7142C58.4057 59.5181 58.3356 59.3301 58.231 59.1612C58.1265 58.9922 57.9896 58.8456 57.8282 58.7298C49.6747 50.641 41.537 42.5363 33.4152 34.4157C33.0503 34.0586 32.6934 33.3286 32.0668 34.0983C31.4403 34.8681 30.2902 35.1616 31.0278 36.5821C32.9155 40.2165 34.6604 43.9303 36.4767 47.6123C42.7161 60.2507 48.9635 72.8944 55.2187 85.5434C55.8374 86.0671 56.5671 85.7815 57.2413 85.7973C61.3973 85.9878 65.5455 85.6466 69.6857 86.0354Z" fill="#3C3539"/>
<path d="M4.3861 25.9408C4.99682 26.5121 4.74301 27.266 4.75094 27.9405C4.75094 34.6856 4.75094 41.4307 4.75094 48.2948C5.07964 48.1979 5.38158 48.0265 5.63331 47.794C5.88504 47.5614 6.07978 47.2738 6.2024 46.9537C6.61483 46.2316 6.72587 47.0965 6.99554 47.1203C6.99951 47.1838 6.99951 47.2474 6.99554 47.3108C6.52759 50.2627 6.52758 50.2548 9.47808 50.3183C9.9619 50.3183 10.4933 50.1596 10.8899 50.6119C10.3902 50.9849 9.80327 50.6913 9.30359 50.8024C9.04185 50.8024 9.37497 51.1039 9.30359 50.8579C9.30359 50.7944 9.30359 50.7865 9.45429 50.7865C10.2474 50.7865 10.8661 50.8579 10.7947 51.8975C10.6519 54.167 10.7947 56.4524 10.6757 58.7298C10.6757 59.317 10.7788 60.1978 9.7081 60.1661C8.76425 58.4124 9.31946 56.5158 9.22428 54.6907C9.10531 52.5164 9.04185 52.3101 6.93209 52.3498C1.05489 52.3974 1.9908 51.6356 1.90355 57.3014C1.80024 58.0667 1.89585 58.8456 2.18115 59.563C2.75222 60.301 3.56916 60.0392 4.29885 60.0868C6.11515 60.2058 7.96318 59.8328 9.76362 60.3407C10.065 60.428 10.5012 60.42 10.5568 60.785C10.6123 61.1501 10.1681 61.1421 9.87466 61.1898C8.84357 61.3643 7.74903 60.8327 6.78139 61.5231C7.6757 70.9062 11.38 79.8008 17.4095 87.0432C25.341 96.8593 35.6995 102.7 48.1122 104.93C50.5313 105.358 50.5313 105.342 50.5313 102.898C50.5313 100.454 50.5313 100.518 53.3707 100.74C55.526 100.964 57.6963 101.007 59.8587 100.867C60.9849 100.867 61.2467 101.256 61.2625 102.311C61.2625 105.366 61.0008 108.437 61.4291 111.484C59.4938 112.381 57.4634 111.794 55.4805 111.825C53.8942 111.825 52.2286 112.365 50.7216 111.46C51.0183 110.064 50.9803 108.618 50.6106 107.239L50.682 107.286C50.3726 106.969 49.9681 107.056 49.5954 107.056H27.0145C26.6417 107.056 26.2214 106.945 25.9517 107.326C25.8263 108.194 25.4637 109.011 24.9039 109.686C24.344 110.361 23.6087 110.868 22.7791 111.151C21.6177 111.559 20.3434 111.501 19.2239 110.989C18.1043 110.477 17.2266 109.551 16.775 108.405C16.444 107.281 16.5391 106.074 17.042 105.016C17.5449 103.957 18.4203 103.122 19.5006 102.669C20.5809 102.216 21.7902 102.177 22.8971 102.561C24.004 102.944 24.9306 103.723 25.4996 104.747C25.6615 105.166 25.794 105.595 25.8962 106.033C32.1764 106.445 38.4769 106.445 44.7572 106.033C44.4543 105.701 44.0496 105.481 43.6071 105.406C24.294 100.097 11.9368 87.7654 6.40068 68.5459C6.31344 68.2443 6.21033 67.9428 6.09929 67.6492C6.09929 67.6492 5.98825 67.6015 5.82169 67.5381C5.82169 73.3388 5.82169 79.1079 5.82169 84.869C5.82169 86.091 6.61483 86.0989 7.3366 86.456C8.21102 86.9101 8.92303 87.6246 9.37435 88.5008C9.82567 89.377 9.99407 90.3717 9.85629 91.3477C9.71852 92.3237 9.28137 93.2329 8.60517 93.9498C7.92897 94.6666 7.04705 95.1559 6.08113 95.3499C5.1152 95.544 4.11288 95.4333 3.21249 95.0332C2.31209 94.6331 1.55801 93.9633 1.05431 93.1162C0.550602 92.269 0.322101 91.2863 0.400341 90.3038C0.478581 89.3212 0.859705 88.3871 1.49111 87.6305C1.72906 87.3368 2.00666 86.9163 2.28426 86.8369C4.82232 86.3291 4.35437 84.3849 4.35437 82.6471C4.35437 75.5846 4.33322 68.5221 4.29092 61.4596C3.6564 60.8406 2.85533 61.1342 2.15736 61.1898C0.745562 61.2929 0.0158655 60.9358 0.245878 59.3487C0.407853 58.7352 0.351783 58.0845 0.087251 57.5078C0.0396623 55.5001 0.0237948 53.4924 -0.0475882 51.4848C-0.103108 50.1913 0.745557 50.2945 1.62595 50.2707C4.37023 50.1913 4.3623 50.1834 4.35437 47.4219C4.38081 40.2747 4.39138 33.1144 4.3861 25.9408Z" fill="#3E3D3E"/>
<path d="M6.72589 61.5231C7.6856 60.4836 8.9467 61.2453 10.0412 60.9755C10.0412 60.9755 10.1206 60.8485 10.1126 60.8406L9.70812 60.5867L9.59708 60.3724L9.68432 60.1502C10.533 59.6106 10.1047 58.7695 10.1364 58.0632C10.1999 56.5476 10.0809 55.016 10.1364 53.5004C10.2395 51.826 10.644 50.0485 7.33662 51.3499L7.87595 50.6119H10.8582C11.6037 53.9448 11.0247 57.3253 11.1675 60.674C11.1675 61.4675 10.5726 61.531 9.94606 61.5231C8.89911 61.5072 7.8125 61.5231 6.72589 61.5231Z" fill="#353535"/>
<path d="M101.348 50.5484L104.838 50.7626C104.774 50.842 104.727 50.9372 104.679 50.9451C101.443 51.1197 101.443 51.1197 101.443 54.4288C101.443 56.0952 101.491 57.7696 101.443 59.4281C101.443 60.539 101.681 61.0786 102.926 61.0151C105.306 60.9358 107.685 60.9516 110.065 61.0151C111.135 61.0151 111.532 60.6739 111.508 59.5788C111.461 56.5634 111.508 53.5479 111.508 50.5325C112.135 50.6753 112.008 51.199 112.008 51.6117C112.008 54.4922 112.008 57.3728 112.008 60.2533C112.008 61.1421 111.746 61.4992 110.81 61.4833C107.868 61.4436 104.925 61.4833 101.983 61.4833C101.435 61.4833 100.928 61.4436 100.936 60.6898C100.967 57.3675 101.007 54.0452 101.055 50.7229C101.055 50.6912 101.245 50.6198 101.348 50.5484Z" fill="#0A080B"/>
<path d="M25.9517 107.326C26.2531 106.715 26.8242 106.89 27.3001 106.89H49.1988C49.7064 106.89 50.2378 106.818 50.6027 107.31L25.9517 107.326Z" fill="black"/>
<path d="M86.0166 5.05482C85.7231 5.66584 85.1521 5.4992 84.6682 5.4992C77.4929 5.4992 70.3123 5.4992 63.1264 5.4992C62.6426 5.4992 62.0715 5.64996 61.7701 5.04688L86.0166 5.05482Z" fill="#020202"/>
<path d="M49.0481 5.1421C48.5405 5.72139 47.8505 5.48337 47.2477 5.48337C40.654 5.51511 34.0682 5.51511 27.4904 5.48337C26.9511 5.48337 26.3086 5.72138 25.9517 5.03894L49.0481 5.1421Z" fill="black"/>
<path d="M61.4132 0.460227C61.3577 1.72195 61.3022 2.99161 61.2229 4.72152C61.1275 4.42236 61.0507 4.11757 60.9929 3.80894C60.8818 0.49988 60.8818 0.499894 57.6299 0.499894C56.0992 0.499894 54.5525 0.618925 53.0376 0.499894C51.2689 0.31738 50.7534 1.03154 50.9516 2.65829C50.9816 3.34726 50.9525 4.03756 50.8644 4.72152C50.8644 4.72152 50.7613 4.77708 50.7058 4.77708C50.645 4.7603 50.5864 4.7363 50.5313 4.70564C50.3885 0.118986 50.3885 0.0555105 54.8777 0.150735C57.0509 0.166606 59.2717 -0.349182 61.4132 0.460227Z" fill="#040404"/>
<path d="M44.8127 106.056C44.4637 106.604 43.9165 106.461 43.4247 106.461C38.0578 106.461 32.6855 106.461 27.308 106.461C26.8242 106.461 26.261 106.628 25.9517 106.041L44.8127 106.056Z" fill="#020202"/>
<path d="M61.3735 111.484C60.509 109.278 61.0801 106.985 61.0166 104.739C60.9056 101.065 61.0166 101.097 57.2412 101.049C55.9325 101.049 54.5763 101.367 53.2755 100.74C55.6549 100.74 58.0344 100.74 60.3662 100.652C61.1594 100.652 61.556 100.891 61.5242 101.732C61.429 104.985 61.7939 108.239 61.3735 111.484Z" fill="#080607"/>
<path d="M69.0908 6.32452C69.305 5.91188 69.7015 5.91981 70.0823 5.91981H85.033C85.4137 5.91981 85.8262 5.91982 86.0245 6.32452H69.0908Z" fill="#020202"/>
<path d="M25.9517 6.34036C26.1579 5.91185 26.5545 5.91981 26.9352 5.91981H41.8781C42.2588 5.91981 42.6712 5.91979 42.8933 6.30069L25.9517 6.34036Z" fill="#010101"/>
<path d="M0.150706 57.5474C0.943851 59.7931 1.62595 60.4279 4.11643 61.1897C4.20368 61.1897 4.25126 61.3881 4.31472 61.4992H3.52157C-0.206209 61.4754 -0.20621 61.4754 0.150706 57.5474Z" fill="#0E0E0E"/>
<path d="M50.5392 7.12598C51.1024 8.05442 51.142 9.27651 50.6503 10.8874C50.4588 9.64294 50.4215 8.37956 50.5392 7.12598Z" fill="#020202"/>
<path d="M50.5313 107.239C50.8619 107.89 51.0433 108.607 51.0625 109.337C51.0817 110.067 50.9382 110.793 50.6423 111.46C50.4546 110.061 50.4174 108.646 50.5313 107.239Z" fill="#040203"/>
<path d="M69.6857 86.0354C65.5138 86.0354 61.3418 86.0354 57.1699 86.0354C56.5195 86.0354 55.7343 86.3766 55.2346 85.6069C59.3907 85.6069 63.5547 85.6069 67.7187 85.6069C68.385 85.6069 69.1464 85.3609 69.6857 86.0354Z" fill="#070100"/>
<path d="M102.228 60.0788C102.228 57.7775 102.308 55.4842 102.228 53.1829C102.228 52.1513 102.443 51.6911 103.593 51.7387C105.504 51.8339 107.424 51.818 109.335 51.7387C110.326 51.7387 110.66 51.9926 110.628 53.0322C110.556 55.4128 110.628 57.7537 110.628 60.1105C107.851 60.6267 105.002 60.616 102.228 60.0788Z" fill="#FCFAFC"/>
<path d="M51.7685 1.66636L52.2127 1.34898C54.7124 0.932828 57.2637 0.932828 59.7634 1.34898C60.6914 3.99146 60.0014 6.7212 60.1362 9.40336C60.1362 9.87948 59.5969 9.83985 59.232 9.83985C57.1302 9.83985 55.0284 9.83985 52.9265 9.83985C52.1334 9.83985 51.8082 9.55415 51.832 8.72887C51.8558 7.90359 51.7606 6.83234 51.713 5.8801C51.4469 4.4862 51.4658 3.05276 51.7685 1.66636Z" fill="#FCFCFC"/>
<path d="M21.2801 8.9273C20.6367 8.94416 20.0028 8.77012 19.4581 8.42708C18.9135 8.08404 18.4825 7.58734 18.2195 6.99964C17.9565 6.41194 17.8733 5.75952 17.9803 5.12458C18.0874 4.48963 18.3799 3.90061 18.821 3.43172C19.2621 2.96283 19.832 2.63502 20.459 2.48968C21.086 2.34435 21.7419 2.38794 22.3442 2.61498C22.9464 2.84202 23.468 3.24237 23.8432 3.76553C24.2185 4.28868 24.4305 4.91124 24.4527 5.55476C24.4664 5.98481 24.3952 6.41334 24.243 6.81579C24.0909 7.21823 23.8609 7.58666 23.5662 7.89997C23.2714 8.21329 22.9178 8.46535 22.5255 8.64164C22.1332 8.81793 21.7099 8.91499 21.2801 8.9273Z" fill="#FBFBFB"/>
<path d="M110.184 21.3303C110.173 21.9776 109.971 22.6072 109.604 23.1401C109.236 23.673 108.72 24.0854 108.119 24.3256C107.518 24.5658 106.859 24.623 106.226 24.49C105.593 24.357 105.013 24.0398 104.559 23.5782C104.106 23.1166 103.798 22.5313 103.676 21.8955C103.554 21.2598 103.622 20.6021 103.872 20.0051C104.122 19.408 104.543 18.8982 105.082 18.5396C105.62 18.181 106.253 17.9896 106.9 17.9895C107.772 18.016 108.6 18.3782 109.212 19.0006C109.824 19.6229 110.172 20.4575 110.184 21.3303Z" fill="#FBFBFB"/>
<path d="M94.0987 5.65789C94.1017 6.30245 93.9142 6.93353 93.5598 7.47178C93.2054 8.01004 92.6998 8.43148 92.1067 8.68311C91.5136 8.93474 90.8593 9.00534 90.2262 8.88605C89.5931 8.76676 89.0093 8.4629 88.5483 8.01264C88.0873 7.56239 87.7696 6.98581 87.6352 6.35543C87.5007 5.72506 87.5555 5.06902 87.7927 4.46971C88.0298 3.8704 88.4387 3.35458 88.968 2.98711C89.4973 2.61964 90.1234 2.41693 90.7675 2.4044C91.2003 2.39705 91.6303 2.47556 92.0326 2.63548C92.4349 2.7954 92.8015 3.03354 93.1113 3.33607C93.4211 3.63861 93.6678 3.99955 93.8373 4.39808C94.0068 4.79661 94.0956 5.2248 94.0987 5.65789Z" fill="#FBFBFB"/>
<path d="M5.13956 24.5044C4.27034 24.4789 3.44337 24.1235 2.82627 23.5105C2.20917 22.8976 1.84811 22.0728 1.81628 21.2034C1.87014 20.3402 2.24082 19.5274 2.85714 18.9211C3.47345 18.3147 4.29194 17.9575 5.15542 17.9181C6.02014 17.9569 6.83907 18.3179 7.45113 18.9303C8.06319 19.5427 8.42409 20.362 8.46284 21.2271C8.43071 22.0943 8.06884 22.9164 7.45116 23.5255C6.83349 24.1346 6.00663 24.4848 5.13956 24.5044Z" fill="#FBFBFB"/>
<path d="M106.583 44.7238V26.3375H106.757V44.7397L106.583 44.7238Z" fill="#151515"/>
<path d="M59.7635 1.34108H52.2127C52.0858 1.15857 52.1096 0.920532 52.3079 0.920532C54.7667 0.920532 57.2254 0.920532 59.6842 0.920532C59.7238 0.920532 59.8031 0.984011 59.8031 1.01575C59.8012 1.12528 59.7879 1.23429 59.7635 1.34108Z" fill="black"/>
<path d="M102.228 60.0789L110.668 60.1265C108.732 61.1739 106.654 60.4121 104.64 60.5708C103.894 60.6343 102.863 61.047 102.228 60.0789Z" fill="#030104"/>
<path d="M51.7686 1.66638C51.7686 3.07094 51.7686 4.48345 51.7131 5.88801C51.4276 5.21936 51.285 4.4984 51.2946 3.77136C51.3041 3.04432 51.4656 2.32728 51.7686 1.66638Z" fill="#010101"/>
<path d="M51.7607 102.271L53.2835 101.898C55.4309 101.548 57.6224 101.566 59.7635 101.954C60.6994 104.596 60.0173 107.318 60.1283 110.008C60.1283 110.58 59.4542 110.437 59.0417 110.437C56.6623 110.437 54.2115 110.389 51.8003 110.357C51.4303 107.676 51.4169 104.957 51.7607 102.271Z" fill="#FCFBFC"/>
<path d="M5.09201 93.9787C4.43841 93.9644 3.8037 93.7567 3.26803 93.3818C2.73236 93.0068 2.31976 92.4815 2.08236 91.872C1.84495 91.2626 1.79339 90.5965 1.93417 89.9578C2.07496 89.3191 2.40179 88.7364 2.87338 88.2834C3.34496 87.8304 3.94014 87.5274 4.58375 87.4126C5.22736 87.2979 5.89053 87.3766 6.48948 87.6387C7.08843 87.9008 7.59631 88.3347 7.94895 88.8854C8.30159 89.4362 8.48319 90.0792 8.47081 90.7331C8.41548 91.5989 8.0378 92.4125 7.41229 93.0133C6.78679 93.6142 5.9589 93.9586 5.09201 93.9787Z" fill="#FAFAFA"/>
<path d="M21.2563 109.945C20.8152 109.966 20.3743 109.898 19.9603 109.744C19.5463 109.591 19.1679 109.354 18.848 109.05C18.5281 108.745 18.2735 108.378 18.0994 107.972C17.9254 107.566 17.8357 107.129 17.8357 106.687C17.8357 106.245 17.9254 105.808 18.0994 105.402C18.2735 104.996 18.5281 104.629 18.848 104.325C19.1679 104.02 19.5463 103.784 19.9603 103.63C20.3743 103.476 20.8152 103.408 21.2563 103.43C22.0954 103.458 22.8936 103.8 23.4939 104.387C24.0942 104.974 24.4532 105.765 24.5002 106.604C24.5046 107.475 24.1672 108.313 23.5606 108.938C22.954 109.562 22.1266 109.924 21.2563 109.945Z" fill="#FBFBFB"/>
<path d="M1.30872 60.0946L9.73984 60.1819C9.73984 60.3168 9.73984 60.4517 9.73984 60.5866C7.50318 60.5866 5.27444 60.5866 3.0457 60.5866C2.41118 60.5945 1.69736 60.8485 1.30872 60.0946Z" fill="#010101"/>
<path d="M51.7607 102.271C51.7607 104.969 51.7607 107.659 51.7607 110.357C51.0865 107.704 51.0865 104.924 51.7607 102.271Z" fill="#030202"/>
<path d="M59.7634 101.922L53.2834 101.867C55.4329 101.073 57.6299 101.557 59.811 101.597C59.811 101.597 59.8586 101.7 59.8507 101.748C59.833 101.811 59.8034 101.87 59.7634 101.922Z" fill="#030202"/>
</g>
<defs>
<clipPath id="clip0_20_665">
<rect width="112" height="112" fill="white"/>
</clipPath>
</defs>
</svg>
