<svg width="232" height="144" viewBox="0 0 232 144" fill="none" xmlns="http://www.w3.org/2000/svg">
<g clip-path="url(#clip0_20_606)">
<path d="M223.489 7.75977H18.8014C14.1011 7.75977 10.2908 11.5429 10.2908 16.2096V135.55C10.2908 140.217 14.1011 144 18.8014 144H223.489C228.19 144 232 140.217 232 135.55V16.2096C232 11.5429 228.19 7.75977 223.489 7.75977Z" fill="#FF914C"/>
<path d="M213.908 0.704102H9.21987C4.51957 0.704102 0.709229 4.48724 0.709229 9.15398V128.494C0.709229 133.161 4.51957 136.944 9.21987 136.944H213.908C218.608 136.944 222.418 133.161 222.418 128.494V9.15398C222.418 4.48724 218.608 0.704102 213.908 0.704102Z" fill="white" stroke="black" stroke-width="2" stroke-miterlimit="10"/>
</g>
<defs>
<clipPath id="clip0_20_606">
<rect width="232" height="144" fill="white"/>
</clipPath>
</defs>
</svg>
