<svg width="26" height="405" viewBox="0 0 26 405" fill="none" xmlns="http://www.w3.org/2000/svg">
<g clip-path="url(#clip0_24_1167)">
<path d="M25.675 12.0922C25.5672 12.425 25.4279 12.747 25.259 13.054C25.0622 13.3331 24.795 13.5568 24.4838 13.703C24.1727 13.8492 23.8282 13.9128 23.4845 13.8876H16.0225V21.2611C16.0456 21.7772 15.8674 22.2825 15.5244 22.6729C15.1815 23.0634 14.6999 23.3092 14.1787 23.3601C13.6576 23.411 13.1365 23.2631 12.7226 22.9466C12.3087 22.6301 12.0334 22.1693 11.9535 21.6587C11.9535 21.4407 11.921 21.2227 11.921 21.0175C11.921 18.7414 11.921 16.4651 11.921 14.1889V13.9004H4.47198C3.92813 13.9216 3.39556 13.7434 2.97695 13.4003C2.68226 13.1479 2.46738 12.8174 2.35789 12.4479C2.2484 12.0784 2.24897 11.6856 2.35948 11.3164C2.4669 10.938 2.68634 10.5998 2.98972 10.3451C3.2931 10.0904 3.66661 9.93077 4.06247 9.88663C4.27697 9.88663 4.48497 9.88663 4.71247 9.88663H11.934V2.54518C11.9084 2.02223 12.0797 1.50842 12.415 1.10253C12.7267 0.729079 13.1658 0.480537 13.65 0.403586L13.754 0.365234H14.2155C14.2486 0.381874 14.2835 0.39466 14.3195 0.403586C14.8037 0.480537 15.2428 0.729079 15.5545 1.10253C15.8881 1.5093 16.0592 2.02248 16.0355 2.54518V9.88663H23.4975C23.8417 9.86276 24.1863 9.92768 24.4974 10.0749C24.8085 10.2222 25.0755 10.4468 25.272 10.7266C25.4421 11.0308 25.5814 11.3508 25.688 11.682L25.675 12.0922Z" fill="#FF914C" stroke="black" stroke-miterlimit="10"/>
<path d="M23.725 91.3682C23.6184 91.7014 23.4791 92.0235 23.309 92.33C23.1125 92.6098 22.8455 92.8344 22.5344 92.9816C22.2233 93.1289 21.8787 93.1938 21.5345 93.17H14.0725V100.537C14.0956 101.053 13.9174 101.558 13.5745 101.949C13.2315 102.339 12.7499 102.585 12.2288 102.636C11.7076 102.687 11.1865 102.539 10.7726 102.223C10.3587 101.906 10.0835 101.445 10.0035 100.935C10.0035 100.717 9.97097 100.499 9.97097 100.293C9.97097 98.0108 9.97097 95.7346 9.97097 93.4585V93.1764H2.522C1.9773 93.1957 1.44464 93.0152 1.02696 92.6698C0.73228 92.4175 0.517395 92.0868 0.407909 91.7173C0.298423 91.3478 0.298987 90.9552 0.409496 90.586C0.516445 90.2079 0.735908 89.8701 1.0395 89.6164C1.34309 89.3626 1.71685 89.2046 2.11249 89.1626C2.32699 89.1626 2.53499 89.1626 2.76249 89.1626H9.98398V81.8274C9.95719 81.3043 10.1286 80.7901 10.465 80.3848C10.7744 80.0075 11.2143 79.7564 11.7 79.6796L11.804 79.6475H12.2655L12.3695 79.6796C12.8552 79.7564 13.2951 80.0075 13.6045 80.3848C13.9382 80.789 14.1094 81.3002 14.0855 81.821V89.1626H21.5475C21.8917 89.1387 22.2363 89.2035 22.5474 89.3508C22.8585 89.498 23.1255 89.7226 23.322 90.0024C23.4921 90.3089 23.6314 90.631 23.738 90.9642L23.725 91.3682Z" fill="#FF914C" stroke="black" stroke-miterlimit="10"/>
<path d="M25.675 165.334C25.5672 165.667 25.4279 165.989 25.259 166.296C25.0622 166.575 24.795 166.799 24.4838 166.945C24.1727 167.091 23.8282 167.155 23.4845 167.13H16.0225V174.503C16.0456 175.019 15.8674 175.525 15.5244 175.915C15.1815 176.306 14.6999 176.551 14.1787 176.602C13.6576 176.653 13.1365 176.505 12.7226 176.189C12.3087 175.872 12.0334 175.411 11.9535 174.901C11.9535 174.683 11.921 174.465 11.921 174.26C11.921 171.984 11.921 169.707 11.921 167.431V167.143H4.47198C3.92813 167.164 3.39556 166.986 2.97695 166.642C2.68226 166.39 2.46738 166.06 2.35789 165.69C2.2484 165.321 2.24897 164.928 2.35948 164.559C2.4669 164.18 2.68634 163.842 2.98972 163.587C3.2931 163.333 3.66661 163.173 4.06247 163.129C4.27697 163.129 4.48497 163.129 4.71247 163.129H11.934V155.787C11.9084 155.264 12.0797 154.751 12.415 154.345C12.7267 153.971 13.1658 153.723 13.65 153.646L13.754 153.607H14.2155C14.2486 153.624 14.2835 153.637 14.3195 153.646C14.8037 153.723 15.2428 153.971 15.5545 154.345C15.8881 154.751 16.0592 155.265 16.0355 155.787V163.129H23.4975C23.8417 163.105 24.1863 163.17 24.4974 163.317C24.8085 163.464 25.0755 163.689 25.272 163.969C25.4421 164.273 25.5814 164.593 25.688 164.924L25.675 165.334Z" fill="#FF914C" stroke="black" stroke-miterlimit="10"/>
<path d="M23.725 236.915C23.6184 237.248 23.4791 237.57 23.309 237.877C23.1125 238.157 22.8455 238.381 22.5344 238.529C22.2233 238.676 21.8787 238.741 21.5345 238.717H14.0725V246.084C14.0956 246.6 13.9174 247.105 13.5745 247.496C13.2315 247.886 12.7499 248.132 12.2288 248.183C11.7076 248.234 11.1865 248.086 10.7726 247.769C10.3587 247.453 10.0835 246.992 10.0035 246.481C10.0035 246.263 9.97097 246.045 9.97097 245.84C9.97097 243.558 9.97097 241.282 9.97097 239.005V238.723H2.522C1.9773 238.743 1.44464 238.562 1.02696 238.217C0.73228 237.964 0.517395 237.634 0.407909 237.264C0.298423 236.895 0.298987 236.502 0.409496 236.133C0.516445 235.755 0.735908 235.417 1.0395 235.163C1.34309 234.91 1.71685 234.751 2.11249 234.709C2.32699 234.709 2.53499 234.709 2.76249 234.709H9.98398V227.374C9.95719 226.851 10.1286 226.337 10.465 225.932C10.7744 225.554 11.2143 225.303 11.7 225.226L11.804 225.194H12.2655L12.3695 225.226C12.8552 225.303 13.2951 225.554 13.6045 225.932C13.9382 226.336 14.1094 226.847 14.0855 227.368V234.709H21.5475C21.8917 234.686 22.2363 234.75 22.5474 234.898C22.8585 235.045 23.1255 235.269 23.322 235.549C23.4921 235.856 23.6314 236.178 23.738 236.511L23.725 236.915Z" fill="#FF914C" stroke="black" stroke-miterlimit="10"/>
<path d="M23.725 315.139C23.6184 315.472 23.4791 315.794 23.309 316.1C23.1125 316.38 22.8455 316.605 22.5344 316.752C22.2233 316.899 21.8787 316.964 21.5345 316.94H14.0725V324.308C14.0956 324.824 13.9174 325.329 13.5745 325.719C13.2315 326.11 12.7499 326.356 12.2288 326.407C11.7076 326.458 11.1865 326.31 10.7726 325.993C10.3587 325.677 10.0835 325.216 10.0035 324.705C10.0035 324.487 9.97097 324.269 9.97097 324.064C9.97097 321.781 9.97097 319.505 9.97097 317.229V316.947H2.522C1.9773 316.966 1.44464 316.786 1.02696 316.44C0.73228 316.188 0.517395 315.857 0.407909 315.488C0.298423 315.118 0.298987 314.726 0.409496 314.357C0.516445 313.978 0.735908 313.641 1.0395 313.387C1.34309 313.133 1.71685 312.975 2.11249 312.933C2.32699 312.933 2.53499 312.933 2.76249 312.933H9.98398V305.598C9.95719 305.075 10.1286 304.561 10.465 304.155C10.7744 303.778 11.2143 303.527 11.7 303.45L11.804 303.418H12.2655L12.3695 303.45C12.8552 303.527 13.2951 303.778 13.6045 304.155C13.9382 304.559 14.1094 305.071 14.0855 305.591V312.933H21.5475C21.8917 312.909 22.2363 312.974 22.5474 313.121C22.8585 313.269 23.1255 313.493 23.322 313.773C23.4921 314.079 23.6314 314.401 23.738 314.735L23.725 315.139Z" fill="#FF914C" stroke="black" stroke-miterlimit="10"/>
<path d="M23.725 393.362C23.6184 393.696 23.4791 394.018 23.309 394.324C23.1125 394.604 22.8455 394.829 22.5344 394.976C22.2233 395.123 21.8787 395.188 21.5345 395.164H14.0725V402.531C14.0956 403.047 13.9174 403.552 13.5745 403.943C13.2315 404.333 12.7499 404.579 12.2288 404.63C11.7076 404.681 11.1865 404.533 10.7726 404.217C10.3587 403.9 10.0835 403.439 10.0035 402.929C10.0035 402.711 9.97097 402.493 9.97097 402.287C9.97097 400.005 9.97097 397.729 9.97097 395.453V395.171H2.522C1.9773 395.19 1.44464 395.009 1.02696 394.664C0.73228 394.412 0.517395 394.081 0.407909 393.711C0.298423 393.342 0.298987 392.949 0.409496 392.58C0.516445 392.202 0.735908 391.864 1.0395 391.611C1.34309 391.357 1.71685 391.199 2.11249 391.157C2.32699 391.157 2.53499 391.157 2.76249 391.157H9.98398V383.822C9.95719 383.298 10.1286 382.784 10.465 382.379C10.7744 382.002 11.2143 381.751 11.7 381.674L11.804 381.642H12.2655L12.3695 381.674C12.8552 381.751 13.2951 382.002 13.6045 382.379C13.9382 382.783 14.1094 383.294 14.0855 383.815V391.157H21.5475C21.8917 391.133 22.2363 391.198 22.5474 391.345C22.8585 391.492 23.1255 391.717 23.322 391.997C23.4921 392.303 23.6314 392.625 23.738 392.958L23.725 393.362Z" fill="#FF914C" stroke="black" stroke-miterlimit="10"/>
</g>
<defs>
<clipPath id="clip0_24_1167">
<rect width="26" height="405" fill="white"/>
</clipPath>
</defs>
</svg>
