<svg width="36" height="31" viewBox="0 0 36 31" fill="none" xmlns="http://www.w3.org/2000/svg">
<g clip-path="url(#clip0_23_858)">
<path d="M15.8685 30.993C11.6584 30.9958 7.61917 29.3647 4.63781 26.4577C1.9788 23.8567 0.352443 20.4157 0.0494784 16.7499C-0.253486 13.084 0.786698 9.43224 2.98407 6.44747C4.96324 3.71747 7.80335 1.69756 11.069 0.697408C12.4545 0.257487 13.8978 0.0154067 15.354 -0.021349C18.3847 -0.127451 21.3825 0.621058 23.9902 2.13492C25.1251 2.79361 26.1698 3.59066 27.0992 4.50686C27.3344 4.73686 27.3271 4.72967 27.5696 4.50686C27.8122 4.28404 28.2017 3.89588 28.5325 3.61556C29.0827 3.13934 29.7628 2.83006 30.4898 2.72541C31.2167 2.62075 31.9591 2.72527 32.6264 3.02622C33.8539 3.49549 34.8702 4.37718 35.4929 5.51309C35.7732 5.96702 35.9434 6.47774 35.9906 7.00601C36.0377 7.53429 35.9605 8.06607 35.7648 8.56061C35.325 9.6487 34.6478 10.6299 33.7803 11.4356C33.1115 12.0753 32.4573 12.7222 31.7958 13.3619C31.7281 13.4231 31.6772 13.4999 31.6476 13.5852C31.6181 13.6706 31.6109 13.7619 31.6268 13.8507C31.8701 16.1586 31.581 18.4905 30.7809 20.6748C29.9809 22.859 28.6901 24.8401 27.0037 26.4721C24.0428 29.3388 20.0424 30.9434 15.8759 30.9355L15.8685 30.993ZM30.5022 14.8425L30.4214 14.7994L30.0686 15.1373C29.069 16.0932 28.0915 17.0492 27.0772 18.0123C25.0486 19.8954 23.0053 21.757 20.9694 23.633C20.4549 24.1074 19.9845 24.632 19.4553 25.0705C18.7122 25.6451 17.8075 25.9846 16.8621 26.0437C15.9166 26.1028 14.9752 25.8786 14.1633 25.4011C13.4094 24.9002 12.7251 24.3059 12.1274 23.633C10.6574 22.0445 9.31237 20.4058 7.92323 18.7742C7.02873 17.7787 6.33316 16.6279 5.8726 15.3816C5.52913 14.5831 5.46706 13.6956 5.6962 12.8588C6.06944 11.7102 6.85188 10.7308 7.90118 10.0988C8.49632 9.69562 9.18709 9.44818 9.90771 9.38001C10.5573 9.36434 11.2028 9.48446 11.8011 9.73237C12.3993 9.98027 12.9366 10.3502 13.3769 10.8175C14.0436 11.5324 14.6717 12.281 15.2585 13.06C15.6921 13.5847 16.1184 14.1166 16.5447 14.6485C16.6844 14.821 16.802 14.8066 16.949 14.6485C17.3385 14.2532 17.7354 13.8579 18.1396 13.4769C20.0433 11.716 21.9543 9.96222 23.8506 8.18689C24.6958 7.39626 25.5116 6.56968 26.3422 5.75749C26.4745 5.6353 26.4377 5.54905 26.3422 5.44843C25.7689 4.96686 25.2176 4.44217 24.6076 4.01091C22.9784 2.83302 21.1169 1.9988 19.1409 1.56107C17.1649 1.12334 15.1174 1.09163 13.1282 1.46798C11.139 1.84432 9.25144 2.62052 7.58497 3.74739C5.9185 4.87426 4.50947 6.32724 3.44712 8.01435C2.37971 9.70784 1.6849 11.6003 1.40699 13.571C1.12908 15.5417 1.27417 17.5474 1.83301 19.4602C2.39185 21.373 3.35217 23.1509 4.65273 24.6806C5.9533 26.2103 7.56558 27.4582 9.38674 28.3446C11.2079 29.2311 13.198 29.7366 15.23 29.8291C17.2621 29.9216 19.2916 29.599 21.1891 28.8818C23.0866 28.1646 24.8104 27.0686 26.2507 25.6637C27.6909 24.2588 28.816 22.5758 29.5541 20.722C30.1393 19.2619 30.4745 17.7174 30.5463 16.1507C30.5022 15.6979 30.5022 15.2738 30.5022 14.8425Z" fill="black"/>
</g>
<defs>
<clipPath id="clip0_23_858">
<rect width="36" height="31" fill="white"/>
</clipPath>
</defs>
</svg>
