<svg width="230" height="146" viewBox="0 0 230 146" fill="none" xmlns="http://www.w3.org/2000/svg">
<g clip-path="url(#clip0_20_530)">
<path d="M221.563 7.86755H18.6394C13.9796 7.86755 10.2021 11.7032 10.2021 16.4348V137.433C10.2021 142.164 13.9796 146 18.6394 146H221.563C226.223 146 230 142.164 230 137.433V16.4348C230 11.7032 226.223 7.86755 221.563 7.86755Z" fill="#FF914C"/>
<path d="M212.064 0.713989H9.1404C4.48062 0.713989 0.703125 4.54967 0.703125 9.28123V130.279C0.703125 135.011 4.48062 138.846 9.1404 138.846H212.064C216.724 138.846 220.501 135.011 220.501 130.279V9.28123C220.501 4.54967 216.724 0.713989 212.064 0.713989Z" fill="white" stroke="black" stroke-width="2" stroke-miterlimit="10"/>
</g>
<defs>
<clipPath id="clip0_20_530">
<rect width="230" height="146" fill="white"/>
</clipPath>
</defs>
</svg>
