<svg width="91" height="114" viewBox="0 0 91 114" fill="none" xmlns="http://www.w3.org/2000/svg">
<g clip-path="url(#clip0_20_701)">
<path d="M77.8638 112.899C78.2757 113.472 78.0774 113.827 77.4213 113.925C77.0125 113.955 76.602 113.955 76.1931 113.925H22.6108C22.3362 113.925 22.0692 113.925 21.7945 113.985C20.5206 113.985 19.2466 113.985 17.9803 113.925C17.6675 113.925 17.1488 114.03 17.2175 113.442C17.2709 113.02 17.6218 112.914 18.0261 112.929C18.5677 112.929 19.1169 112.929 19.6662 112.929H75.4074C76.2236 112.944 77.0399 112.944 77.8638 112.899Z" fill="#1A1D2D"/>
<path d="M7.37671 61.7692C8.798 64.4241 10.4575 66.9477 12.3352 69.3094C12.4943 69.4629 12.6005 69.662 12.6388 69.8785C12.6772 70.095 12.6457 70.3179 12.5488 70.5158C12.2208 71.3452 11.9767 72.2048 11.6258 73.268C9.6566 71.1772 7.92244 68.8816 6.45367 66.4215C6.11039 65.8635 5.79762 65.494 5.11105 65.8258C4.55782 65.0851 4.09921 64.2798 3.74557 63.428C4.88222 62.7193 5.88153 61.7089 7.37671 61.7692Z" fill="#E86810"/>
<path d="M7.37673 61.7692C6.11041 62.199 5.15686 63.2773 3.7456 63.4356C2.71575 61.3243 1.45704 59.2885 1.27396 56.8756C1.80032 56.4986 1.44178 55.6617 2.31905 55.3676C4.66862 54.5231 4.60761 54.4477 5.43148 56.7776C6.0265 58.4364 6.72831 60.0953 7.37673 61.7692Z" fill="#E86810"/>
<path d="M86.5602 41.8254C86.0796 42.2929 86.5145 49.8255 86.1025 51.0696C85.2484 56.2814 83.2628 61.2486 80.282 65.6297C79.8014 66.3838 79.2598 67.0925 78.619 68.0124C78.3749 67.4921 78.1994 67.1604 78.0545 66.8211C77.066 64.487 75.5745 62.3941 73.6839 60.6882C71.7933 58.9822 69.5491 57.7043 67.1076 56.9434C64.102 55.9255 61.1345 54.7869 58.1518 53.7012C58.0359 53.4206 58.0348 53.1066 58.1486 52.8252C58.2625 52.5439 58.4824 52.3173 58.7621 52.1931C59.2687 51.8444 59.6703 51.3665 59.9242 50.8102C60.178 50.2539 60.2747 49.64 60.2039 49.0338C60.2039 46.1007 60.2039 43.1751 60.2039 40.2495C60.1778 39.7594 60.2684 39.27 60.4685 38.8209C60.6685 38.3717 60.9725 37.9751 61.3558 37.6632C62.8815 36.3135 63.2324 34.436 63.1179 32.4831C63.1023 32.2323 63.0297 31.9882 62.9055 31.7689C62.7814 31.5496 62.6089 31.3607 62.4009 31.2163C62.0161 30.9327 61.713 30.5546 61.5216 30.1194C61.3303 29.6843 61.2573 29.2072 61.31 28.7356C61.31 27.4312 61.31 26.1192 61.31 24.8147C61.2584 24.1813 61.4106 23.5479 61.7448 23.0051C63.2705 20.8109 62.4085 19.1219 60.654 17.7269L60.0055 17.2369C59.0629 15.8477 57.7174 14.7726 56.1455 14.1529C53.3456 12.9579 50.7673 11.3091 48.517 9.27443C46.1904 7.32152 43.8103 7.06513 41.2548 8.67872C39.4087 9.84745 37.2651 10.4356 35.4571 11.6948C32.4057 13.8211 31.4369 16.4074 33.0847 19.7402C34.0032 21.7486 34.4041 23.9505 34.2518 26.1494C34.2826 26.531 34.1992 26.9131 34.012 27.2482C33.8248 27.5834 33.5422 27.8568 33.1991 28.0344C32.9942 28.2078 32.8335 28.4266 32.7302 28.6729C32.6268 28.9192 32.5836 29.1861 32.6041 29.452C32.4896 32.1136 32.9931 34.4963 35.4876 36.0421C35.808 38.4549 35.5486 40.8753 35.602 43.2882C35.8233 43.5068 34.8392 44.0874 35.8538 44.095C36.1361 44.095 36.3039 44.389 36.3649 44.6529C36.6395 45.8292 37.4024 46.8019 37.7609 47.9405C37.8372 49.2374 37.8067 50.5418 37.7609 51.8463C37.7225 52.2308 37.5625 52.5936 37.3037 52.8833C37.0449 53.1729 36.7004 53.3746 36.3191 53.4599C35.0375 53.9274 33.7382 54.3396 32.421 54.6965C32.1616 54.802 31.9023 54.8925 31.6581 54.9906C31.0174 55.1866 30.3766 55.4053 29.751 55.6465C28.749 55.9106 27.7775 56.2771 26.8522 56.7399C26.2496 57.0943 25.6317 56.8303 25.029 56.868C18.9796 58.5344 15.3485 62.6288 13.2964 68.2839C12.8997 68.3895 12.8158 68.0501 12.6785 67.8691C6.65833 60.1651 3.81284 50.4936 4.71439 40.7999C4.74178 40.5779 4.7877 40.3585 4.85169 40.1439C5.21504 34.5462 6.99903 29.129 10.039 24.3925C18.7126 10.7448 31.4598 4.36575 47.655 4.58441C50.0233 4.56307 52.3814 4.89354 54.6504 5.56467C62.6831 7.13303 69.4267 11.0313 75.1709 16.6939C79.9135 21.409 83.3745 27.2317 85.2329 33.6217C85.5089 34.5641 85.733 35.5205 85.9042 36.4869C86.3129 38.2385 86.5328 40.028 86.5602 41.8254Z" fill="#E86810"/>
<path d="M1.31971 54.6588C0.237734 50.5008 -0.186849 46.2023 0.0610202 41.9159C1.16715 19.1144 19.5289 2.41287 40.8886 0.256382C66.8254 -2.36006 87.6663 15.661 90.7635 38.078C90.8322 38.5681 90.9237 39.0506 90.9695 39.5408C91.1678 41.7425 90.466 42.3005 88.269 41.8028C87.5061 41.6218 87.7503 41.0488 87.7045 40.6114C87.1927 34.7983 85.3539 29.1756 82.3264 24.1663C73.6147 10.217 60.8981 2.88792 44.3062 3.57408C26.8827 4.26778 14.0135 12.66 6.65964 28.4944C3.24972 35.8687 2.6776 43.7029 4.14989 51.6352C4.42452 53.1432 4.0736 53.7917 2.66997 54.1083C2.20706 54.2594 1.75579 54.4434 1.31971 54.6588Z" fill="#E86810"/>
<path d="M80.8846 85.5735C82.6697 92.2617 84.2183 99.0026 85.4617 105.811C85.5569 106.137 85.5857 106.478 85.5465 106.814C85.5072 107.151 85.4006 107.476 85.2329 107.772C83.7835 108.42 82.3951 108.526 81.1135 107.387C79.0691 106.814 76.9865 107.214 74.9192 107.131C73.9961 107.131 73.0044 106.935 72.2034 107.651C71.7908 107.833 71.336 107.901 70.8874 107.848C70.4388 107.795 70.0131 107.623 69.6555 107.35C66.7171 107.01 63.75 106.988 60.8065 107.282C58.7926 108.79 56.6185 108.285 54.4902 107.689C53.5395 107.382 52.638 106.943 51.8125 106.384C51.2511 105.961 50.563 105.735 49.8569 105.742C49.1509 105.749 48.4673 105.988 47.9144 106.422C46.8235 107.252 45.4123 107.727 44.7486 109.061L44.4969 109.378C44.2291 109.59 43.8918 109.699 43.5488 109.682C43.2058 109.665 42.8809 109.525 42.6355 109.287H42.6737C42.2402 108.892 41.9777 108.347 41.9407 107.766C41.9038 107.184 42.0952 106.611 42.4753 106.166C42.9071 105.568 43.4205 105.033 44.001 104.575C43.1314 105.389 41.9413 106.196 41.4913 107.591C41.4073 107.847 41.1022 108.194 40.9115 107.998C40.3165 107.38 39.3858 107.621 38.7984 107.146C38.6218 107.001 38.4777 106.822 38.3753 106.619C38.2729 106.416 38.2144 106.195 38.2037 105.968C38.1929 105.742 38.2301 105.516 38.3128 105.304C38.3955 105.093 38.5219 104.901 38.6839 104.741C39.0839 104.316 39.5438 103.95 40.0495 103.655C39.2866 104.273 38.0584 104.71 38.1423 106.211C38.1423 106.678 37.7304 106.912 37.2574 106.618C35.8976 105.751 34.6915 104.668 33.6873 103.414C33.5575 103.296 33.4607 103.147 33.4064 102.981C33.3522 102.815 33.3422 102.638 33.3775 102.467C33.4128 102.296 33.4922 102.138 33.608 102.006C33.7238 101.875 33.872 101.775 34.0382 101.717C36.5327 100.533 38.8975 99.0629 41.4988 98.0977C41.7109 98.0139 41.9348 97.963 42.1626 97.9469C42.8491 97.9469 43.6882 97.8188 43.9018 98.6105C44.062 99.274 43.139 99.2288 42.8567 99.5078C42.605 99.6359 42.8567 99.7792 42.7576 99.6435C42.6584 99.5078 42.7576 99.5907 42.8415 99.5379C43.4171 99.1694 44.0867 98.9696 44.7725 98.9616C45.4583 98.9536 46.1324 99.1377 46.7167 99.4927C49.2036 100.714 51.7744 101.755 54.3452 102.848C54.7136 103.021 55.115 103.114 55.5227 103.122C55.9304 103.13 56.3351 103.052 56.71 102.893C58.5125 102.143 60.3688 101.525 62.2636 101.046C66.8406 99.8093 71.3643 98.4747 76.1092 98.4144C75.6004 98.3281 75.1268 98.1006 74.7437 97.7584C73.6757 95.3154 73.2638 92.6839 72.4552 90.1655C72.3239 89.8215 72.3362 89.4401 72.4893 89.105C72.6423 88.77 72.9236 88.5086 73.2714 88.3784C75.4379 87.3454 77.6654 86.4633 79.8548 85.4906C80.0166 85.4061 80.1995 85.3689 80.382 85.3836C80.5644 85.3983 80.7388 85.4642 80.8846 85.5735Z" fill="#FECAAA"/>
<path d="M21.7946 95.8358L31.3759 96.6577C31.526 96.5597 31.6948 96.4931 31.8719 96.462C32.049 96.4309 32.2307 96.4359 32.4057 96.4767C34.3577 96.6492 36.2967 96.9439 38.211 97.3589C38.7297 97.4871 39.3629 97.6379 39.3934 98.3014C39.424 98.9649 38.8518 99.0554 38.417 99.3042C36.5863 100.315 34.6785 101.182 32.7109 101.898C26.7817 103.624 20.6671 104.651 14.4941 104.959C12.6903 105.153 10.8771 105.249 9.06264 105.246C8.65453 105.281 8.2439 105.219 7.86497 105.065C7.75259 104.953 7.66956 104.815 7.62304 104.664C7.57652 104.513 7.56789 104.353 7.59794 104.198C8.91004 97.9244 10.2247 91.6409 11.5419 85.3474C11.5419 85.3474 11.6029 85.287 11.6411 85.2644C12.8769 85.2644 13.7389 86.222 14.8603 86.5689C16.2141 87.082 17.5361 87.6736 18.8194 88.3408C19.5365 88.665 20.0934 89.1778 19.8645 90.0148C19.4221 91.651 19.2085 93.3626 18.2626 94.8329C17.7667 94.9912 17.2251 94.8329 16.7369 95.0064C15.9898 94.9947 15.2537 95.1853 14.6083 95.5574C13.9629 95.9295 13.4327 96.4691 13.0752 97.1176C14.515 96.3905 16.0861 95.9523 17.6981 95.8282C19.0585 95.6611 20.4348 95.6636 21.7946 95.8358Z" fill="#FDC9A9"/>
<path d="M23.3736 86.3727C19.3458 84.7139 15.3179 83.04 11.2825 81.3887C10.7561 81.17 10.4357 80.9514 10.6493 80.3029C12.175 75.6883 13.2811 70.938 15.3332 66.5043C16.2244 64.4731 17.5571 62.6608 19.2368 61.1961C20.9165 59.7313 22.9018 58.6501 25.0518 58.0292C25.6163 58.5193 25.4638 59.1904 25.4714 59.7936C25.4714 63.2922 25.4714 66.7909 25.4714 70.2895C25.4217 70.8738 25.4838 71.4622 25.6545 72.0237C25.5172 75.3565 25.6011 78.7044 25.4714 82.0447C25.4714 83.1606 26.0207 84.2389 25.5935 85.3473C25.2731 85.86 24.9603 85.6187 24.6552 85.3473C23.8923 83.7714 23.3583 82.0824 22.7404 80.9438C23.1524 82.105 24.0831 83.5602 24.1822 85.3095C24.0831 85.7997 23.9381 86.2295 23.3736 86.3727Z" fill="#FD8E46"/>
<path d="M66.8864 85.5961C66.8864 80.514 66.9068 75.4294 66.9474 70.3423C66.9474 66.7004 66.9932 63.051 66.9474 59.4091C66.9474 58.2102 67.2984 58.18 68.2901 58.5797C72.8671 60.427 75.6821 63.8578 77.4442 68.2688C78.9699 72.1193 80.3202 76.0327 81.4949 80.0089C81.7238 80.7629 81.5483 81.1248 80.816 81.4189C77.0272 82.9269 73.2486 84.4802 69.4801 86.0787C68.9995 86.2823 68.7172 86.237 68.5113 85.8073C68.2061 83.8543 68.9156 82.1578 69.8386 80.401C68.9385 81.63 68.9919 83.2662 67.8247 84.2389C67.5023 84.7016 67.2885 85.2297 67.1992 85.7846C66.894 85.9807 66.8788 85.7997 66.8864 85.5961Z" fill="#FD8E46"/>
<path d="M66.1006 72.348V73.7354C66.3229 74.8811 66.3589 76.0545 66.2075 77.2115C66.0854 79.0437 66.0778 80.8911 66.1388 82.7158C66.238 85.4152 65.6811 88.0693 65.7192 90.7687C65.7192 92.6839 63.8808 94.7801 61.9737 95.2325C61.1345 95.4361 60.6463 95.1496 60.5471 94.2824C60.5195 93.7801 60.5195 93.2767 60.5471 92.7744C60.5471 83.696 60.5471 74.6151 60.5471 65.5317C60.6454 64.8612 60.5336 64.1771 60.2268 63.5713C60.1249 63.3767 60.0878 63.1554 60.1207 62.9388C60.1535 62.7221 60.2547 62.5213 60.4098 62.3648C61.3634 60.9171 60.8523 59.3035 60.9209 57.7653C61.0048 55.9859 61.1116 55.8652 62.7746 56.5136C66.1464 57.8256 66.1465 57.8257 66.1388 61.4073C66.1388 61.7239 66.1388 62.0406 66.1388 62.3573C66.4273 64.8336 66.4529 67.333 66.2151 69.8145C66.1083 70.659 66.1693 71.4734 66.1006 72.348Z" fill="#364A58"/>
<path d="M60.3641 63.4355C61.249 63.6693 60.8904 64.3856 60.8904 64.8983C60.8904 74.3914 60.8904 83.892 60.8904 93.3927C60.8904 93.9054 60.6082 94.5916 61.1345 94.9007C61.6609 95.2099 62.2406 94.6594 62.7289 94.3804C64.5444 93.3248 65.17 91.8394 65.3683 89.6527C65.8032 84.7214 65.7497 79.8053 65.826 74.8815C65.8695 74.4821 65.9539 74.088 66.0778 73.7053C67.1229 75.2133 66.5279 76.8948 66.505 78.5084C66.505 80.7704 66.3982 83.1078 66.3677 85.4076C66.3677 85.7695 66.6499 85.6489 66.8635 85.5961L67.1458 85.7846C67.2373 86.0033 67.0771 86.5387 67.3823 86.4331C68.9766 86.0108 69.3046 87.1419 69.4038 88.1673C69.5563 89.7281 70.1132 91.1834 70.4031 92.6914C70.4414 93.1355 70.4414 93.582 70.4031 94.026C70.2048 95.1344 70.5709 96.1976 70.6091 97.2909C70.6091 97.7358 70.9066 98.0449 71.4406 97.7961C71.7457 97.683 72.0966 98.0751 72.3713 97.6981C73.1799 97.5322 73.9961 97.1929 74.7895 97.7509C75.6896 98.143 76.8949 97.8942 77.5586 99.1006C72.1424 98.4295 67.2297 100.299 62.2025 101.461C60.303 101.461 60.303 101.461 59.769 99.1986C59.769 98.0601 59.3952 96.9366 59.4791 95.798C59.5478 95.6547 59.6165 95.5115 59.6775 95.3682C59.8929 94.8667 59.9718 94.3182 59.9063 93.7772C59.7538 90.8667 60.1886 87.9486 59.6089 85.0381C59.4334 84.1258 59.9369 83.1305 59.9292 82.1276C59.9292 76.5479 59.9292 70.9682 59.9292 65.3884C59.975 64.6872 59.7919 63.9784 60.3641 63.4355Z" fill="#2B2E40"/>
<path d="M55.4361 53.9651L56.5193 54.5231C56.7305 55.2782 56.6517 56.0839 56.2981 56.7851C55.5566 59.1204 53.9741 61.1057 51.8507 62.3648C51.4198 62.7037 50.8735 62.8657 50.325 62.8173C48.9976 61.8144 48.2043 60.3818 47.2736 59.0472C45.8471 57.0867 44.3595 55.1564 42.9864 53.1583C42.6202 52.638 42.2236 52.1102 42.8186 51.4919C43.4518 51.326 43.8256 51.8086 44.2528 52.1026C46.5413 53.6107 47.3728 53.5202 49.3562 51.6352C49.7758 51.2431 50.1191 50.6775 50.8361 51.0922C51.7134 51.228 52.2245 50.5569 52.8577 50.1724C53.979 49.5013 54.3834 49.6823 54.4597 50.9867C54.5283 51.801 54.2156 52.7058 54.986 53.3694C55.1549 53.5533 55.3056 53.7528 55.4361 53.9651Z" fill="#E79F7D"/>
<path d="M60.0895 99.1082C60.201 99.1965 60.2851 99.3141 60.3323 99.4474C60.3795 99.5807 60.3879 99.7244 60.3565 99.8622C60.3565 101.137 61.3329 101.272 62.2559 101.483C60.2802 102.147 58.2891 102.773 56.3362 103.497C56.0216 103.616 55.685 103.669 55.3484 103.65C55.0118 103.632 54.6829 103.544 54.3834 103.391C52.2703 102.441 50.1114 101.589 48.0288 100.586C45.9463 99.5832 44.1078 98.618 41.9261 100.201C42.4372 99.4475 43.2687 99.3721 43.9171 98.8066C43.5918 98.5702 43.2105 98.4205 42.8097 98.3716C42.409 98.3228 42.0023 98.3765 41.6286 98.5276C40.1086 99.1236 38.6327 99.824 37.2117 100.624C36.2657 101.061 35.3274 101.529 34.3663 101.928C33.4051 102.328 33.4279 103.187 34.1069 103.399C35.0452 103.693 34.9918 104.364 35.297 104.907C35.4877 105.269 35.7699 105.661 36.1742 105.661C36.5785 105.661 36.4336 105.042 36.8532 104.824C37.3261 105.314 36.6548 106.475 37.8753 106.573C37.4024 103.874 40.019 103.866 41.2929 102.667C40.7677 103.472 40.0665 104.149 39.2409 104.65C38.9789 104.824 38.7781 105.075 38.6661 105.366C38.554 105.658 38.5363 105.977 38.6153 106.279C38.7069 106.761 38.8671 107.169 39.3782 107.259C40.1792 107.402 39.6223 106.663 39.8893 106.437C39.9808 106.362 40.0113 106.211 40.0495 106.143C40.4919 106.317 40.3622 106.565 40.3775 106.754C40.3775 107.191 40.2707 107.772 40.9191 107.802C41.5676 107.832 41.2395 107.191 41.3387 106.89C41.6279 106.224 42.1148 105.662 42.7347 105.276C43.5109 104.614 44.3636 104.044 45.275 103.58C44.6113 104.288 44.001 105.042 43.2839 105.698C42.7338 106.112 42.3626 106.715 42.2451 107.388C42.1276 108.062 42.2725 108.754 42.6508 109.325C42.2999 109.423 42.0176 109.227 41.7048 109.137C41.4581 109.228 41.1944 109.267 40.9313 109.25C40.6682 109.233 40.4118 109.161 40.1792 109.039C38.1347 108.285 36.0979 107.568 34.4502 106.083C34.3831 106.008 34.2924 105.957 34.1928 105.94C34.0931 105.922 33.9903 105.938 33.9009 105.985C33.5653 107.071 34.4731 108.345 33.5272 109.393C33.1915 109.348 32.9016 109.25 32.9168 108.835C32.892 107.763 32.9558 106.692 33.1075 105.63C33.3135 104.635 33.1686 104.416 32.154 104.658C30.6283 105.02 29.1026 105.276 27.5235 105.563C27.08 105.672 26.6128 105.641 26.1886 105.472C26.3869 104.861 26.9514 104.929 27.4244 104.824C28.6602 104.537 29.9112 104.296 31.1699 104.07C31.9938 103.926 32.5354 103.64 32.3981 102.675C32.3522 102.474 32.366 102.265 32.4378 102.073C32.5095 101.88 32.6362 101.712 32.8024 101.589C35.1058 100.602 37.3385 99.4603 39.485 98.1732C36.7235 97.193 34.0001 97.208 31.3911 96.6651C31.3911 96.5822 31.3911 96.4993 31.3911 96.4163C31.7497 95.5945 31.498 94.7349 31.5209 93.8979C31.5666 91.6358 31.4446 89.3738 31.5209 87.0741C31.6124 83.6206 31.5209 80.1673 31.559 76.7138C31.4997 75.152 31.3597 73.5942 31.1394 72.0465C30.8684 70.5896 31.03 69.0864 31.6048 67.7184C31.7573 67.4319 31.8794 66.9644 32.3676 67.3263C32.655 67.8437 32.7723 68.4366 32.7033 69.0229C32.7033 76.4349 32.7033 83.8468 32.7033 91.2588C32.7033 91.4775 32.6346 91.6962 32.6422 91.9224C32.7566 96.0167 32.2074 95.1194 35.892 95.8206C37.3337 96.175 38.8442 96.2957 40.1715 97.0648C40.38 97.1581 40.6063 97.2063 40.8352 97.2063C41.0641 97.2063 41.2903 97.1581 41.4989 97.0648C42.0671 96.902 42.6632 96.8569 43.25 96.9321C43.8367 97.0074 44.4014 97.2014 44.9088 97.5021C46.7625 98.4597 48.6773 99.2665 50.5768 100.119C51.2524 100.368 51.91 100.663 52.5449 101.001C54.9784 102.614 57.2517 101.755 59.5097 100.609C59.8911 100.217 59.5479 99.4777 60.0895 99.1082Z" fill="#2F262E"/>
<path d="M32.1006 67.2132C31.1242 69.2264 31.3378 71.3527 31.6734 73.4338C31.9604 75.977 32.0343 78.5394 31.8946 81.0947C31.8946 84.0152 31.8616 86.9307 31.7954 89.8412C31.7954 91.8394 31.559 93.9506 32.1387 95.9639C32.3676 96.7631 31.6047 96.2127 31.3759 96.4088C30.3745 96.0461 29.3146 95.8672 28.2482 95.8809C25.9731 95.8728 23.7124 95.5245 21.5428 94.8479C22.0278 94.1323 22.2313 93.2661 22.1149 92.4125C22.1149 90.6556 22.6947 88.9666 22.8778 87.2399C22.9235 86.7648 23.6406 86.8704 23.3965 86.3652C23.5796 85.9958 23.755 85.6112 23.9305 85.2493C24.2128 85.1211 24.4111 84.729 24.8078 84.9703L25.3341 85.5509C25.56 84.8426 25.589 84.0874 25.4181 83.3643C25.4181 82.8364 25.2273 82.0899 26.2419 82.3011C26.4156 82.4516 26.5248 82.6619 26.5471 82.8892C26.5471 85.6263 27.554 88.288 27.0505 91.0703C26.9503 91.842 27.1039 92.6252 27.4885 93.3041C27.8731 93.983 28.4684 94.5216 29.1865 94.8404C30.1553 95.2476 30.5367 95.044 30.6435 94.026C30.6665 93.5764 30.6665 93.126 30.6435 92.6764V70.3574C30.5874 69.4573 30.7012 68.5547 30.9792 67.6957C31.1832 67.0931 31.1643 66.4385 30.9258 65.8484C30.6149 64.5755 30.5348 63.2582 30.6893 61.9577C30.6668 61.755 30.7065 61.5504 30.8031 61.3702C30.8996 61.1901 31.0487 61.0427 31.2309 60.9473C32.2608 61.7013 31.5285 62.7796 31.8107 63.6693C31.7726 63.0088 31.7726 62.3467 31.8107 61.6862C31.8107 61.3243 31.9633 61.0529 32.3752 61.4073C32.7109 63.3602 33.1381 65.3206 32.1006 67.2132Z" fill="#2D2E3F"/>
<path d="M47.533 106.158C48.1815 105.617 49.003 105.319 49.852 105.319C50.701 105.319 51.5226 105.617 52.1711 106.158C54.1194 107.506 56.4984 108.104 58.8612 107.84C59.5631 107.772 60.0437 107.621 60.3335 106.995C60.8734 107.242 61.4627 107.366 62.0576 107.357C64.1935 107.357 66.3372 107.402 68.4808 107.357C68.9845 107.379 69.4849 107.267 69.9302 107.033C70.4947 107.787 71.3262 107.485 72.0738 107.538C74.3089 107.184 76.5593 107.463 78.8021 107.38C79.7004 107.445 80.6025 107.321 81.4492 107.018C81.5352 107.291 81.7169 107.524 81.9617 107.676C82.2064 107.828 82.4981 107.889 82.7842 107.847C83.5851 107.772 84.409 107.847 85.2252 107.847C84.7675 109.295 83.5928 109.506 82.2959 109.506H65.7879C65.2463 109.506 64.697 109.551 64.1554 109.581C60.6311 109.679 57.0914 109.725 53.5747 109.581C52.3626 109.536 51.1797 109.201 50.1274 108.605C49.0751 108.009 48.1849 107.169 47.533 106.158Z" fill="#E19D7C"/>
<path d="M80.3583 72.9287C79.9082 71.6997 79.5497 70.6667 79.153 69.6864C78.9547 69.1888 79.2903 68.9324 79.5344 68.6232C82.5235 64.7902 84.7709 60.4446 86.1636 55.8049C86.3161 55.3148 86.1178 54.2969 87.346 54.7041C89.6345 55.4581 89.7413 55.4581 89.3446 56.8455C87.5504 62.7814 84.4856 68.2665 80.3583 72.9287Z" fill="#E86810"/>
<path d="M32.7872 101.589C32.7872 101.943 32.5659 102.343 32.688 102.637C33.3593 104.228 32.2227 104.273 31.1623 104.469C29.484 104.786 27.8134 105.133 26.1428 105.465C21.0088 106.219 15.8367 106.55 10.657 106.859C8.87954 106.957 8.26167 106.558 7.83447 105.065C8.64309 104.567 9.52036 104.929 10.3595 104.861C15.5011 104.432 20.6808 104.258 25.7461 103.157C28.1186 102.652 30.4529 102.117 32.7872 101.589Z" fill="#E49E7B"/>
<path d="M74.8429 97.7434C74.0343 97.7057 73.2181 98.2939 72.4247 97.6906C71.7153 95.1571 70.9829 92.6236 70.3193 90.075C70.2262 89.2869 70.0393 88.5125 69.7624 87.7677C69.5183 87.3153 69.9378 86.976 70.4108 86.7875C73.4622 85.5811 76.5136 84.3822 79.4811 83.1306C80.1066 82.8667 80.3965 82.9345 80.5109 83.598C80.6253 84.2616 80.755 84.9176 80.8847 85.5736C78.3978 86.6292 75.9109 87.6924 73.4164 88.7405C72.6536 89.0571 72.5926 89.5473 72.8138 90.2485C73.508 92.4653 74.1487 94.6972 74.7895 96.9291C74.8393 97.1975 74.8573 97.4709 74.8429 97.7434Z" fill="#E79E7A"/>
<path d="M18.2473 94.7575C18.6211 93.3324 18.9491 91.8997 19.3916 90.4897C19.6586 89.6377 19.6814 89.1174 18.6745 88.7102C16.7826 87.9562 14.9899 86.9986 13.1133 86.2144C12.6037 85.9328 12.112 85.6206 11.6411 85.2795C11.992 82.8742 11.9996 82.8666 14.2271 83.7714C16.4546 84.6763 18.6592 85.664 20.9096 86.501C22.0539 86.9308 22.4353 87.451 22.0692 88.6801C21.436 90.6707 20.963 92.7141 20.4214 94.7122C19.7262 94.9872 18.9536 95.0033 18.2473 94.7575Z" fill="#E49E7C"/>
<path d="M60.0895 99.1082C59.9827 99.734 60.3259 100.42 59.8301 100.993C59.2198 100.42 59.3648 99.6586 59.4105 98.98C59.4792 97.766 59.1054 97.0422 57.7857 96.8461C57.0228 96.7406 56.3057 96.4993 55.4971 96.4314C53.857 95.9639 53.6052 95.6774 53.5824 94.1241C53.5468 91.3795 53.5468 88.6374 53.5824 85.8978C53.5824 84.1937 53.9714 83.862 55.6878 83.7941C56.5498 83.7941 57.4118 83.7941 58.2815 83.7564C58.9452 83.7564 59.3113 83.402 59.2808 82.746C59.1816 80.4839 59.6012 78.2219 59.38 76.0202C59.3719 75.1667 59.4101 74.3135 59.4944 73.464C59.5555 67.9823 59.7919 62.4931 59.3342 57.0114C59.2198 55.6768 58.0527 55.6466 57.4119 54.968C57.3667 54.8976 57.3259 54.8246 57.2898 54.7493C58.9986 54.2969 60.3412 55.2168 60.3412 56.8681C60.3412 58.6928 60.3412 60.5225 60.3412 62.3573C60.3412 62.7193 60.3412 63.1114 60.3412 63.4356C60.3412 69.7769 60.4175 76.1182 60.3412 82.4519C60.2725 86.3502 60.5014 90.2409 60.3412 94.1317C60.3412 94.7424 60.4556 95.421 59.7385 95.7905C59.416 95.1921 59.2831 94.5116 59.3571 93.8376C59.3571 91.6358 59.3571 89.4417 59.3571 87.2399C59.3571 85.8827 59.174 85.7696 57.5644 85.7319C55.8022 85.7319 55.6573 85.8224 55.6115 87.1796C55.665 89.2424 55.6039 91.3065 55.4284 93.3626C55.2988 94.2448 55.8938 94.4936 56.6033 94.7198C57.656 95.0667 58.8918 94.8028 59.7538 95.7528C60.0278 96.8496 60.1409 97.9796 60.0895 99.1082Z" fill="#3E2823"/>
<path d="M27.3404 109.385H23.2439C22.9846 109.385 22.6565 109.476 22.4811 109.174C22.3056 108.873 22.6261 108.684 22.8015 108.511C23.7169 107.598 24.5103 106.663 26.0283 106.535C27.7721 106.286 29.4955 105.913 31.1852 105.419C32.0396 105.216 32.4667 105.419 32.4439 106.369C32.3599 110.087 32.9397 109.31 29.4916 109.385C28.7288 109.385 28.0346 109.385 27.3099 109.385H27.3404Z" fill="#344656"/>
<path d="M50.3098 62.6665C53.4832 61.3997 55.314 59.0019 56.2142 55.8275C56.3363 55.3977 56.4201 54.9604 56.5193 54.5231L57.3279 54.7493L57.3737 54.8021C57.5006 54.9904 57.5771 55.2076 57.5957 55.4331C57.6144 55.6587 57.5748 55.8852 57.4805 56.0914C56.4278 60.1329 53.9638 62.9831 49.9359 64.2725C45.7098 65.6222 41.7506 65.0265 38.3254 62.0557C36.6379 60.6607 35.4304 58.7821 34.8697 56.6796C34.7569 56.433 34.6948 56.1667 34.6869 55.8961C34.6791 55.6256 34.7256 55.3562 34.8239 55.1036C35.1825 54.802 35.5029 54.9981 35.8309 55.1715C36.2978 55.6648 36.6128 56.2795 36.7387 56.9434C37.5012 59.0123 38.9586 60.76 40.8676 61.8949C42.7765 63.0297 45.0215 63.483 47.2278 63.1792C48.2424 62.9831 49.2418 62.5458 50.3098 62.6665Z" fill="#3F2825"/>
<path d="M89.131 48.506C91.0229 48.506 91.0382 48.506 90.7788 50.1498C90.5881 51.3864 90.3592 52.623 90.1532 53.8596C90.0464 54.5005 89.7871 54.6136 89.131 54.3949C86.8425 53.5806 86.8043 53.6409 87.2392 51.2507C87.3236 50.9009 87.3822 50.5456 87.4146 50.1875C87.468 48.9434 87.7808 48.0234 89.131 48.506Z" fill="#E86810"/>
<path d="M33.5119 109.385C33.4661 108.224 33.4051 107.055 33.3898 105.894C33.3898 105.608 33.3898 105.208 33.756 105.14C34.1221 105.072 34.206 105.374 34.3967 105.563C36.4488 107.538 39.0883 108.337 41.7201 109.159L41.2014 109.431C38.6728 109.807 36.1015 109.807 33.5729 109.431L33.5119 109.385Z" fill="#C67143"/>
<path d="M47.533 106.158C47.8305 106.158 48.1051 106 48.3797 106.339C49.1749 107.35 50.2034 108.159 51.3793 108.696C52.5551 109.234 53.8441 109.486 55.1386 109.431C58.1365 109.431 61.1422 109.483 64.1478 109.521C61.8592 109.853 59.5707 109.627 57.3432 109.657C55.1157 109.687 52.6822 109.981 50.4242 109.159C50.0506 109.231 49.6652 109.214 49.2993 109.11C48.9335 109.007 48.5975 108.82 48.3187 108.564C48.1873 108.436 48.0272 108.341 47.8517 108.287C47.6761 108.232 47.4899 108.22 47.3084 108.25C47.1269 108.28 46.9553 108.352 46.8073 108.46C46.6594 108.569 46.5395 108.71 46.4574 108.873C47.6474 109.31 48.9595 108.624 49.9588 109.499L50.0275 109.619C49.177 110.001 48.2389 110.152 47.3097 110.057C46.3805 109.961 45.4938 109.623 44.7409 109.076C44.6324 108.784 44.6453 108.462 44.7768 108.179C44.9084 107.896 45.1478 107.677 45.4428 107.568C46.2141 107.217 46.9205 106.74 47.533 106.158Z" fill="#2F262E"/>
<path d="M25.357 72.1143C25.0061 71.0662 25.2273 69.9879 25.1968 68.9172C25.1129 65.2904 25.3418 61.656 25.0748 58.0292C24.9832 57.6597 25.4181 57.2752 25.0367 56.9057C26.6463 56.491 28.088 55.6013 29.751 55.3223C30.082 55.3702 30.4196 55.3428 30.7382 55.2422C31.0568 55.1416 31.348 54.9704 31.5895 54.7417C31.6624 54.6502 31.7592 54.5802 31.8694 54.539C31.9796 54.4978 32.0991 54.4871 32.215 54.508C32.8711 54.508 32.9016 54.9981 32.8635 55.4882C32.7266 55.9233 32.5234 56.3352 32.2608 56.7097C31.9029 56.7685 31.5402 56.7938 31.1776 56.7851C29.6519 56.5589 28.4466 57.328 27.1268 57.7804C26.6997 57.9312 26.6463 58.3836 26.5547 58.7908C26.4632 59.1979 26.5547 59.6503 25.9749 59.673C25.9376 59.6504 25.9019 59.6252 25.8681 59.5976C25.7232 59.4166 25.7003 59.5297 25.708 59.6655C25.8834 63.2772 25.7537 66.8889 25.769 70.4931C25.7537 71.0511 25.8758 71.6769 25.357 72.1143Z" fill="#2D2E3F"/>
<path d="M66.1007 72.348C65.8521 71.969 65.7593 71.5105 65.8413 71.0662C66.5584 68.1783 65.5209 65.2376 66.1083 62.3497C67.0847 63.7899 66.6957 65.4186 66.5813 66.9341C66.4668 68.4497 66.3906 70.0558 66.3753 71.6241C66.3887 71.7575 66.3709 71.8922 66.3233 72.0177C66.2757 72.1432 66.1995 72.2562 66.1007 72.348Z" fill="#2B2E40"/>
<path d="M49.9588 109.483L46.2972 109.416C46.0912 109.416 45.8242 109.476 45.7021 109.227C45.5801 108.978 45.7937 108.82 45.931 108.654C46.6938 107.681 47.5559 107.583 48.6162 108.285C49.1286 108.728 49.7536 109.025 50.4242 109.144L49.9588 109.483Z" fill="#C0714A"/>
<path d="M33.5653 109.423H41.1937C41.0871 109.568 40.9487 109.688 40.7889 109.772C40.6291 109.857 40.4519 109.905 40.2707 109.913C38.2873 109.913 36.2962 109.913 34.3052 109.913C34.1484 109.906 33.9966 109.856 33.8662 109.77C33.7358 109.684 33.6318 109.564 33.5653 109.423Z" fill="#2F262E"/>
<path d="M67.7942 84.2389C68.2491 82.7478 68.9362 81.336 69.831 80.0541C69.6174 82.0371 68.5342 83.8242 68.4808 85.8072C67.962 85.4076 68.7172 84.4651 67.7942 84.2389Z" fill="#502D1D"/>
<path d="M71.494 97.7886C71.494 98.5879 70.8837 98.2712 70.5328 98.3089C70.0293 98.3617 70.159 97.8867 70.1819 97.6303C70.2887 96.4239 69.8768 95.1873 70.4565 94.0186C70.6637 95.3086 71.0115 96.5726 71.494 97.7886Z" fill="#DAD9DD"/>
<path d="M55.4361 53.9651C55.3299 53.9727 55.2236 53.9531 55.1274 53.9082C55.0312 53.8633 54.9483 53.7946 54.8869 53.7087C54.124 52.0499 54.4063 50.3759 54.78 48.702C54.78 48.5663 54.9937 48.5663 55.131 48.5663C55.1844 50.014 54.7953 51.4843 55.4284 52.8943C55.1081 53.2487 55.909 53.6032 55.4361 53.9651Z" fill="#2B2D40"/>
<path d="M22.092 92.42C22.6413 93.9281 22.4658 94.6821 21.5199 94.8555C21.3826 93.9733 21.8784 93.2268 22.092 92.42Z" fill="#C5C3CF"/>
<path d="M21.7945 95.8358H17.7285C19.0552 95.4459 20.4679 95.4459 21.7945 95.8358Z" fill="#2D2E3F"/>
<path d="M42.6279 109.287L44.4892 109.378C43.734 110.494 43.6654 110.494 42.6279 109.287Z" fill="#2F262E"/>
<path d="M18.2473 94.7574H20.4214C19.2314 95.3682 17.9651 94.9384 16.7369 95.0213C17.1946 94.6971 17.7286 94.9384 18.2473 94.7574Z" fill="#2D2E3F"/>
<path d="M60.0513 16.9504C60.157 18.0716 59.851 19.193 59.1893 20.1097C59.0345 20.2722 58.9265 20.4727 58.8765 20.6903C58.8231 23.0278 58.5485 25.3728 58.9757 27.7027C59.2885 28.2456 58.9757 28.4567 58.4951 28.5019C57.7933 28.5019 57.0457 28.4265 56.8549 27.6122C56.5801 26.8024 56.4334 25.9554 56.4201 25.1013C56.5345 23.7214 56.0768 22.3491 56.3743 20.9542C56.5422 20.2002 56.0158 19.695 55.2683 19.4914C53.3459 18.3453 51.3624 18.5941 49.3638 19.235C47.0315 20.0457 44.4808 19.9922 42.1854 19.0843C41.7016 18.9722 41.2678 18.7075 40.9496 18.3302C40.2859 17.2897 39.2713 17.35 38.3101 17.6591C37.7404 17.8416 37.2469 18.2037 36.9052 18.6899C36.5635 19.1761 36.3925 19.7596 36.4183 20.351C36.4515 22.542 36.2933 24.7318 35.9453 26.8959C35.4953 28.9996 35.3427 29.1127 33.4814 28.1325C33.2849 28.0458 33.1142 27.9108 32.9855 27.7404C33.5347 27.5594 33.8933 27.3784 33.9085 26.6169C33.9543 24.2191 33.8322 21.9721 32.6346 19.7252C30.9639 16.5809 32.009 13.3989 35.2053 11.4762C37.6763 10.0551 40.2228 8.76641 42.8338 7.61562C43.584 7.28161 44.4114 7.15364 45.229 7.24519C46.0465 7.33675 46.824 7.64445 47.4796 8.1359C48.4179 8.76927 49.3028 9.47052 50.1877 10.1793C52.1108 11.7637 54.2663 13.0501 56.5803 13.9946C58.0755 14.5526 59.4639 15.3066 60.0513 16.9504Z" fill="#2B2C40"/>
<path d="M50.6378 51.4919C50.5691 51.3411 50.5462 51.0923 50.3326 51.1526C50.119 51.2129 50.0809 51.4014 49.9588 51.5296C47.3728 54.1159 46.2438 54.1913 43.406 51.9443C43.2381 51.8086 43.0398 51.7181 42.8567 51.5975C42.4677 51.6955 42.2159 51.3185 41.8498 51.3261C40.7208 51.2356 40.1029 50.278 39.2027 49.818C37.2651 48.7775 37.3795 46.523 36.3268 44.9471C35.274 43.3712 35.6478 41.7274 35.5639 40.0761C35.6402 41.1543 35.5639 42.2326 35.5639 43.3109C35.5639 43.5672 35.4876 43.7482 35.1825 43.7256C35.1825 41.1166 35.1291 38.5077 35.1062 35.8988C35.8157 35.7782 35.808 36.3663 35.8233 36.7358C35.8299 37.1524 35.9495 37.5597 36.1696 37.9151C36.3896 38.2705 36.702 38.5611 37.0743 38.7566C37.2324 38.8439 37.3808 38.9476 37.5168 39.0657C38.6458 40.0535 38.5924 39.9931 39.6375 38.9903C41.2242 37.4823 43.0093 36.3814 45.3741 37.2561C46.4345 37.6255 47.4414 37.2561 48.4255 37.0072C49.2818 36.8946 50.153 37.0108 50.9485 37.3436C51.7441 37.6764 52.4349 38.2138 52.9492 38.8998C53.9561 40.0836 53.9562 40.1062 55.0776 38.9903C55.3202 38.7228 55.5942 38.4849 55.8938 38.2815C56.7024 37.7235 57.3508 37.8367 57.3737 38.8772C57.5047 40.6635 57.4716 42.4579 57.2746 44.2383C56.5117 44.2383 56.8016 44.8566 56.6642 45.2109C56.5442 45.8704 56.3066 46.5036 55.9624 47.0809C55.4208 46.9528 55.3903 47.4806 55.2454 47.7218C54.1763 49.45 52.555 50.7766 50.6378 51.4919Z" fill="#2B2D40"/>
<path d="M57.3508 44.2081C57.3508 42.7001 57.3508 41.192 57.3508 39.684C57.3508 38.7264 57.2669 37.9347 55.9701 38.5454C55.642 38.1006 55.8785 37.6708 56.0387 37.2711C56.4735 36.2004 56.3439 35.0694 56.4659 33.9685C56.4659 33.7876 56.1379 33.9082 56.321 33.9157C56.3896 33.9157 56.4049 33.9158 56.4049 33.9836C56.321 34.994 55.5734 35.3333 54.7419 35.4087C53.2014 35.5444 51.6518 35.5444 50.1114 35.4087C48.9442 35.3031 48.3035 34.4737 47.8229 33.5086C47.5406 32.9355 47.4033 32.3172 47.1592 31.7366C47.0219 31.4049 46.8693 31.0429 46.3963 31.0505C45.9234 31.058 45.8089 31.4275 45.6335 31.7593C45.3818 32.3851 45.1758 33.0335 44.8706 33.6292C44.6401 34.1972 44.2364 34.6803 43.7156 35.0113C43.1948 35.3423 42.5827 35.5049 41.9642 35.4766C40.9649 35.4766 39.9655 35.4766 38.9662 35.4766C38.511 35.5377 38.0475 35.4887 37.6156 35.3337C37.1838 35.1787 36.7965 34.9224 36.487 34.5868C36.0369 36.0949 36.7997 37.4069 36.815 38.7792C36.4553 38.6795 36.1348 38.4738 35.8963 38.1895C35.6579 37.9053 35.5126 37.5561 35.48 37.1882C35.48 36.6906 35.5334 36.2381 35.0909 35.8988C34.831 35.8646 34.5754 35.8039 34.3281 35.7179C32.4591 34.798 31.2767 29.5424 32.5507 27.9137C32.6193 27.8233 32.7947 27.8082 32.9168 27.7554C33.3516 27.8158 33.817 27.7177 34.1908 28.0872C35.1672 29.0674 35.2816 28.3285 35.4418 27.499C35.8418 25.1451 36.0257 22.7602 35.9911 20.3736C35.9764 19.8565 36.0891 19.3437 36.3196 18.8792C36.5501 18.4148 36.8914 18.0128 37.3141 17.7078C37.7368 17.4028 38.2282 17.204 38.7459 17.1285C39.2636 17.053 39.7922 17.1032 40.2859 17.2746C40.6063 17.3801 41.1556 17.448 40.8809 18.0286C40.6063 18.2849 40.3012 18.1869 39.9884 18.1266C38.005 17.7798 37.5244 18.0512 36.7768 19.974C36.6243 21.4468 36.5861 22.929 36.6624 24.4076C36.7692 25.5386 36.3344 26.6319 36.4107 27.7554C36.5403 28.1626 36.8378 28.155 37.1735 28.0646C39.5917 27.582 41.9794 28.1098 44.3748 28.2606C45.9989 28.4391 47.6393 28.4138 49.257 28.1852C51.2786 28.1098 53.2848 27.7328 55.314 27.9288C55.9243 27.9892 56.0769 27.6649 56.0769 27.1296C56.0952 26.5972 56.0283 26.0653 55.8785 25.5537C55.7328 24.6792 55.6969 23.7903 55.7717 22.9071C55.8069 21.6345 55.65 20.3639 55.3064 19.137C56.7024 19.3557 56.8321 20.3284 56.71 21.4443C56.5874 23.5123 56.7104 25.5874 57.0762 27.6272C57.1449 28.1927 57.7322 27.9816 58.0679 28.1475C58.4035 28.3134 58.8307 28.3209 58.9146 27.7177C60.1733 27.2125 60.6616 28.057 60.776 28.9769C60.9912 31.0403 60.5314 33.1176 59.4639 34.9035C59.3571 35.092 59.1893 35.3408 59.0062 35.3785C57.2593 35.8008 57.6254 37.158 57.6254 38.3494C57.6254 39.782 57.6712 41.2147 57.6254 42.6473C57.6941 43.1676 57.8772 43.7708 57.3508 44.2081Z" fill="#2F2734"/>
<path d="M35.2283 43.6953C35.8157 42.4135 35.2283 41.0412 35.747 39.7141C35.7737 40.1963 35.7737 40.6796 35.747 41.1618C35.5487 42.9564 36.3191 44.4343 37.2269 45.882C37.5047 46.2963 37.699 46.7597 37.7991 47.2467C38.1423 49.4485 40.4156 49.7426 41.6133 51.0696C41.6133 51.0696 41.8574 50.7831 42.0329 51.0319C42.1017 51.0888 42.1579 51.1591 42.1979 51.2385C42.2379 51.3179 42.2607 51.4047 42.2651 51.4933C42.2694 51.5818 42.255 51.6704 42.2229 51.7532C42.1908 51.836 42.1417 51.9114 42.0786 51.9745C41.7506 52.2987 41.415 52.0121 41.1098 51.8689C40.2707 51.4768 39.6452 50.7228 38.7221 50.5117C38.3865 51.2657 38.7221 52.1102 38.5314 52.9019C38.4736 53.2036 38.3358 53.4848 38.1321 53.7166C37.9284 53.9484 37.666 54.1226 37.3719 54.2214C36.7757 54.5052 36.2296 54.882 35.7546 55.3373L34.9384 55.0735C34.2289 55.2393 33.5653 55.8275 32.7643 55.3449L32.2227 54.5079C33.5271 54.0631 34.8316 53.6333 36.1208 53.1507C36.67 52.9471 37.4024 52.9019 37.4481 52.0725C37.6312 50.638 37.6312 49.1864 37.4481 47.7519C36.7499 46.9124 36.266 45.9194 36.0369 44.8565C35.9835 44.6605 36.1742 44.193 35.7012 44.3664C34.3052 44.8716 35.3351 43.9366 35.2283 43.6953Z" fill="#2A2935"/>
<path d="M37.41 47.752C37.8066 49.1654 37.8066 50.659 37.41 52.0725C37.4176 50.6323 37.41 49.1921 37.41 47.752Z" fill="#2B2D40"/>
<path d="M31.5666 54.7417C31.1394 55.4957 30.5749 55.835 29.7281 55.3223C30.2911 54.9992 30.9184 54.8011 31.5666 54.7417Z" fill="#2A2935"/>
<path d="M69.9301 106.973C69.9301 107.727 69.3961 107.794 68.8164 107.794H61.3634C60.7607 107.794 60.2496 107.742 60.3335 106.95C60.6387 106.588 61.0583 106.641 61.4626 106.641H68.8088C69.0089 106.607 69.2142 106.62 69.4087 106.677C69.6032 106.735 69.7816 106.836 69.9301 106.973Z" fill="#362B38"/>
<path d="M81.4492 106.957C81.4492 107.395 81.3347 107.779 80.7931 107.779C77.9934 107.779 75.1862 107.93 72.4018 107.711C72.295 107.711 72.1958 107.561 72.089 107.478C72.0778 107.365 72.0924 107.251 72.1317 107.145C72.171 107.039 72.2341 106.943 72.3161 106.864C72.3982 106.785 72.4972 106.725 72.6058 106.689C72.7144 106.653 72.8298 106.642 72.9434 106.656C75.6286 106.656 78.2833 106.656 80.9991 106.701C81.1364 106.701 81.2966 106.867 81.4492 106.957Z" fill="#322934"/>
<path d="M25.357 72.1143V58.2932C25.9597 58.6099 25.7461 59.3187 26.1809 59.6504C26.7912 60.231 26.631 60.9851 26.6462 61.6863C26.7149 65.381 26.4784 69.0681 26.5165 72.7477C26.5165 75.3566 26.6386 77.9655 26.6462 80.5744C26.7059 80.8849 26.6959 81.2045 26.6168 81.5107C26.5377 81.8169 26.3915 82.1022 26.1885 82.3464C25.4257 82.4972 25.7232 83.1004 25.6469 83.5377C25.5401 84.2088 25.952 84.9628 25.3341 85.5585C25.1091 81.0797 25.1167 76.5924 25.357 72.1143Z" fill="#2A2935"/>
<path d="M24.7849 84.9779L23.9076 85.2569L22.3056 80.1145C23.4092 81.5824 24.248 83.2277 24.7849 84.9779Z" fill="#522615"/>
<path d="M50.6378 51.4919C50.7675 51.2657 50.859 50.8887 51.0344 50.8435C53.2467 50.2855 54.3986 48.6945 55.3445 46.8019C55.6802 46.1459 55.8404 46.8396 56.0387 47.0507C55.7336 47.5559 55.4285 48.0611 55.131 48.5588C54.6504 50.2553 54.925 51.982 54.8868 53.6936C54.124 53.392 54.0782 52.7134 54.0477 52.0273C54.1125 51.3296 54.0584 50.6261 53.8875 49.9462C52.8348 50.572 51.9651 51.4542 50.8361 51.7633C50.8142 51.7642 50.7923 51.7599 50.7724 51.7507C50.7525 51.7416 50.7351 51.7278 50.7217 51.7106C50.686 51.6408 50.6579 51.5675 50.6378 51.4919Z" fill="#2A2935"/>
<path d="M60.9057 99.4324C60.7455 98.5728 61.1574 98.2636 62.111 98.2787C64.187 98.2526 66.2558 98.033 68.2901 97.6227C68.7325 97.5398 69.2207 97.3136 69.3504 97.9997C69.4801 98.6859 69.0377 98.7538 68.4808 98.8744C66.2719 99.2886 64.097 99.8632 61.9737 100.594C60.8523 101.016 60.898 100.239 60.9057 99.4324Z" fill="#324654"/>
<path d="M38.5085 49.6521L41.8497 52.0348C42.193 51.703 41.9947 51.3487 42.0481 51.032C42.6202 50.8058 42.5134 51.507 42.8567 51.5975C42.7853 51.8028 42.7732 52.0237 42.8217 52.2355C42.8702 52.4472 42.9774 52.6414 43.1313 52.7963C45.5496 56.0612 47.922 59.3714 50.3097 62.6665C49.0123 63.2713 47.6009 63.6004 46.1668 63.6323C44.7327 63.6643 43.3078 63.3984 41.9842 62.8519C40.6605 62.3054 39.4676 61.4904 38.4826 60.4597C37.4976 59.4289 36.7423 58.2054 36.2657 56.8681C36.0902 56.3629 35.9377 55.8501 35.7699 55.36C35.7366 55.2232 35.733 55.0809 35.7594 54.9426C35.7857 54.8043 35.8415 54.6731 35.923 54.5577C36.0044 54.4422 36.1097 54.3452 36.2319 54.2729C36.3541 54.2007 36.4905 54.1549 36.6319 54.1385C37.2803 53.9651 38.066 53.8218 38.2262 52.9472C38.5924 51.8689 38.0737 50.7153 38.5085 49.6521Z" fill="#FDC9A9"/>
<path d="M32.7795 55.3449C33.5424 55.4429 34.1527 54.5381 34.9537 55.0735C35.275 57.571 36.4668 59.8798 38.324 61.6027C40.1813 63.3257 42.588 64.3551 45.13 64.5138C50.859 64.838 55.848 61.3846 57.0533 56.2196C57.1677 55.7446 57.2669 55.2544 57.3737 54.7719C59.8301 55.3977 59.853 55.3977 59.914 57.7879C60.1276 66.248 59.914 74.7081 59.914 83.1682C59.914 83.9901 59.6546 84.2841 58.8155 84.2389C57.5415 84.1786 56.2676 84.2389 55.0013 84.2389C54.2994 84.2389 54.0324 84.45 54.0401 85.1663C54.0401 88.3634 54.1011 91.5604 54.0401 94.7499C54.0401 96.0619 55.1233 95.7 55.726 96.0845C56.3286 96.4691 57.2517 96.0845 57.4042 96.8988C57.5568 97.7132 56.4964 97.7584 56.0387 98.2033C54.762 99.5613 53.024 100.407 51.1565 100.578C50.9312 100.621 50.6981 100.58 50.5005 100.465C48.7282 99.7979 47.0029 99.0145 45.336 98.1204C44.5274 97.6981 43.6425 97.0798 42.7881 97.3664C40.2783 98.1204 38.272 96.4389 35.9835 96.2052C34.2686 95.0812 32.9534 93.4541 32.2227 91.5529C32.2227 83.9775 32.2049 76.4021 32.1693 68.8268C32.1693 68.2914 32.1235 67.756 32.1006 67.2207C32.2151 65.2493 32.2151 63.2731 32.1006 61.3017C31.5631 59.799 31.5631 58.1596 32.1006 56.6569C32.2227 56.1442 32.1464 55.5787 32.7795 55.3449Z" fill="#FE8E46"/>
<path d="M50.531 100.48C52.461 100.036 54.391 99.6284 55.6955 97.8942C56.0235 97.4568 56.8626 97.5021 57.2746 96.9592C56.8703 96.4238 56.0998 96.635 55.7489 96.0996C56.9542 96.0996 58.0374 96.635 59.2198 96.7481C59.8453 96.8009 59.8301 97.2985 59.8301 97.7585V100.993C58.5561 101.461 57.2822 101.913 56.0158 102.396C55.8041 102.476 55.5781 102.514 55.3513 102.506C55.1246 102.498 54.9017 102.445 54.6961 102.35L50.531 100.48Z" fill="#D1753C"/>
<path d="M32.2227 91.5453C33.4788 93.0885 34.7324 94.6393 35.9835 96.1976C35.4495 96.1297 34.9079 96.0845 34.3815 95.994C32.2227 95.6019 32.2227 95.6019 32.2227 93.4077C32.2227 92.7894 32.2227 92.1636 32.2227 91.5453Z" fill="#CB753D"/>
<path d="M26.1657 82.3463C25.9826 74.8062 26.2267 67.2132 26.1657 59.6504C25.8682 58.0368 26.5623 57.1772 28.1948 56.9359C28.8604 56.824 29.5056 56.6157 30.1096 56.3177C30.3253 56.2017 30.5786 56.1746 30.8144 56.2424C31.0501 56.3102 31.2492 56.4673 31.3683 56.6796C31.6962 57.3523 31.8664 58.0894 31.8664 58.8361C31.8664 59.5828 31.6962 60.3198 31.3683 60.9925C30.8807 62.5696 30.9101 64.2587 31.4522 65.8183C31.5896 66.0775 31.6713 66.362 31.6923 66.6539C31.7133 66.9459 31.6732 67.239 31.5743 67.5148C30.8496 68.7514 31.1165 70.0483 31.1089 71.2849C31.1089 78.893 31.1089 86.4935 31.1089 94.094C31.1089 95.6699 30.7809 95.881 29.2247 95.3381C28.3099 94.9948 27.545 94.3468 27.0618 93.5058C26.5786 92.6648 26.4073 91.6834 26.5776 90.731C26.8667 89.5033 26.8458 88.224 26.5166 87.0062C26.036 85.4906 26.2191 83.9147 26.1657 82.3463Z" fill="#354B59"/>
<path d="M31.3683 60.9925C31.3683 59.5523 31.3683 58.1197 31.3683 56.6795C31.5895 55.7144 31.8717 56.476 32.1311 56.6795C32.1311 58.2328 32.1311 59.781 32.1311 61.3243C31.6658 62.1537 32.1311 63.0887 31.7878 64.1141C31.5208 62.953 31.7954 61.9199 31.3683 60.9925Z" fill="#2A2935"/>
<path d="M59.7538 95.783C58.5028 95.5417 57.2669 95.2627 56.0082 95.0289C55.8503 95.0299 55.6942 94.996 55.5512 94.9297C55.4083 94.8634 55.2821 94.7663 55.182 94.6456C55.0818 94.525 55.0102 94.3837 54.9723 94.2322C54.9344 94.0806 54.9313 93.9226 54.9631 93.7698C55.047 91.2589 55.0775 88.7405 55.0928 86.2296C55.0928 85.551 55.3064 85.3097 56.0235 85.272C59.8377 85.0684 59.8377 85.0457 59.8377 88.7555C59.8377 91.093 59.7843 93.4304 59.7538 95.7679V95.783Z" fill="#FB8F47"/>
<path d="M49.402 28.5396C46.9303 29.3389 44.4816 28.6301 42.0252 28.4416C40.3233 28.2354 38.6007 28.2633 36.9065 28.5245C36.9752 27.7705 37.0057 27.6801 37.8829 27.6424C39.5002 27.5745 41.1174 27.582 42.5211 27.6424C40.9413 27.3465 39.3234 27.3058 37.7304 27.5217C37.0438 27.6424 36.8531 28.6301 36.0521 28.2758C35.8157 27.0542 36.4412 25.8855 36.3191 24.6715C36.6166 23.0202 36.2733 21.3388 36.5098 19.6799C37.3718 17.531 37.9669 17.3198 40.9191 18.0588C42.0703 18.7817 43.3695 19.2432 44.7229 19.4101C46.0763 19.577 47.4502 19.4451 48.7459 19.0239C49.8125 18.652 50.9179 18.3991 52.0414 18.2699C53.2241 18.1896 54.3987 18.5144 55.3674 19.1898C55.7213 19.5198 55.9862 19.9321 56.1381 20.389C56.29 20.8459 56.324 21.3331 56.237 21.8063C56.1607 23.0806 56.237 24.3624 56.237 25.6442C56.4354 26.353 56.588 27.0542 55.7488 27.5066C53.5366 27.4463 51.3091 27.2201 49.1578 27.9138C48.8374 28.2003 49.6995 28.2003 49.402 28.5396Z" fill="#FDCAAA"/>
<path d="M36.876 38.749C35.7317 37.1958 36.1132 35.4314 36.1132 33.2598C36.876 35.0996 38.1958 35.1675 39.5384 35.0921H40.3546C44.1078 35.0921 44.2299 35.0167 45.3741 31.3899C45.5648 30.7791 45.809 30.4925 46.4955 30.5076C46.7416 30.4931 46.9844 30.5689 47.1774 30.7207C47.3703 30.8724 47.4997 31.0892 47.5406 31.3295C48.8375 35.0996 48.8451 35.0996 52.8806 35.0996C55.4819 35.0996 55.4819 35.0996 56.6948 33.388C56.7634 35.2579 56.9618 36.9771 55.9929 38.553C55.8251 38.7566 55.6497 38.9602 55.4818 39.1713C55.0623 39.7066 54.5817 40.3174 53.9562 40.4381C53.1399 40.5889 53.2772 39.586 52.8729 39.1713C52.3615 38.5504 51.712 38.0546 50.975 37.7224C50.238 37.3902 49.4334 37.2307 48.6239 37.2561C48.5776 37.2939 48.5241 37.3222 48.4666 37.3393C48.4091 37.3564 48.3487 37.362 48.289 37.3557C48.2293 37.3494 48.1715 37.3313 48.1189 37.3025C48.0664 37.2738 48.0202 37.2349 47.983 37.1883C47.1592 36.9319 46.259 37.6482 45.458 37.0148C45.458 37.1505 45.664 37.1807 45.6793 37.324C45.6945 37.4672 45.5343 37.6708 45.2902 37.5351C44.1929 37.2032 43.0126 37.2622 41.9547 37.7017C40.8968 38.1412 40.0282 38.9333 39.5002 39.9404C39.1035 40.6944 38.7374 40.6039 38.2949 40.1892C37.8525 39.7745 37.3413 39.2241 36.876 38.749Z" fill="#FBCAA9"/>
<path d="M43.5662 42.9263C43.0856 42.9263 41.8116 41.7424 41.7353 41.1543C41.659 40.5662 42.0481 40.7094 42.338 40.6642C43.6107 40.5863 44.854 40.2528 45.992 39.684C46.0881 39.6211 46.2009 39.5875 46.3162 39.5875C46.4315 39.5875 46.5443 39.6211 46.6404 39.684C47.7847 40.438 49.135 40.4832 50.4547 40.6642C51.2175 40.7698 51.2175 41.0714 50.8971 41.6369C50.1343 42.8961 49.2494 43.0318 48.2043 42.029C47.6339 41.582 46.9119 41.368 46.1868 41.4311C45.4617 41.4942 44.7887 41.8296 44.3061 42.3683C44.1002 42.5643 44.0849 42.9564 43.5662 42.9263Z" fill="#F5CAB0"/>
<path d="M45.275 37.5426L45.542 37.3013C46.3675 37.0945 47.2154 36.9882 48.067 36.9846C48.1662 37.2259 48.4103 37.2033 48.6086 37.2636C48.1149 37.5674 47.5553 37.7511 46.9758 37.7996C46.3963 37.8481 45.8134 37.76 45.275 37.5426Z" fill="#A99B9A"/>
<path d="M40.469 28.9996C41.5065 29.0825 42.544 29.1957 43.5891 29.2484C44.2757 29.2484 44.535 29.5727 44.4969 30.2588C44.4167 31.4244 44.0557 32.5542 43.4441 33.5539C43.3676 33.7195 43.2484 33.8624 43.0984 33.9683C42.9485 34.0741 42.7731 34.1392 42.5898 34.1571C41.148 34.1571 39.6986 34.1571 38.2492 34.1571C37.996 34.142 37.7537 34.0499 37.5556 33.8933C37.3576 33.7366 37.2135 33.5233 37.143 33.2824C37.0973 33.1542 37.0515 33.0261 37.0134 32.8979C35.9149 29.5274 36.5175 28.8563 40.469 28.9996Z" fill="#F9C9A7"/>
<path d="M52.8958 29.0146C53.0328 29.0033 53.1707 29.0033 53.3077 29.0146C54.2003 29.1579 55.5962 28.5622 55.9014 29.467C56.1184 30.1584 56.185 30.8873 56.0969 31.6059C56.0088 32.3245 55.768 33.0166 55.3903 33.6367C55.3164 33.7776 55.2078 33.8978 55.0744 33.9861C54.9411 34.0744 54.7873 34.128 54.6274 34.1419C53.133 34.3231 51.62 34.2927 50.1343 34.0514C49.0587 33.8177 47.8457 30.402 48.4865 29.5273C48.6772 29.2785 48.9671 29.3011 49.2494 29.2483C50.4549 29.0591 51.6756 28.9808 52.8958 29.0146Z" fill="#F8C6A3"/>
<path d="M57.6636 32.0533V30.0024C57.6714 29.8125 57.7172 29.6261 57.7982 29.4538C57.8793 29.2815 57.994 29.1267 58.1358 28.9985C58.2777 28.8702 58.4437 28.771 58.6245 28.7065C58.8053 28.6419 58.9973 28.6134 59.1893 28.6225C60.1352 28.532 59.9521 29.4594 59.9521 30.0325C59.9244 31.3876 59.5908 32.7195 58.9757 33.9308C58.7621 34.338 58.4341 34.813 57.9687 34.6848C57.5034 34.5566 57.7551 33.9911 57.717 33.6292C57.6712 33.0863 57.717 32.5434 57.717 32.008L57.6636 32.0533Z" fill="#E9AD92"/>
<path d="M35.1596 32.1061C35.1596 32.7696 35.1596 33.4407 35.1596 34.1118C35.1596 34.3154 35.2664 34.5793 34.9765 34.6848C34.6866 34.7904 34.5569 34.5944 34.3967 34.4436C33.9632 33.9806 33.679 33.4004 33.5805 32.7772C33.3609 31.8668 33.1903 30.9457 33.0694 30.0175C32.9931 29.4595 32.9092 28.6602 33.7026 28.6452C33.8853 28.6305 34.0691 28.6536 34.2423 28.713C34.4155 28.7725 34.5742 28.8669 34.7084 28.9903C34.8426 29.1137 34.9493 29.2635 35.0218 29.43C35.0942 29.5964 35.1307 29.7759 35.1291 29.9571C35.1291 30.6735 35.1291 31.3898 35.1291 32.1061H35.1596Z" fill="#F0BCA3"/>
<path d="M36.0369 28.2455C38.6916 25.7346 41.5676 27.2804 44.6342 27.6875C44.4806 27.8638 44.2778 27.9914 44.0512 28.0545C43.8246 28.1175 43.5843 28.1132 43.3602 28.042C41.5505 27.8874 39.7308 27.8874 37.9211 28.042C37.5626 28.042 36.9294 27.7629 36.8913 28.532C36.5785 28.5471 36.2352 28.6376 36.0369 28.2455Z" fill="#3A3034"/>
<path d="M55.642 27.2502C56.4659 26.9109 56.176 26.1795 56.2599 25.5763C56.3057 25.6517 56.382 25.7195 56.3973 25.8025C56.9312 28.1927 56.7939 28.336 54.4215 28.3586C52.7508 28.3586 51.0802 28.4793 49.402 28.5396C49.1502 28.2078 48.7459 28.3586 48.4255 28.2606C48.371 28.2534 48.3188 28.2344 48.2726 28.2049C48.2264 28.1755 48.1873 28.1363 48.1581 28.0902C48.129 28.0441 48.1105 27.9923 48.104 27.9383C48.0975 27.8843 48.1031 27.8296 48.1204 27.778C48.1967 27.5141 48.4255 27.5066 48.6543 27.5292C49.3256 28.0419 50.0733 27.6725 50.7293 27.5745C52.0116 27.3558 53.3223 27.3558 54.6046 27.5745C54.9784 27.6423 55.4284 27.7403 55.642 27.2502Z" fill="#C9B7B2"/>
<path d="M36.5099 19.6498C36.3802 21.3086 36.7921 22.9901 36.3191 24.6414C36.3802 22.975 36.0369 21.3011 36.5099 19.6498Z" fill="#2B2C40"/>
<path d="M38.5085 49.6521C38.3254 50.7379 38.6763 51.8614 38.2263 52.9246C38.3254 51.8689 37.883 50.7002 38.5085 49.6521Z" fill="#2B2D40"/>
<path d="M55.6421 27.2502C55.7946 27.4537 56.0921 27.68 56.0693 27.8685C56.0693 28.1701 55.7107 27.9966 55.5124 27.9665C53.3953 27.7565 51.261 27.7843 49.1502 28.0494C48.5247 28.1022 48.5247 28.0494 48.6544 27.5291C49.7071 27.3406 50.7598 27.1295 51.8126 26.9636C53.0917 26.7144 54.4154 26.8134 55.6421 27.2502Z" fill="#34272D"/>
<path d="M48.067 36.9469C47.2679 37.2692 46.3972 37.3784 45.542 37.2636C45.1377 37.0525 44.5732 37.0298 44.4893 36.2306C45.6793 36.9318 46.8236 37.2937 47.9678 36.3588C48.1204 36.2306 48.1814 36.306 48.067 36.9469Z" fill="#4D3322"/>
</g>
<defs>
<clipPath id="clip0_20_701">
<rect width="91" height="114" fill="white"/>
</clipPath>
</defs>
</svg>
