<svg width="74" height="74" viewBox="0 0 74 74" fill="none" xmlns="http://www.w3.org/2000/svg">
<g clip-path="url(#clip0_20_565)">
<path d="M0.356827 37.8305C0.193397 30.5846 2.18167 23.4528 6.07026 17.3365C9.95885 11.2203 15.5733 6.394 22.204 3.46767C28.8347 0.541346 36.184 -0.35368 43.3233 0.895674C50.4625 2.14503 57.0712 5.48265 62.3141 10.4868C67.557 15.491 71.1988 21.9371 72.7792 29.0104C74.3596 36.0838 73.8078 43.4669 71.1934 50.2266C68.579 56.9864 64.0194 62.8195 58.0908 66.9887C52.1623 71.1578 45.1309 73.476 37.8853 73.6502C33.0689 73.7632 28.2775 72.9263 23.7847 71.1872C19.2919 69.4481 15.1857 66.8409 11.7007 63.5146C8.21568 60.1883 5.42012 56.208 3.47372 51.801C1.52732 47.394 0.468168 42.6468 0.356827 37.8305ZM70.8229 42.2221H69.8554C66.6988 42.2221 63.5492 42.2221 60.3926 42.2221C59.5006 42.2221 59.1712 42.4828 58.9379 43.3337C57.4458 48.7345 53.997 53.3866 49.263 56.384C44.5291 59.3814 38.849 60.5095 33.3289 59.5487C23.873 57.9155 17.7521 52.1858 14.973 42.9701C14.8014 42.4074 14.5887 42.2289 14.0054 42.2289C10.6842 42.2289 7.36295 42.2289 4.04173 42.2289C3.77411 42.2289 3.49967 42.2289 3.22519 42.2289C4.73483 55.4795 16.9492 70.9465 36.4854 71.2691C55.6441 71.6122 68.9633 56.8039 70.8229 42.2564V42.2221ZM57.49 37.0893C57.514 31.6971 55.408 26.5135 51.6299 22.6661C47.8518 18.8186 42.7075 16.6186 37.3157 16.5445C26.1169 16.4072 16.7983 25.4101 16.51 36.3139C16.4105 39.0342 16.8539 41.7471 17.8142 44.2943C18.7745 46.8414 20.2325 49.1716 22.1032 51.1492C23.9739 53.1267 26.2198 54.7117 28.7097 55.8118C31.1997 56.9119 33.8838 57.5051 36.6054 57.5566C39.3271 57.6081 42.0317 57.1169 44.5615 56.1118C47.0913 55.1067 49.3955 53.6077 51.3396 51.7024C53.2838 49.7971 54.829 47.5236 55.885 45.0146C56.941 42.5057 57.4866 39.8114 57.49 37.0893ZM11.988 36.7599L12.386 34.5573L9.20198 33.9397C10.0803 33.5897 10.7528 33.3289 11.4184 33.0544C11.5929 33.0092 11.7506 32.9143 11.8724 32.7814C11.9942 32.6484 12.0748 32.483 12.1046 32.3052C12.1344 32.1273 12.1119 31.9447 12.0401 31.7793C11.9683 31.6139 11.85 31.4729 11.6998 31.3733C11.1714 30.8861 10.6293 30.4057 10.0941 29.9185L10.1902 29.7881L13.1545 30.241L13.5457 28.0452L6.08668 26.7483C5.48282 28.4432 5.48968 28.4843 6.68367 29.5548C7.49339 30.241 8.32365 30.9752 9.20885 31.7506C8.10406 32.1829 7.09534 32.6633 6.03173 32.9652C5.59636 33.0415 5.2037 33.2737 4.92712 33.6185C4.65054 33.9633 4.50901 34.397 4.52899 34.8385C4.52899 35.2434 4.52894 35.4561 4.99556 35.5247C5.79841 35.6345 6.58753 35.813 7.38353 35.9503L11.988 36.7599ZM43.7934 12.9968C45.008 13.5457 46.1402 14.0673 47.2793 14.5751C47.684 14.762 48.1014 14.9201 48.5282 15.0485C48.9423 15.228 49.4015 15.2755 49.8435 15.1846C50.2855 15.0938 50.6889 14.8689 50.9986 14.5407C51.3319 14.2019 51.5309 13.7536 51.5587 13.2791C51.5865 12.8045 51.4411 12.336 51.1495 11.9606C53.0091 10.8215 53.1327 9.21584 51.3691 8.15222C49.9417 7.35538 48.4735 6.63386 46.9706 5.99067L43.7934 12.9968ZM21.238 17.9306L19.1794 15.0416L22.528 15.9269C23.7564 16.2494 24.3121 16.0503 25.1562 14.9524L20.7988 8.85208L18.8774 10.2245L20.936 13.1135C19.8871 12.9029 18.8533 12.6233 17.8413 12.2763C16.5993 11.7479 15.7826 12.2762 14.9386 13.1408L19.3303 19.3167L21.238 17.9306ZM9.00304 21.7939C9.00833 22.8365 9.4225 23.8353 10.1565 24.5757C10.8905 25.3161 11.8856 25.7389 12.9281 25.7532C15.1377 25.7532 17.2168 23.5299 17.21 21.2106C17.1837 20.1823 16.7615 19.2038 16.0316 18.479C15.3017 17.7542 14.3203 17.339 13.2918 17.3199C12.1411 17.3776 11.0559 17.8731 10.2586 18.7048C9.46127 19.5366 9.0121 20.6418 9.00304 21.7939ZM68.2497 28.1275L60.7015 29.5L61.1338 31.7575C62.0258 31.9222 62.8973 31.0713 63.6796 32.032C62.9934 32.78 62.1288 33.4044 61.8268 34.2622C61.5249 35.1199 61.9023 36.0806 61.9778 37.007H62.2454L65.6764 33.2535L69.5604 35.6963C69.4711 35.0993 69.3682 34.6944 69.3545 34.3239C69.3603 33.9221 69.2484 33.5274 69.0326 33.1884C68.8167 32.8494 68.5064 32.581 68.1399 32.4163C67.4078 31.9956 66.6978 31.5375 66.0127 31.0439L68.6683 30.4949L68.2497 28.1275ZM29.788 5.32508L24.0308 7.28073L26.4943 14.527L32.3819 12.5233L31.6957 10.7049L28.1069 11.8851L27.8324 10.993L30.8654 9.91573L30.2341 8.15222L27.1943 9.16092L26.9335 8.35803L30.3645 7.16405L29.788 5.32508ZM57.0646 22.0409C57.2087 21.7184 57.3253 21.5057 57.4077 21.2793C58.1693 19.152 58.9036 17.0248 59.6928 14.9113C59.7859 14.7044 59.8094 14.4729 59.7599 14.2515C59.7105 14.03 59.5906 13.8306 59.4183 13.683C58.6497 12.7772 57.8743 12.5507 56.8587 13.2232C56.5165 13.4084 56.1582 13.5623 55.7882 13.683L50.628 15.8308C51.1838 16.3935 51.623 16.8807 52.1239 17.313C52.2175 17.3767 52.3253 17.4164 52.4378 17.4283C52.5504 17.4403 52.6641 17.4242 52.7689 17.3816C53.5786 16.8189 54.1413 17.1414 54.6697 17.8002C54.8116 17.9718 54.9755 18.1241 55.157 18.2531C55.2882 18.3166 55.4038 18.4081 55.4957 18.5211C55.5877 18.6342 55.6536 18.7661 55.689 18.9075C55.7243 19.0489 55.7282 19.1963 55.7003 19.3394C55.6724 19.4824 55.6134 19.6176 55.5275 19.7353C55.4631 19.8593 55.4296 19.997 55.4296 20.1367C55.4296 20.2764 55.4631 20.4141 55.5275 20.5381C55.9666 21.0596 56.4882 21.5057 57.0646 22.0409ZM65.9852 25.9111C66.3674 25.0957 66.4797 24.1796 66.3057 23.2961C66.1317 22.4125 65.6805 21.6075 65.0177 20.9979C64.4523 20.4102 63.7134 20.0191 62.9094 19.882C62.1055 19.7449 61.2788 19.8691 60.5505 20.2362C59.8107 20.577 59.1959 21.1405 58.7923 21.848C58.3887 22.5556 58.2165 23.3716 58.2998 24.1819C58.3888 25.1107 58.7683 25.9878 59.3842 26.6887C60.0001 27.3896 60.8211 27.8786 61.7308 28.0863L62.2523 26.1582C60.7564 25.472 60.1937 24.6553 60.5299 23.6054C60.6977 23.1267 61.0363 22.7268 61.4808 22.4824C61.9253 22.238 62.4444 22.1663 62.9385 22.2811C63.9472 22.5144 64.3521 23.475 64.1531 25.2317L65.9852 25.9111ZM37.5284 12.338C37.5727 12.1469 37.5911 11.9508 37.5833 11.7548C37.2196 10.0599 37.8989 8.66682 38.7979 7.32186C39.0586 6.93073 39.2714 6.50533 39.4841 6.08675C39.6968 5.66817 39.9644 5.18776 40.2526 4.64566C39.7817 4.6703 39.31 4.6703 38.8391 4.64566C38.5407 4.58417 38.23 4.63586 37.9675 4.79057C37.705 4.94528 37.5094 5.19202 37.4186 5.48289C37.1373 6.12106 36.7324 6.71115 36.3413 7.41107C35.8198 6.60135 35.3944 5.88087 34.914 5.20839C34.7501 4.97678 34.5052 4.81512 34.2278 4.75548C33.5416 4.75548 32.9102 4.79664 32.0937 4.83782C32.821 5.9975 33.4112 7.06114 34.1523 8.04241C34.9319 9.0064 35.2972 10.2404 35.1679 11.4734C35.1629 11.774 35.1812 12.0745 35.2228 12.3723L37.5284 12.338Z" fill="#FF914C" stroke="black" stroke-miterlimit="10"/>
<path d="M70.8229 42.2563C68.9633 56.8381 55.6441 71.6464 36.5128 71.3307C17.0109 71.0082 4.76227 55.5481 3.25262 42.2907C3.52711 42.2907 3.80155 42.2907 4.06916 42.2907C7.39038 42.2907 10.7116 42.2907 14.0328 42.2907C14.6161 42.2907 14.8288 42.4691 15.0004 43.0318C17.7452 52.2474 23.921 57.9773 33.3563 59.6104C38.8764 60.5713 44.5565 59.4431 49.2905 56.4457C54.0244 53.4483 57.4732 48.7963 58.9653 43.3955C59.1986 42.5446 59.528 42.2701 60.42 42.2838C63.5766 42.3456 66.7263 42.2838 69.8828 42.2838L70.8229 42.2563ZM54.354 59.7545C53.0228 59.9329 51.8219 58.5193 50.4564 59.6859C51.369 60.9554 52.2337 62.1699 53.1189 63.4119L54.0589 62.7257L52.6385 60.6671C53.4894 60.8867 54.1344 61.0308 54.7589 61.223C55.3833 61.4151 56.1313 61.6896 56.5979 60.825L53.9972 57.1744L53.0571 57.8606L54.354 59.7545ZM44.5825 65.5666C44.7266 65.3402 44.7952 65.2235 44.8707 65.1206C45.0815 64.8725 45.1973 64.5575 45.1973 64.232C45.1973 63.9064 45.0815 63.5914 44.8707 63.3433C44.473 62.9092 43.927 62.6399 43.3405 62.5885C42.4501 62.6762 41.5701 62.8485 40.7124 63.1032C41.0692 64.6403 41.3986 66.0607 41.7417 67.5703L42.8533 67.2958L42.6886 65.9234C43.1484 66.0744 43.5807 66.0813 43.7728 66.3009C43.8833 66.4562 44.0249 66.5867 44.1886 66.6842C44.3523 66.7817 44.5345 66.8441 44.7237 66.8674C44.9128 66.8906 45.1047 66.8742 45.2872 66.8192C45.4696 66.7642 45.6386 66.6718 45.7834 66.5479L44.5825 65.5666ZM33.4043 63.0414C33.3497 63.1297 33.306 63.2241 33.274 63.3227C33.1436 63.9472 33.0338 64.5785 32.9102 65.2029C32.7044 66.2322 32.3476 66.6165 31.7231 66.493C31.0987 66.3694 30.886 65.8548 31.0369 64.8667C31.1604 64.1805 31.2702 63.4599 31.3869 62.7188L30.1929 62.4856C30.0351 63.5492 29.8292 64.5442 29.7675 65.5117C29.692 66.6577 30.3987 67.3302 31.6819 67.5017C31.9218 67.5582 32.1706 67.5661 32.4135 67.5249C32.6565 67.4837 32.8888 67.3942 33.0966 67.2618C33.3045 67.1294 33.4837 66.9568 33.6238 66.7541C33.7638 66.5513 33.8618 66.3225 33.9121 66.0813C34.1385 65.1686 34.2689 64.2354 34.4473 63.2678L33.4043 63.0414ZM12.8182 49.4546C11.4458 49.4546 10.1146 50.6486 10.1146 51.822C10.1109 52.0804 10.1591 52.3369 10.2565 52.5763C10.3539 52.8158 10.4985 53.0332 10.6816 53.2156C10.8646 53.3981 11.0825 53.5418 11.3223 53.6384C11.562 53.735 11.8188 53.7823 12.0772 53.7777C13.4496 53.7777 14.767 52.6043 14.767 51.4171C14.7783 51.1565 14.7362 50.8964 14.6433 50.6527C14.5504 50.409 14.4087 50.1868 14.2268 49.9998C14.045 49.8128 13.8268 49.665 13.5858 49.5653C13.3447 49.4657 13.0859 49.4163 12.8251 49.4203L12.8182 49.4546ZM59.2673 52.6866L60.523 50.6692L59.7132 50.2437L57.8193 53.215L61.6758 55.6853C62.3621 54.6423 62.9933 53.6267 63.6589 52.6111L62.8835 52.1239L61.5454 54.1413L60.7838 53.6404L61.8474 51.8906L61.1612 51.4515L60.0358 53.1189L59.2673 52.6866ZM17.7315 55.4314C17.7127 54.9266 17.5032 54.4478 17.1454 54.0912C16.7876 53.7347 16.308 53.5271 15.8032 53.5101C15.1336 53.5661 14.5049 53.8548 14.026 54.3261C13.5472 54.7974 13.2486 55.4216 13.1819 56.0902C13.181 56.3412 13.23 56.59 13.326 56.8219C13.4221 57.0538 13.5633 57.2643 13.7415 57.4412C13.9196 57.618 14.1312 57.7577 14.3638 57.8521C14.5964 57.9465 14.8455 57.9937 15.0965 57.991C15.7754 57.9427 16.4147 57.6533 16.8991 57.1752C17.3835 56.6971 17.6811 56.0616 17.7383 55.3834L17.7315 55.4314ZM61.8268 45.8933L60.3514 49.1458L64.5373 51.0398L66.0332 47.7048L65.2029 47.3616L64.1599 49.5438L63.357 49.1184L64.1462 47.2725L63.3776 46.9088L62.4993 48.7753L61.7239 48.391L62.6502 46.2843L61.8268 45.8933ZM27.5167 63.9609C26.9197 65.1755 26.6452 65.3333 25.9453 64.8187C25.7921 64.7103 25.6628 64.5716 25.5653 64.4113C25.4679 64.251 25.4043 64.0724 25.3786 63.8865C25.3529 63.7007 25.3655 63.5115 25.4158 63.3308C25.4661 63.15 25.5528 62.9814 25.6708 62.8355C25.7808 62.668 25.9286 62.5286 26.1023 62.4284C26.2759 62.3283 26.4706 62.2702 26.6708 62.2589C26.8709 62.2476 27.0708 62.2832 27.2547 62.3631C27.4385 62.443 27.6011 62.5648 27.7294 62.7188C28.2235 63.2815 28.594 63.2404 29.1018 62.8355C28.8763 62.3601 28.5207 61.9582 28.0763 61.6765C27.6318 61.3947 27.1166 61.2446 26.5904 61.2436C26.1687 61.1996 25.7436 61.2825 25.3695 61.4818C24.9954 61.6811 24.6893 61.9877 24.4905 62.3621C24.2509 62.7269 24.1231 63.1538 24.1231 63.5903C24.1231 64.0268 24.2509 64.4538 24.4905 64.8187C24.7913 65.2782 25.2174 65.6419 25.7184 65.8669C26.2195 66.0919 26.7744 66.1686 27.3177 66.0881C28.2715 66.0126 28.0039 65.0177 28.3951 64.503C28.3951 64.503 28.3951 64.3932 28.3951 64.2903L27.5167 63.9609ZM35.0168 67.838C35.7442 67.9478 36.252 67.9958 36.5128 67.2135C36.6706 66.74 38.5714 66.7812 38.7292 67.2547C39.0449 68.0507 39.5733 67.8311 40.232 67.7144C39.5458 66.2871 38.935 64.9284 38.2626 63.5972C38.1683 63.4759 38.0454 63.38 37.9048 63.318C37.7642 63.2561 37.6105 63.23 37.4573 63.2423C37.3042 63.2545 37.1565 63.3047 37.0275 63.3882C36.8986 63.4717 36.7924 63.586 36.7186 63.7208C36.1697 65.0108 35.6276 66.3832 35.0512 67.7899L35.0168 67.838ZM46.9636 66.2871C47.7047 66.0882 48.2606 65.9509 48.0959 65.1618C48.0875 65.1073 48.0931 65.0516 48.1123 64.9999C48.1315 64.9483 48.1637 64.9024 48.2057 64.8667C48.7029 64.5717 49.2355 64.3411 49.7908 64.1805C50.0447 64.1187 50.3878 64.4825 50.7446 64.6815L51.8014 64.1873C50.5868 63.0963 49.4752 62.0876 48.3704 61.0994C48.2416 61.0288 48.0981 60.9893 47.9513 60.9841C47.8045 60.9789 47.6586 61.0081 47.5252 61.0695C47.3918 61.1309 47.2746 61.2227 47.183 61.3375C47.0915 61.4523 47.0281 61.587 46.998 61.7308C46.9843 63.1581 46.998 64.6608 46.998 66.2734L46.9636 66.2871ZM58.0115 54.3541L57.3253 53.7846L57.4557 54.0041L54.4501 56.6254L55.1775 57.3116L56.193 56.3372L58.835 58.8213L59.6172 57.936L57.1195 55.3765L58.0115 54.3541ZM8.68729 49.4203L12.9418 47.7322L12.1732 45.7972L11.3772 46.1403L11.5831 46.9431L8.24811 48.3155L8.68729 49.4203ZM22.7133 59.13C22.3016 58.9173 22.027 58.6703 21.8829 58.7183C20.1949 59.2055 18.5206 59.7408 16.8462 60.2623V60.5436C17.107 60.5985 17.4021 60.7701 17.6216 60.7083C19.2891 60.1868 20.8948 59.6653 22.7476 59.082L22.7133 59.13ZM20.243 62.8493C20.5839 62.8167 20.9003 62.6579 21.1301 62.404C21.36 62.15 21.4865 61.8193 21.485 61.4769C21.4699 61.1821 21.3456 60.9035 21.1363 60.6954C20.9269 60.4874 20.6476 60.3647 20.3527 60.3515C20.0088 60.3874 19.6892 60.5458 19.4524 60.7978C19.2156 61.0497 19.0773 61.3784 19.0627 61.7239C19.0821 62.0274 19.2207 62.3108 19.4481 62.5126C19.6756 62.7144 19.9736 62.8181 20.2772 62.8012L20.243 62.8493ZM20.243 57.7234C20.2451 57.5769 20.217 57.4315 20.1606 57.2963C20.1043 57.1611 20.0208 57.0389 19.9153 56.9373C19.8098 56.8357 19.6845 56.7567 19.5473 56.7055C19.4101 56.6542 19.2639 56.6316 19.1176 56.6391C18.9448 56.6452 18.775 56.6858 18.6181 56.7585C18.4613 56.8312 18.3205 56.9345 18.2042 57.0624C18.0878 57.1902 17.9982 57.3401 17.9405 57.5031C17.8829 57.6661 17.8585 57.8389 17.8687 58.0115C17.8747 58.1564 17.9098 58.2986 17.9718 58.4297C18.0338 58.5608 18.1214 58.6781 18.2295 58.7747C18.3377 58.8713 18.4641 58.9453 18.6013 58.9921C18.7385 59.039 18.8838 59.0579 19.0284 59.0477C19.1997 59.0389 19.3675 58.9965 19.5224 58.9227C19.6772 58.8489 19.816 58.7453 19.9307 58.6178C20.0455 58.4903 20.1339 58.3414 20.1911 58.1797C20.2482 58.018 20.2728 57.8466 20.2635 57.6753L20.243 57.7234Z" fill="white"/>
<path d="M57.4899 37.0892C57.4865 39.8113 56.9409 42.5056 55.8849 45.0145C54.8289 47.5235 53.2838 49.797 51.3396 51.7023C49.3954 53.6076 47.0912 55.1066 44.5614 56.1117C42.0316 57.1168 39.327 57.608 36.6053 57.5565C33.8837 57.505 31.1996 56.9119 28.7097 55.8117C26.2197 54.7116 23.9738 53.1266 22.1031 51.1491C20.2324 49.1716 18.7744 46.8413 17.8141 44.2942C16.8538 41.747 16.4104 39.0341 16.51 36.3138C16.7982 25.4101 26.1169 16.414 37.3157 16.5444C42.7074 16.6185 47.8518 18.8185 51.6298 22.666C55.4079 26.5134 57.514 31.697 57.4899 37.0892ZM50.5731 33.8024H50.4838C50.4838 31.7438 50.4838 29.6851 50.4838 27.6265C50.5206 27.3967 50.4707 27.1614 50.344 26.9661C50.2172 26.7709 50.0225 26.6297 49.7976 26.5698C45.7902 24.9641 41.7965 23.3103 37.7754 21.7251C37.2673 21.5434 36.712 21.5434 36.2039 21.7251C32.2102 23.2965 28.2441 24.9297 24.2572 26.5286C24.0323 26.5836 23.8348 26.7181 23.7011 26.9073C23.5675 27.0964 23.5066 27.3274 23.5298 27.5579C23.5298 31.2702 23.5298 34.9826 23.5298 38.695C23.4968 41.4751 24.2613 44.2065 25.7326 46.5657C28.299 50.6349 32.1142 53.016 36.5951 54.4708C36.9415 54.5627 37.3087 54.536 37.6382 54.3952C39.5916 53.5877 41.4877 52.6477 43.3131 51.5818C47.1489 49.0703 49.6673 45.5501 50.2368 40.9183C50.5525 38.5577 50.4838 36.1698 50.5731 33.8024Z" fill="white"/>
<path d="M11.988 36.7668L7.3835 35.957C6.58751 35.8198 5.79839 35.6414 4.99554 35.5316C4.53578 35.463 4.50152 35.2502 4.52897 34.8454C4.50899 34.4038 4.65052 33.9701 4.9271 33.6254C5.20368 33.2806 5.59633 33.0483 6.03171 32.9721C7.09532 32.6701 8.09032 32.1898 9.20882 31.7575C8.32362 30.9821 7.49337 30.2822 6.68365 29.5617C5.48966 28.4912 5.4828 28.45 6.08666 26.7551L13.5457 28.0521L13.1545 30.2479L10.1901 29.795L10.0941 29.9254C10.6293 30.4126 11.1714 30.8929 11.6997 31.3801C11.85 31.4797 11.9682 31.6208 12.0401 31.7861C12.1119 31.9515 12.1343 32.1342 12.1046 32.312C12.0748 32.4898 11.9941 32.6552 11.8724 32.7882C11.7506 32.9212 11.5929 33.016 11.4184 33.0613C10.7322 33.3358 10.046 33.5965 9.20196 33.9465L12.3859 34.5641L11.988 36.7668Z" fill="white"/>
<path d="M43.7934 12.9966L46.9705 5.99048C48.4734 6.63367 49.9417 7.35519 51.3691 8.15203C53.1326 9.24309 53.0091 10.8213 51.1495 11.9604C51.441 12.3358 51.5864 12.8043 51.5587 13.2789C51.5309 13.7534 51.3319 14.2017 50.9985 14.5405C50.6888 14.8687 50.2855 15.0936 49.8435 15.1844C49.4015 15.2753 48.9422 15.2278 48.5282 15.0483C48.1013 14.9199 47.684 14.7618 47.2793 14.5749C46.1402 14.0671 45.008 13.5455 43.7934 12.9966ZM46.7441 12.3104C47.3342 12.5574 47.8763 12.8319 48.4527 12.9966C48.6586 13.0583 48.9399 12.873 49.1801 12.8044C49.084 12.5505 49.0497 12.18 48.8644 12.0633C48.3298 11.7608 47.7775 11.4904 47.2107 11.2536L46.7441 12.3104ZM47.9381 9.66164C48.4201 9.88334 48.915 10.0758 49.4202 10.238C49.5986 10.2861 49.9692 10.1557 50.0172 10.0185C50.0379 9.90548 50.03 9.78909 49.994 9.67999C49.958 9.57088 49.8952 9.47255 49.8114 9.39401C49.3484 9.13956 48.8719 8.91048 48.384 8.70781L47.9381 9.66164Z" fill="white"/>
<path d="M21.2379 17.9306L19.3303 19.303L14.9386 13.1271C15.7826 12.2557 16.5992 11.7547 17.8413 12.2625C18.8533 12.6095 19.887 12.8891 20.936 13.0997L18.8774 10.2108L20.7988 8.83838L25.1561 14.9386C24.3121 16.0366 23.7837 16.2356 22.528 15.9131L19.1793 15.0278L21.2379 17.9306Z" fill="white"/>
<path d="M9.00299 21.7939C9.01205 20.6417 9.46122 19.5366 10.2585 18.7048C11.0559 17.873 12.141 17.3776 13.2918 17.3198C14.3202 17.3389 15.3016 17.7542 16.0315 18.479C16.7615 19.2038 17.1836 20.1822 17.2099 21.2105C17.2099 23.5299 15.1513 25.7395 12.928 25.7532C11.8856 25.7388 10.8904 25.316 10.1564 24.5756C9.42245 23.8352 9.00828 22.8364 9.00299 21.7939ZM11.2057 21.437C11.2349 21.9543 11.4581 22.4416 11.8308 22.8016C12.2035 23.1615 12.6982 23.3677 13.2162 23.379C13.6807 23.3651 14.1223 23.1739 14.4503 22.8447C14.7783 22.5155 14.9677 22.0731 14.9798 21.6086C14.9466 21.0855 14.7151 20.5948 14.3326 20.2365C13.9501 19.8782 13.4453 19.6793 12.9212 19.6803C12.4612 19.6893 12.0232 19.8784 11.7011 20.2069C11.3791 20.5353 11.1987 20.977 11.1988 21.437H11.2057Z" fill="white"/>
<path d="M68.2496 28.1274L68.6819 30.4673L66.0263 31.0163C66.7115 31.5099 67.4215 31.968 68.1536 32.3887C68.5201 32.5534 68.8304 32.8219 69.0462 33.1609C69.2621 33.4999 69.374 33.8946 69.3681 34.2964C69.3681 34.7012 69.4848 35.1061 69.574 35.6688L65.6901 33.2259L62.2591 36.9795H61.9777C61.9023 36.0531 61.5455 35.0306 61.8268 34.2347C62.1081 33.4387 63.0276 32.7525 63.6795 32.0045C62.8972 31.0713 62.0258 31.8947 61.1337 31.73L60.7014 29.4724L68.2496 28.1274Z" fill="white"/>
<path d="M29.788 5.32495L30.4056 7.16392L26.9746 8.35791L27.2354 9.1608L30.2753 8.1521L30.9065 9.9156L27.8736 10.9929L28.148 11.885L31.7369 10.7047L32.4231 12.5232L26.5354 14.5269L24.0308 7.26L29.788 5.32495Z" fill="white"/>
<path d="M57.0645 22.0408C56.5018 21.5055 55.9666 21.0595 55.5206 20.5379C55.4562 20.4139 55.4226 20.2763 55.4226 20.1365C55.4226 19.9968 55.4562 19.8592 55.5206 19.7351C55.6065 19.6174 55.6655 19.4822 55.6934 19.3392C55.7213 19.1961 55.7174 19.0487 55.6821 18.9073C55.6467 18.7659 55.5807 18.6341 55.4888 18.521C55.3969 18.4079 55.2813 18.3164 55.1501 18.2529C54.9686 18.1239 54.8047 17.9716 54.6628 17.8C54.1344 17.1138 53.5717 16.8187 52.762 17.3814C52.6572 17.4241 52.5434 17.4401 52.4309 17.4282C52.3183 17.4162 52.2105 17.3766 52.117 17.3128C51.6161 16.8805 51.1769 16.3933 50.6211 15.8306L55.7813 13.6828C56.1513 13.5621 56.5096 13.4082 56.8518 13.223C57.8674 12.5368 58.6428 12.777 59.4113 13.6828C59.5837 13.8304 59.7035 14.0299 59.753 14.2513C59.8025 14.4727 59.779 14.7042 59.6858 14.9111C58.8967 17.0246 58.1624 19.1519 57.4007 21.2791C57.3253 21.5055 57.2086 21.7183 57.0645 22.0408ZM55.6098 16.1188L56.5842 17.0177L57.2223 15.3777L55.6098 16.1188Z" fill="white"/>
<path d="M65.9989 25.9111L64.2011 25.2249C64.4001 23.4682 63.9952 22.4801 62.9865 22.2742C62.4924 22.1594 61.9733 22.2311 61.5288 22.4755C61.0843 22.7199 60.7457 23.1199 60.5779 23.5986C60.2554 24.6485 60.8043 25.4925 62.3003 26.1512L61.7787 28.0794C60.8691 27.8717 60.0481 27.3827 59.4322 26.6818C58.8163 25.9809 58.4368 25.1038 58.3477 24.175C58.2645 23.3647 58.4367 22.5486 58.8403 21.8411C59.2439 21.1336 59.8586 20.5701 60.5985 20.2293C61.3267 19.8622 62.1534 19.738 62.9574 19.8751C63.7614 20.0122 64.5003 20.4033 65.0657 20.991C65.7243 21.6052 66.1699 22.4134 66.3377 23.2982C66.5056 24.183 66.3868 25.0984 65.9989 25.9111Z" fill="white"/>
<path d="M37.5421 12.3379H35.2159C35.1743 12.0401 35.156 11.7395 35.161 11.4389C35.2903 10.2058 34.925 8.97188 34.1454 8.00788C33.4592 7.02661 32.8347 5.94933 32.0868 4.80337C32.9033 4.7622 33.5622 4.68672 34.2209 4.72103C34.4983 4.78068 34.7432 4.94225 34.9071 5.17386C35.3875 5.86007 35.8129 6.54633 36.3344 7.37663C36.7324 6.69043 37.1304 6.08653 37.4117 5.44836C37.5025 5.1575 37.6981 4.91075 37.9606 4.75605C38.2231 4.60134 38.5338 4.54972 38.8322 4.61122C39.303 4.63586 39.7748 4.63586 40.2457 4.61122C39.9575 5.15332 39.7242 5.60619 39.4772 6.05222C39.2301 6.49825 39.038 6.89629 38.791 7.28742C37.892 8.65982 37.2127 10.0322 37.5764 11.7203C37.5941 11.9267 37.5826 12.1346 37.5421 12.3379Z" fill="white"/>
<path d="M54.3609 59.72L53.064 57.8056L54.0041 57.1194L56.6048 60.7699C56.1039 61.6346 55.4451 61.367 54.7658 61.168C54.0864 60.969 53.4963 60.8317 52.6454 60.6121L54.0658 62.6707L53.1257 63.3569C52.2405 62.1149 51.3759 60.9003 50.4633 59.6308C51.8288 58.4849 53.0571 59.8984 54.3609 59.72Z" fill="black"/>
<path d="M44.5894 65.5322L45.8177 66.4792C45.6729 66.6031 45.5039 66.6954 45.3214 66.7504C45.139 66.8054 44.9471 66.8218 44.758 66.7986C44.5688 66.7753 44.3867 66.713 44.2229 66.6155C44.0592 66.5179 43.9176 66.3873 43.8071 66.2321C43.615 66.0125 43.1826 66.0057 42.7229 65.8547L42.8877 67.2271L41.776 67.5016C41.426 65.992 41.0898 64.5715 40.7467 63.0344C41.6044 62.7798 42.4844 62.6075 43.3748 62.5198C43.9614 62.5711 44.5073 62.8404 44.905 63.2746C45.1158 63.5227 45.2316 63.8377 45.2316 64.1632C45.2316 64.4888 45.1158 64.8037 44.905 65.0518C44.8227 65.1891 44.7335 65.3058 44.5894 65.5322ZM42.5308 65.3126C43.0118 65.0505 43.4708 64.75 43.9032 64.4137C43.9924 64.3314 43.8277 63.7275 43.7042 63.7275C43.1922 63.639 42.6728 63.5999 42.1534 63.6108L42.5308 65.3126Z" fill="black"/>
<path d="M33.4112 63.007L34.4817 63.2334C34.3033 64.2009 34.1729 65.1342 33.9465 66.0469C33.8962 66.2881 33.7982 66.5168 33.6581 66.7196C33.5181 66.9223 33.3388 67.0951 33.1309 67.2274C32.9231 67.3598 32.6909 67.4493 32.4479 67.4905C32.2049 67.5317 31.9562 67.5237 31.7163 67.4673C30.4331 67.2957 29.7263 66.6232 29.8018 65.4773C29.8635 64.4891 30.0694 63.5148 30.2272 62.4512L31.4212 62.6845C31.3046 63.4256 31.1948 64.1323 31.0712 64.8323C30.8928 65.8204 31.0712 66.3282 31.7574 66.4586C32.4436 66.5889 32.7387 66.1978 32.9446 65.1685C33.0681 64.5441 33.1779 63.9128 33.3083 63.2883C33.3316 63.1909 33.3661 63.0964 33.4112 63.007Z" fill="black"/>
<path d="M12.8251 49.4202C13.0835 49.4155 13.3402 49.4632 13.5797 49.5604C13.8192 49.6575 14.0365 49.8021 14.2186 49.9855C14.4007 50.1689 14.5437 50.3871 14.6391 50.6273C14.7346 50.8674 14.7804 51.1245 14.7739 51.3829C14.7739 52.57 13.4496 53.7296 12.0841 53.7433C11.8256 53.748 11.5689 53.7006 11.3292 53.604C11.0894 53.5075 10.8715 53.3637 10.6885 53.1813C10.5054 52.9988 10.3608 52.7815 10.2634 52.5421C10.166 52.3027 10.1178 52.0461 10.1215 51.7877C10.1215 50.6143 11.4802 49.4202 12.8251 49.4202ZM11.7066 52.6111C12.6536 52.6111 13.8339 51.7053 13.7035 51.2387C13.6337 51.0815 13.5266 50.9437 13.3915 50.8373C13.2563 50.7309 13.0973 50.659 12.9281 50.628C12.187 50.5868 11.0753 51.5132 11.1988 52.0004C11.2675 52.268 11.59 52.4807 11.7066 52.6111Z" fill="black"/>
<path d="M59.2742 52.6524L60.0083 53.0847L61.1337 51.4172L61.8199 51.8564L60.7563 53.6062L61.518 54.1071L62.8561 52.0897L63.6315 52.5769C62.9453 53.6131 62.3277 54.6355 61.6484 55.6511L57.7919 53.1808L59.6859 50.2095L60.4955 50.6349L59.2742 52.6524Z" fill="black"/>
<path d="M17.7383 55.3833C17.6706 56.0518 17.3692 56.675 16.8872 57.1432C16.4052 57.6114 15.7735 57.8946 15.1033 57.9428C14.8523 57.9456 14.6033 57.8983 14.3707 57.8039C14.1381 57.7096 13.9265 57.57 13.7484 57.3931C13.5702 57.2162 13.429 57.0057 13.3329 56.7737C13.2368 56.5418 13.1879 56.2931 13.1888 56.042C13.2554 55.3735 13.5541 54.7494 14.0329 54.278C14.5118 53.8067 15.1405 53.5179 15.8101 53.4619C16.3149 53.4789 16.7945 53.6866 17.1523 54.0432C17.5101 54.3997 17.7195 54.8786 17.7383 55.3833ZM15.9542 54.5942C15.5801 54.6949 15.2334 54.8786 14.94 55.1316C14.6466 55.3846 14.4139 55.7005 14.2593 56.0558C14.1701 56.5498 14.623 57.0234 15.0621 56.7763C15.6504 56.4427 16.166 55.9947 16.5786 55.4588C16.8806 55.0676 16.4758 54.6079 15.9542 54.6079V54.5942Z" fill="black"/>
<path d="M61.8337 45.8452L62.6571 46.2364L61.7307 48.343L62.5062 48.7273L63.3845 46.8608L64.1531 47.2245L63.3639 49.0704L64.1667 49.4959L65.2097 47.3137L66.0401 47.6568L64.5442 50.9917L60.3583 49.0978L61.8337 45.8452Z" fill="black"/>
<path d="M27.551 63.913L28.4018 64.2423C28.4018 64.3453 28.443 64.4207 28.4018 64.455C28.0244 64.9697 28.2784 65.9647 27.3245 66.0402C26.7813 66.1207 26.2263 66.0439 25.7253 65.819C25.2243 65.594 24.7982 65.2303 24.4974 64.7707C24.2577 64.4059 24.13 63.9789 24.13 63.5424C24.13 63.1059 24.2577 62.6789 24.4974 62.3141C24.6961 61.9396 25.0021 61.6332 25.3763 61.4339C25.7504 61.2346 26.1755 61.1516 26.5971 61.1956C27.1234 61.1966 27.6386 61.3467 28.083 61.6285C28.5275 61.9102 28.8831 62.3121 29.1087 62.7876C28.5803 63.1925 28.2097 63.2336 27.7363 62.6709C27.608 62.5169 27.4454 62.3951 27.2616 62.3152C27.0777 62.2353 26.8778 62.1995 26.6776 62.2109C26.4775 62.2222 26.2828 62.2803 26.1091 62.3804C25.9355 62.4806 25.7877 62.6201 25.6776 62.7876C25.5597 62.9335 25.4729 63.1021 25.4227 63.2828C25.3724 63.4636 25.3597 63.6527 25.3855 63.8386C25.4112 64.0245 25.4747 64.2031 25.5722 64.3634C25.6697 64.5237 25.799 64.6624 25.9521 64.7707C26.6795 65.2648 26.9814 65.1276 27.551 63.913Z" fill="black"/>
<path d="M35.0512 67.7898C35.6276 66.4174 36.1697 65.045 36.753 63.6726C36.8268 63.5378 36.9329 63.4236 37.0618 63.34C37.1908 63.2565 37.3385 63.2064 37.4916 63.1941C37.6448 63.1819 37.7985 63.2079 37.9391 63.2698C38.0797 63.3318 38.2027 63.4278 38.2969 63.5491C38.9831 64.9215 39.587 66.2459 40.2663 67.6663C39.5801 67.783 39.0792 68.0025 38.7636 67.2065C38.5783 66.7331 36.7049 66.6919 36.5471 67.1654C36.2863 67.9477 35.7786 67.8996 35.0512 67.7898ZM37.6656 64.6195H37.4598L36.9863 65.9919H38.2489L37.6656 64.6195Z" fill="black"/>
<path d="M46.998 66.2734C46.998 64.6952 46.998 63.1923 46.998 61.6896C47.0281 61.5458 47.0915 61.4112 47.183 61.2964C47.2746 61.1815 47.3918 61.0898 47.5252 61.0284C47.6586 60.967 47.8045 60.9378 47.9513 60.943C48.0981 60.9482 48.2416 60.9877 48.3704 61.0583C49.5026 62.0464 50.6143 63.0552 51.8014 64.1462L50.7446 64.6403C50.3878 64.4413 50.0584 64.0776 49.7908 64.1394C49.2355 64.3 48.7029 64.5306 48.2057 64.8256C48.1637 64.8613 48.1315 64.9071 48.1123 64.9587C48.0931 65.0104 48.0875 65.0661 48.0959 65.1206C48.2949 65.9028 47.7391 66.0401 46.998 66.2734ZM48.1028 63.8649L49.2899 63.3296L48.1028 62.2454V63.8649Z" fill="black"/>
<path d="M58.0458 54.3061L57.1537 55.3354L59.6515 57.895L58.8692 58.7801L56.2274 56.2961L55.2118 57.2705L54.4844 56.5843L57.4899 53.963L57.3596 53.7434L58.0458 54.3061Z" fill="black"/>
<path d="M8.72165 49.3722L8.28247 48.2468L11.6174 46.8744L11.4116 46.0716L12.2075 45.7285L12.9761 47.6636L8.72165 49.3722Z" fill="black"/>
<path d="M22.7476 59.0821C20.8948 59.6653 19.3166 60.1868 17.6629 60.6603C17.4433 60.722 17.1482 60.5505 16.8875 60.4956V60.2143C18.5618 59.6928 20.2361 59.1576 21.9241 58.6704C22.082 58.6223 22.3358 58.8693 22.7476 59.0821Z" fill="black"/>
<path d="M20.2773 62.8012C19.9817 62.8091 19.6943 62.7032 19.4746 62.5053C19.255 62.3073 19.1198 62.0325 19.097 61.7376C19.1116 61.3922 19.2499 61.0634 19.4868 60.8114C19.7236 60.5595 20.0432 60.4012 20.3871 60.3652C20.6737 60.3845 20.9437 60.5071 21.1468 60.7103C21.35 60.9134 21.4726 61.1833 21.4919 61.47C21.4841 61.8011 21.3569 62.1182 21.1337 62.3629C20.9105 62.6075 20.6063 62.7632 20.2773 62.8012ZM21.0733 61.4288C20.7919 61.2229 20.5312 60.9896 20.4969 61.0171C20.2226 61.2536 19.9762 61.5206 19.7626 61.8131C19.8575 61.9616 19.9784 62.0918 20.1194 62.1974C20.4521 61.9478 20.7706 61.6797 21.0733 61.3945V61.4288Z" fill="black"/>
<path d="M20.2635 57.6752C20.2696 58.0096 20.1469 58.3336 19.9208 58.5801C19.6948 58.8266 19.3826 58.9768 19.0489 58.9996C18.9043 59.0098 18.7591 58.9909 18.6219 58.944C18.4847 58.8971 18.3583 58.8232 18.2501 58.7266C18.142 58.63 18.0544 58.5127 17.9924 58.3816C17.9304 58.2505 17.8953 58.1083 17.8893 57.9634C17.8791 57.7908 17.9035 57.618 17.9611 57.455C18.0188 57.292 18.1084 57.1421 18.2247 57.0142C18.3411 56.8863 18.4819 56.7831 18.6387 56.7104C18.7956 56.6377 18.9653 56.5971 19.1381 56.591C19.2844 56.5835 19.4307 56.6061 19.5679 56.6574C19.7051 56.7086 19.8304 56.7875 19.9359 56.8891C20.0414 56.9908 20.1249 57.113 20.1812 57.2482C20.2376 57.3834 20.2656 57.5287 20.2635 57.6752ZM19.8107 57.6752C19.6467 57.5079 19.4675 57.3564 19.2754 57.2223C18.9975 57.452 18.7486 57.7147 18.5343 58.0045C18.5343 58.0526 18.7539 58.2996 18.8706 58.4575L19.8107 57.6752Z" fill="black"/>
<path d="M50.5731 33.8023C50.4838 36.1697 50.5731 38.5577 50.2643 40.9045C49.6947 45.5364 47.1763 49.0565 43.3405 51.568C41.5151 52.6339 39.619 53.574 37.6656 54.3815C37.336 54.5224 36.969 54.5489 36.6226 54.457C32.1417 53.0023 28.3264 50.6211 25.76 46.5519C24.2887 44.1928 23.5243 41.4614 23.5573 38.6812C23.5573 34.9689 23.5573 31.2565 23.5573 27.5442C23.5341 27.3138 23.5949 27.0826 23.7286 26.8935C23.8622 26.7044 24.0597 26.57 24.2846 26.5149C28.2715 24.916 32.2377 23.2829 36.2314 21.7115C36.7395 21.5298 37.2948 21.5298 37.8028 21.7115C41.824 23.2966 45.8177 24.9503 49.8251 26.556C50.05 26.616 50.2447 26.7572 50.3714 26.9524C50.4982 27.1476 50.548 27.383 50.5113 27.6128C50.5113 29.6714 50.5113 31.73 50.5113 33.7886L50.5731 33.8023ZM35.1815 40.5752C33.9944 39.5939 32.9102 38.6743 31.7986 37.7891C31.4027 37.4777 30.9022 37.3304 30.4007 37.3777C29.8992 37.425 29.4351 37.6633 29.1044 38.0434C28.7738 38.4234 28.602 38.9159 28.6245 39.4191C28.647 39.9223 28.8621 40.3977 29.2253 40.7467C30.8928 42.1809 32.5945 43.5944 34.3169 44.9599C34.5232 45.1421 34.7669 45.2772 35.0307 45.3557C35.2946 45.4342 35.5724 45.4542 35.8448 45.4143C36.1171 45.3745 36.3775 45.2758 36.6079 45.125C36.8382 44.9742 37.0329 44.775 37.1784 44.5413C37.7136 43.8551 38.2283 43.0935 38.7567 42.373C40.797 39.5779 42.8349 36.785 44.8707 33.9944C45.6049 32.9857 45.6393 32.0868 45.0011 31.3114C44.1159 30.2478 42.6337 30.3713 41.7348 31.5996C39.5595 34.5708 37.398 37.5421 35.2159 40.5752H35.1815Z" fill="#FF914C" stroke="black" stroke-miterlimit="10"/>
<path d="M46.7441 12.3243L47.2107 11.2812C47.7775 11.5181 48.3298 11.7885 48.8645 12.091C49.0497 12.2077 49.084 12.5782 49.1801 12.8321C48.9399 12.9007 48.6586 13.086 48.4527 13.0242C47.8763 12.8458 47.3342 12.5713 46.7441 12.3243Z" fill="#FF914C"/>
<path d="M47.9381 9.6754L48.384 8.69409C48.8719 8.89676 49.3484 9.12584 49.8114 9.38029C49.8952 9.45883 49.958 9.55717 49.994 9.66627C50.03 9.77537 50.0379 9.89176 50.0172 10.0048C49.9692 10.142 49.5986 10.2723 49.4202 10.2243C48.9156 10.071 48.4208 9.88778 47.9381 9.6754Z" fill="#FF914C"/>
<path d="M11.1988 21.4369C11.1988 20.9722 11.3829 20.5264 11.7109 20.1972C12.0388 19.8679 12.484 19.682 12.9487 19.6802C13.4728 19.6791 13.9776 19.8781 14.3601 20.2364C14.7426 20.5947 14.9741 21.0854 15.0073 21.6084C14.9952 22.073 14.8057 22.5153 14.4777 22.8446C14.1498 23.1738 13.7082 23.3649 13.2437 23.3788C12.7197 23.3762 12.2165 23.1738 11.8365 22.813C11.4566 22.4522 11.2285 21.96 11.1988 21.4369Z" fill="#FF914C"/>
<path d="M55.6098 16.1188L57.2223 15.3777L56.5842 17.0177L55.6098 16.1188Z" fill="#FF914C"/>
<path d="M42.5171 65.3127L42.1259 63.5972C42.6454 63.5864 43.1647 63.6255 43.6767 63.7139C43.8002 63.7139 43.9649 64.3315 43.8757 64.4001C43.4482 64.7405 42.9938 65.0457 42.5171 65.3127Z" fill="white"/>
<path d="M11.7066 52.611C11.59 52.4806 11.2675 52.2679 11.1988 51.9934C11.0753 51.4925 12.187 50.5661 12.9281 50.621C13.0973 50.652 13.2563 50.7239 13.3915 50.8303C13.5266 50.9367 13.6337 51.0745 13.7035 51.2317C13.8339 51.7052 12.6536 52.5492 11.7066 52.611Z" fill="white"/>
<path d="M15.9542 54.6079C16.4758 54.6079 16.8806 55.0814 16.5786 55.4725C16.166 56.0084 15.6505 56.4564 15.0622 56.7901C14.623 57.0371 14.1701 56.5636 14.2593 56.0695C14.4139 55.7143 14.6466 55.3984 14.94 55.1453C15.2334 54.8923 15.5801 54.7086 15.9542 54.6079Z" fill="white"/>
<path d="M37.6656 64.6196L38.2489 65.992H36.9862L37.4598 64.6196H37.6656Z" fill="white"/>
<path d="M48.1028 63.8304V62.2109L49.2899 63.2952L48.1028 63.8304Z" fill="white"/>
<path d="M21.0733 61.3944C20.7695 61.6655 20.451 61.9198 20.1194 62.1561C19.9784 62.0504 19.8575 61.9202 19.7626 61.7718C19.9762 61.4793 20.2226 61.2123 20.4969 60.9758C20.4969 60.9758 20.8057 61.1885 21.0733 61.3944Z" fill="white"/>
<path d="M19.8107 57.6477L18.8706 58.4299C18.7539 58.2721 18.4999 58.0251 18.5343 57.9771C18.7486 57.6872 18.9975 57.4245 19.2754 57.1948C19.4675 57.3289 19.6467 57.4805 19.8107 57.6477Z" fill="white"/>
<path d="M35.2159 40.5752C37.4323 37.5422 39.5939 34.5709 41.7692 31.5996C42.6681 30.3713 44.1503 30.2273 45.0355 31.3115C45.6737 32.0869 45.6393 32.9858 44.9051 33.9945C42.8739 36.7896 40.8359 39.5825 38.791 42.3731C38.2626 43.0593 37.748 43.8277 37.2128 44.5414C37.0673 44.7751 36.8726 44.9743 36.6423 45.1251C36.4119 45.2758 36.1515 45.3745 35.8791 45.4144C35.6067 45.4542 35.3289 45.4342 35.0651 45.3558C34.8012 45.2773 34.5576 45.1422 34.3513 44.96C32.6289 43.5876 30.9203 42.2152 29.2596 40.7468C28.8964 40.3978 28.6814 39.9224 28.6589 39.4192C28.6364 38.916 28.8082 38.4234 29.1389 38.0434C29.4695 37.6634 29.9336 37.425 30.4351 37.3777C30.9366 37.3304 31.437 37.4777 31.8329 37.7892C32.9102 38.6744 33.9945 39.5939 35.2159 40.5752Z" fill="white"/>
</g>
<defs>
<clipPath id="clip0_20_565">
<rect width="74" height="74" fill="white"/>
</clipPath>
</defs>
</svg>
