<svg width="232" height="146" viewBox="0 0 232 146" fill="none" xmlns="http://www.w3.org/2000/svg">
<g clip-path="url(#clip0_20_610)">
<path d="M223.489 7.86755H18.8014C14.1011 7.86755 10.2908 11.7032 10.2908 16.4348V137.433C10.2908 142.164 14.1011 146 18.8014 146H223.489C228.19 146 232 142.164 232 137.433V16.4348C232 11.7032 228.19 7.86755 223.489 7.86755Z" fill="#FF914C"/>
<path d="M213.908 0.713989H9.21987C4.51957 0.713989 0.709229 4.54967 0.709229 9.28123V130.279C0.709229 135.011 4.51957 138.846 9.21987 138.846H213.908C218.608 138.846 222.418 135.011 222.418 130.279V9.28123C222.418 4.54967 218.608 0.713989 213.908 0.713989Z" fill="white" stroke="black" stroke-width="2" stroke-miterlimit="10"/>
</g>
<defs>
<clipPath id="clip0_20_610">
<rect width="232" height="146" fill="white"/>
</clipPath>
</defs>
</svg>
