<svg width="79" height="79" viewBox="0 0 79 79" fill="none" xmlns="http://www.w3.org/2000/svg">
<g clip-path="url(#clip0_20_782)">
<path d="M76.7923 39.4999C76.7923 36.0088 79.6849 32.185 78.8204 28.9599C77.9294 25.635 73.5006 23.7664 71.7982 20.8471C70.0959 17.9278 70.6744 13.1134 68.2738 10.7061C65.8732 8.29888 61.0987 8.89733 58.1395 7.18167C55.1803 5.46602 53.3583 1.05057 50.0267 0.159494C46.8015 -0.698334 42.9779 2.1943 39.4801 2.1943C35.9823 2.1943 32.1652 -0.698334 28.9401 0.159494C25.6151 1.05057 23.7466 5.47932 20.8273 7.18167C17.908 8.88403 13.0935 8.30553 10.6929 10.7061C8.29233 13.1067 8.87752 17.8879 7.16852 20.8471C5.45951 23.8063 1.03737 25.6283 0.146297 28.9599C-0.718181 32.1784 2.14125 36.0088 2.14125 39.4999C2.14125 42.9911 -0.751431 46.8147 0.146297 50.0399C1.03737 53.3648 5.46616 55.2334 7.16852 58.1526C8.87087 61.0719 8.29233 65.8864 10.6929 68.2936C13.0935 70.7009 17.8681 70.1024 20.8273 71.8181C23.7865 73.5337 25.6085 77.9492 28.9401 78.8403C32.1652 79.6981 35.9889 76.8055 39.4801 76.8055C42.9712 76.8055 46.7949 79.6981 50.0267 78.8403C53.3516 77.9492 55.2202 73.5204 58.1395 71.8181C61.0588 70.1157 65.8732 70.6942 68.2738 68.2936C70.6744 65.893 70.0892 61.1118 71.7982 58.1526C73.5072 55.1935 77.9294 53.3714 78.8204 50.0399C79.6982 46.8214 76.7923 42.9911 76.7923 39.4999Z" fill="#FF914C"/>
<path d="M39.5 69.697C56.1773 69.697 69.6969 56.1774 69.6969 39.5001C69.6969 22.8228 56.1773 9.30322 39.5 9.30322C22.8227 9.30322 9.3031 22.8228 9.3031 39.5001C9.3031 56.1774 22.8227 69.697 39.5 69.697Z" fill="#FF914C" stroke="white" stroke-width="2" stroke-miterlimit="10"/>
<path d="M39.5 14.8757L40.7236 17.3628L43.47 17.7551L41.4817 19.6902L41.9538 22.4233L39.5 21.1332L37.0462 22.4233L37.5117 19.6902L35.5301 17.7551L38.2698 17.3628L39.5 14.8757Z" fill="white"/>
<path d="M51.1106 18.6528L51.9086 20.282L53.704 20.5414L52.4073 21.8049L52.7132 23.5937L51.1106 22.7491L49.5013 23.5937L49.8072 21.8049L48.5105 20.5414L50.306 20.282L51.1106 18.6528Z" fill="white"/>
<path d="M27.8894 18.6528L28.694 20.282L30.4895 20.5414L29.1928 21.8049L29.4987 23.5937L27.8894 22.7491L26.2868 23.5937L26.5927 21.8049L25.2893 20.5414L27.0848 20.282L27.8894 18.6528Z" fill="white"/>
<path d="M15.9795 49.395V34.885H25.8346V37.8243H19.3311V40.9563H24.6509V43.6694H19.3311V49.395H15.9795Z" fill="white"/>
<path d="M27.5835 49.3949V34.8849H34.1269C34.7801 34.8792 35.426 35.0225 36.0155 35.3039C36.5853 35.5763 37.096 35.9582 37.5183 36.4277C37.9376 36.8941 38.2728 37.4296 38.5092 38.0104C38.744 38.573 38.866 39.1762 38.8682 39.7859C38.8696 40.3675 38.7729 40.9453 38.5823 41.4949C38.3965 42.0222 38.1197 42.5128 37.7644 42.9445C37.4112 43.3736 36.9803 43.7323 36.4943 44.0018L39.6862 49.3949H35.9822L33.2026 44.74H30.935V49.3949H27.5835ZM30.9084 41.7941H33.974C34.2389 41.7974 34.4962 41.7054 34.6988 41.5348C34.9269 41.3444 35.1069 41.1029 35.2241 40.8299C35.3635 40.4999 35.4315 40.144 35.4236 39.7859C35.4342 39.4281 35.3542 39.0736 35.1909 38.7552C35.0501 38.4932 34.8524 38.266 34.6124 38.0902C34.3975 37.9342 34.1398 37.8483 33.8743 37.8442H30.9084V41.7941Z" fill="white"/>
<path d="M51.5229 46.4557V49.395H41.3088V34.885H51.3234V37.8243H44.6736V40.6504H50.3924V43.3769H44.6736V46.469L51.5229 46.4557Z" fill="white"/>
<path d="M63.7519 46.4557V49.395H53.5511V34.885H63.5657V37.8243H56.9159V40.6504H62.6414V43.3769H56.9159V46.469L63.7519 46.4557Z" fill="white"/>
</g>
<defs>
<clipPath id="clip0_20_782">
<rect width="79" height="79" fill="white"/>
</clipPath>
</defs>
</svg>
