<svg width="442" height="442" viewBox="0 0 442 442" fill="none" xmlns="http://www.w3.org/2000/svg">
<g clip-path="url(#clip0_23_968)">
<path d="M10.51 284.77C-24.78 167.72 41.19 45.4096 158.62 10.1596C273.43 -24.3004 396.34 41.9497 430.89 157.3C465.89 274.3 400.74 395.63 284.89 430.87C167.92 466.41 45.47 400.69 10.51 284.77ZM424.22 196.36L418.63 197.92C400.43 203.01 382.29 208.33 364 213.05C358.8 214.4 357.36 216.51 357.37 221.82C357.5 287.82 308.74 349.29 235.8 356.71C178.57 362.54 134.04 339.36 103.12 290.71C101.23 287.71 99.69 287.03 96.34 288C77.22 293.51 58.03 298.79 38.87 304.16C37.31 304.6 35.78 305.16 34.2 305.71C64.3 379.71 159.93 449.2 272.99 419.59C384.07 390.44 437.07 283.46 424.22 196.32V196.36ZM338.99 188.27C321.65 123.71 254.25 84.9597 189.41 102.27C124.57 119.58 85.41 186.56 101.26 249.93C117.95 316.48 186.56 357.63 253.26 339.34C318.36 321.42 356.72 254.21 338.99 188.23V188.27ZM75.91 259.77C75.44 254.77 75.07 250.77 74.67 246.43L55.26 248C59.78 244.56 63.26 242 66.65 239.3C70.72 236.11 70.21 231.52 65.55 229.16C61.7 227.16 57.81 225.3 53.94 223.38L54.27 222.47L72.12 220.29C71.66 215.53 71.27 211.47 70.84 206.99L25.7 211.52C24.97 222.28 25.06 222.52 33.7 226.76C39.54 229.62 45.44 232.34 51.82 235.36C46.12 239.64 41.08 244.03 35.45 247.48C30.09 250.76 28.45 254.81 29.77 260.73C30.3 263.09 30.85 264.3 33.59 263.93C38.39 263.29 43.23 263.02 48.05 262.55C57.14 261.65 66.24 260.77 75.91 259.77ZM221.07 71.3197C228.94 72.5297 236.32 73.7097 243.72 74.7797C246.366 75.2134 249.039 75.4673 251.72 75.5397C257.36 75.5397 262.48 74.1497 265.14 68.5897C267.89 62.8397 266.68 57.5896 261.86 53.4796C270.74 43.9096 268.94 34.5798 256.99 31.1198C247.78 28.4698 238.08 27.5497 228.12 25.7697C225.72 41.2797 223.45 56.0497 221.07 71.3197ZM98.88 136.19L82.56 122.77L103.33 122.48C110.9 122.37 113.79 120.3 116.89 112.62L81.89 84.4296L73.03 95.4296L89.37 108.84C82.09 108.97 76.02 109.78 70.16 109.02C62.16 107.97 58.26 112.31 54.78 118.69L90.11 147.21L98.88 136.19ZM34.51 178.19C38.03 190.67 51.31 198.19 63.51 194.72C76.23 191.07 84.69 174.96 80.88 161.62C77.43 149.56 64.25 142.19 52.01 145.48C39.07 149.01 30.7 164.54 34.54 178.21L34.51 178.19ZM386.58 119.19L345.31 139.19L351.45 151.52C356.87 151.02 360.59 144.87 366.61 148.98C364.04 154.33 359.86 159.46 359.51 164.83C359.18 169.9 362.88 175.22 364.8 180.44L366.37 180.06L380.12 152.85L406.45 160.67C404.95 157.36 403.74 155.2 402.98 152.89C401.34 147.89 398.29 144.89 392.91 143.89C388.24 142.97 383.75 141.13 378.42 139.45L392.87 132L386.58 119.19ZM127.86 49.6596L97.79 70.2496L123.72 108.1L154.44 87.0397L147.69 77.5997L128.9 90.1996L125.9 85.5097L141.67 74.3597L135.19 65.2396L119.28 75.9596L116.47 71.7496L134.47 59.2797L127.86 49.6596ZM312.27 102.07C312.58 100.01 312.88 98.5798 312.99 97.1298C313.99 83.6498 314.79 70.1296 315.93 56.6896C316.21 53.3496 315.05 51.9297 312.34 50.0697C306.45 46.0697 301.63 46.0097 296.84 51.5397C295.33 53.2697 293.23 54.4896 291.39 55.9296L265.07 76.6596C269.15 78.9796 272.51 81.0997 276.07 82.7797C276.712 82.9951 277.397 83.0495 278.065 82.9379C278.733 82.8263 279.363 82.5523 279.9 82.1398C283.66 77.5898 287.45 78.5196 291.54 81.4696C292.629 82.2505 293.824 82.8703 295.09 83.3097C298.94 84.6797 300.67 86.9697 299.62 91.3097C299.28 92.7197 299.85 95.2396 300.89 95.9396C304.33 98.2096 308.14 99.8997 312.27 102.07ZM370.05 109.99C372.17 99.4796 366.64 88.9096 356.55 83.2196C352.344 80.7327 347.451 79.6617 342.59 80.1639C337.73 80.6662 333.159 82.7152 329.55 86.0097C321.87 92.7597 319.17 103.53 322.92 112.44C327.51 123.36 338.13 130.36 349.22 129.38C349.22 125.38 349.16 121.38 349.13 117.38C339.44 115.98 334.91 111.98 335.07 105.44C335.22 99.4396 340.54 94.2096 346.82 93.9196C353.1 93.6296 356.91 98.5096 358.59 108.92L370.05 109.99ZM183.96 77.6198C183.69 76.0598 183.75 74.9796 183.32 74.1596C178.48 64.9796 180.15 55.8197 183.17 46.6097C184.05 43.9198 184.59 41.1197 185.23 38.3597C185.92 35.3597 186.55 32.3597 187.35 28.7897C184.664 29.6766 181.933 30.4242 179.17 31.0297C174.96 31.6897 172.95 33.9096 172.34 38.1696C171.73 42.4296 170.34 46.3497 169.21 51.0197C164.91 47.1897 161.29 43.7498 157.41 40.6398C156.17 39.6398 154.07 38.8198 152.64 39.1398C148.81 39.9898 145.14 41.5097 140.5 43.0697C146.5 48.5597 151.68 53.7696 157.39 58.2496C163.44 62.9996 167.51 68.6196 168.77 76.2496C169.209 77.9984 169.801 79.7051 170.54 81.3497L183.96 77.6198Z" fill="#00CE5D" stroke="black" stroke-width="2" stroke-miterlimit="10"/>
<path d="M424.22 196.32C437.02 283.46 384.07 390.44 272.99 419.52C159.93 449.13 64.3 379.66 34.2 305.64C35.78 305.12 37.31 304.53 38.87 304.09C58.03 298.72 77.22 293.44 96.34 287.93C99.69 286.93 101.23 287.67 103.12 290.64C134.04 339.32 178.57 362.5 235.8 356.64C308.74 349.22 357.5 287.72 357.37 221.75C357.37 216.44 358.8 214.33 364 212.98C382.29 208.26 400.43 202.98 418.63 197.85L424.22 196.32ZM357.48 323.88C350.07 327.04 340.85 320.83 334.87 329.74L356.24 346.97L360.54 341.38L348.97 331.68C354.24 331.57 358.18 331.36 362.12 331.44C366.33 331.52 370.59 331.99 372.12 326.2L351.21 309.34L346.92 314.93L357.48 323.88ZM310.48 373.17C310.94 371.65 311.13 370.87 311.41 370.12C312.95 366.03 312.06 361.95 308.71 359.84C305.97 358.11 301.64 357.1 298.64 357.96C293.71 359.37 289.29 362.56 284.34 365.17C288.84 373.44 293.02 381.17 297.44 389.27L303.44 385.89C302.44 383.55 301.61 381.48 300.2 378.06C303.11 378.18 305.6 377.54 307.08 378.49C311.4 381.26 314.95 380.89 319.08 376.68L310.48 373.17ZM241.89 376.64C241.72 377.24 241.613 377.857 241.57 378.48C241.86 382.3 242.23 386.11 242.52 389.93C243 396.18 241.52 398.99 237.74 399.28C233.96 399.57 231.88 396.95 231.32 390.97C230.91 386.72 230.39 382.48 229.9 377.97L222.6 378.53C223.42 384.92 223.8 390.91 225.04 396.71C226.48 403.43 231.65 406.17 239.32 405.08C245.99 404.13 250.11 399.81 249.9 393.3C249.72 387.67 248.96 382.06 248.43 376.18L241.89 376.64ZM101.17 331.46C93.41 333.66 87.49 342.75 89.41 349.46C89.8017 350.958 90.4908 352.362 91.4364 353.588C92.3819 354.814 93.5645 355.837 94.9137 356.596C96.2629 357.356 97.7512 357.836 99.2899 358.009C100.829 358.181 102.386 358.042 103.87 357.6C111.72 355.31 117.5 346.45 115.59 339.6C115.204 338.103 114.52 336.699 113.579 335.472C112.637 334.246 111.458 333.222 110.112 332.462C108.766 331.702 107.28 331.221 105.743 331.049C104.207 330.877 102.651 331.017 101.17 331.46ZM374.43 275.17L378.43 261.51L373.07 260.34C370.96 267.34 368.99 273.78 366.94 280.53L393.21 288.53C395.41 281.41 397.5 274.63 399.67 267.58L394.43 266.03C392.91 270.71 391.43 275.12 389.93 279.85L384.76 278.17L388.03 266.34L383.17 264.97C381.86 268.97 380.67 272.54 379.4 276.42L374.43 275.17ZM139.14 357.96C137.44 352.08 130.67 348.28 124.9 349.96C117.56 352.1 111.9 361.96 113.9 369.08C114.303 370.531 114.988 371.887 115.918 373.072C116.848 374.256 118.003 375.244 119.317 375.979C120.63 376.715 122.077 377.183 123.572 377.356C125.068 377.53 126.583 377.405 128.03 376.99C135.49 374.9 141.2 365.08 139.14 357.96ZM378.2 231.77C377.07 239.07 376.04 245.77 374.94 252.92L402.15 257.08C403.28 249.5 404.3 242.63 405.37 235.44L400.07 234.77C399.21 239.68 398.41 244.19 397.56 249.04L392.26 247.87C392.8 243.69 393.26 239.94 393.81 235.96L388.81 235.1C388.13 239.21 387.48 243.1 386.81 247.27L381.72 246.27C382.37 241.58 382.99 237.2 383.63 232.62L378.2 231.77ZM209.55 391.34C208.07 399.29 206.68 400.53 201.84 398.82C197.22 397.19 195.2 392.54 197.06 387.82C198.92 383.1 204.2 380.96 208.62 383.82C212.34 386.28 214.45 385.44 216.81 382.26C212.03 376.88 206.11 375.79 199.76 377.13C197.257 377.559 194.938 378.724 193.1 380.477C191.262 382.229 189.988 384.49 189.44 386.97C188.1 392.37 189.1 397.42 193.38 401.17C198.81 405.94 205.25 406.31 211.75 403.92C217.13 401.92 214.06 396.63 215.41 393.01C215.5 392.79 215.2 392.42 214.96 391.82L209.55 391.34ZM259.07 401.58C263.44 401.07 266.43 400.5 266.68 395.58C266.84 392.58 277.68 389.79 279.54 392.23C282.63 396.34 285.32 394.23 288.96 392.47C282.74 385.32 276.96 378.47 270.96 371.86C268.54 369.2 262.74 371.32 262.24 375.04C261.07 383.77 260.14 392.53 259.07 401.58ZM325.51 373.37C329.46 371.02 332.43 369.37 330.19 365.05C330.062 364.749 330.009 364.421 330.037 364.095C330.065 363.769 330.172 363.455 330.35 363.18C332.92 360.81 335.35 358.1 338.35 356.48C339.71 355.75 342.28 357.26 344.68 357.86L349.95 353.28C341.2 348.97 333.15 344.91 325.01 341.04C322.08 339.65 317.32 343.68 318.16 346.9C320.45 355.61 322.97 364.26 325.52 373.37H325.51ZM369.99 286.68L365.11 284.5L366.22 285.56C361.92 292.1 357.61 298.64 353.08 305.56L358.4 308.39L362.71 301.11L381.97 311.18L385.03 304.84L366.5 294.07L369.99 286.68ZM77.4 337.84L99.24 321.21L91.66 311.3L87.66 314.54L90.13 318.86L73.13 332.05C74.71 334.24 75.9 335.82 77.41 337.84H77.4ZM174.07 371.22C171.34 370.64 169.48 369.62 168.6 370.22C159.6 375.75 150.87 381.54 142.03 387.22L142.53 388.82C144.14 388.75 146.1 389.26 147.29 388.52C155.83 383.17 164.26 377.57 174.07 371.22ZM165.82 396.67C169.5 395.55 171.97 390.76 170.82 386.94C170.255 385.26 169.085 383.851 167.538 382.986C165.991 382.121 164.177 381.862 162.45 382.26C158.75 383.26 156 388.63 157.27 392.42C157.892 394.068 159.113 395.421 160.688 396.208C162.264 396.996 164.078 397.161 165.77 396.67H165.82ZM157.45 367.09C157.23 366.243 156.837 365.45 156.297 364.76C155.757 364.071 155.081 363.501 154.311 363.084C153.54 362.668 152.693 362.414 151.82 362.34C150.948 362.265 150.07 362.37 149.24 362.65C148.253 362.964 147.339 363.472 146.552 364.144C145.764 364.816 145.118 365.639 144.653 366.564C144.187 367.489 143.911 368.497 143.84 369.53C143.769 370.563 143.905 371.6 144.24 372.58C144.506 373.408 144.935 374.174 145.503 374.833C146.071 375.491 146.766 376.029 147.546 376.413C148.326 376.798 149.176 377.021 150.044 377.071C150.912 377.12 151.781 376.994 152.6 376.7C154.478 376.016 156.022 374.639 156.915 372.851C157.807 371.063 157.981 369.002 157.4 367.09H157.45Z" fill="white"/>
<path d="M338.99 188.23C356.72 254.23 318.36 321.42 253.22 339.3C186.56 357.59 117.95 316.44 101.22 249.89C85.33 186.52 124.56 119.53 189.37 102.23C254.18 84.9297 321.65 123.67 338.99 188.23ZM293.78 180.43L293.25 180.56C289.92 168.64 286.48 156.75 283.32 144.78C282.47 141.59 281.08 140.14 277.64 139.78C251.91 137 226.2 133.9 200.45 131.26C197.223 131.054 194.024 131.965 191.39 133.84C170.88 149.35 150.62 165.21 130.21 180.84C127.63 182.84 126.71 184.58 127.69 187.95C133.85 209.33 139.69 230.79 145.77 252.19C150.38 268.47 158.6 282.63 171.19 294.03C192.58 313.39 218.43 320.97 246.6 322.1C248.754 322.097 250.841 321.352 252.51 319.99C262.08 311.72 272.43 304.06 280.7 294.6C298.79 273.94 307.64 249.55 303.45 221.9C301.34 207.91 297.07 194.25 293.78 180.43Z" fill="white"/>
<path d="M75.91 259.77C66.24 260.77 57.14 261.66 48.03 262.55C43.21 263.02 38.37 263.29 33.57 263.93C30.83 264.3 30.28 263.09 29.75 260.73C28.42 254.81 30.07 250.73 35.43 247.48C41.06 244.03 46.1 239.64 51.8 235.36C45.42 232.36 39.52 229.62 33.68 226.76C25.06 222.53 24.97 222.28 25.68 211.52L70.82 206.99C71.25 211.47 71.64 215.53 72.1 220.29L54.25 222.47L53.92 223.38C57.79 225.3 61.68 227.2 65.53 229.16C70.19 231.52 70.7 236.11 66.63 239.3C63.22 241.97 59.76 244.56 55.24 248L74.65 246.43C75.07 250.71 75.44 254.77 75.91 259.77Z" fill="white"/>
<path d="M221.07 71.3201C223.42 56.0501 225.69 41.32 228.07 25.77C238.07 27.55 247.73 28.4701 256.94 31.1201C268.89 34.5801 270.69 43.91 261.81 53.48C266.63 57.64 267.81 62.8401 265.09 68.5901C262.43 74.1501 257.31 75.59 251.67 75.54C248.989 75.4676 246.316 75.2137 243.67 74.78C236.35 73.71 228.97 72.5301 221.07 71.3201ZM236.99 62.6599C240.631 63.2807 244.303 63.708 247.99 63.9399C249.27 63.9399 250.59 62.4599 251.89 61.6599C250.89 60.3599 250.14 58.2999 248.89 57.9099C245.5 56.9099 241.89 56.5699 238.04 55.9099C237.65 58.5099 237.36 60.4199 237.07 62.6599H236.99ZM239.62 45.46C242.759 45.9579 245.924 46.275 249.1 46.4099C250.22 46.4099 252.1 45.0399 252.2 44.1699C252.145 43.4831 251.914 42.8221 251.528 42.251C251.143 41.6798 250.616 41.2178 250 40.9099C246.904 40.1108 243.761 39.5065 240.59 39.1001L239.62 45.46Z" fill="white"/>
<path d="M98.91 136.19L90.13 147.19L54.8 118.77C58.28 112.39 62.16 108.05 70.18 109.1C76.04 109.86 82.11 109.05 89.39 108.92L73.07 95.46L81.93 84.46L116.93 112.65C113.83 120.33 110.93 122.4 103.37 122.51L82.6 122.8L98.91 136.19Z" fill="white"/>
<path d="M34.54 178.21C30.7 164.54 39.02 149.01 52.07 145.5C64.31 142.21 77.49 149.58 80.94 161.64C84.75 174.98 76.29 191.09 63.57 194.74C51.34 198.26 38.07 190.69 34.54 178.21ZM46.68 172.61C48.23 178.54 55.17 182.29 61.39 180.56C64.0397 179.736 66.2754 177.932 67.6411 175.516C69.0068 173.101 69.3998 170.255 68.74 167.56C67.25 161.77 60.19 158.02 53.94 159.7C52.6147 160.069 51.3753 160.697 50.2928 161.546C49.2102 162.395 48.3059 163.449 47.6315 164.649C46.9571 165.848 46.5259 167.168 46.3626 168.535C46.1994 169.901 46.3072 171.286 46.68 172.61Z" fill="white"/>
<path d="M386.61 119.17L392.9 131.97L378.45 139.42C383.78 141.1 388.27 142.94 392.94 143.86C398.32 144.92 401.37 147.86 403.01 152.86C403.77 155.17 405.01 157.33 406.48 160.64L380.15 152.82L366.4 180.03L364.83 180.41C362.91 175.19 359.21 169.87 359.54 164.8C359.89 159.43 364.07 154.3 366.64 148.95C360.64 144.84 356.9 150.95 351.48 151.49L345.34 139.16L386.61 119.17Z" fill="white"/>
<path d="M127.89 49.6401L134.43 59.26L116.43 71.73L119.24 75.9399L135.15 65.22L141.63 74.3401L125.86 85.49L128.86 90.1799L147.65 77.5801L154.4 87.02L123.68 108.08L97.75 70.23L127.89 49.6401Z" fill="white"/>
<path d="M312.27 102.07C308.14 99.8999 304.33 98.2098 300.93 95.9198C299.93 95.2198 299.32 92.6999 299.66 91.2899C300.71 86.9699 298.98 84.6799 295.13 83.2899C293.864 82.8505 292.669 82.2307 291.58 81.4498C287.49 78.4998 283.7 77.57 279.94 82.12C279.403 82.5325 278.773 82.8065 278.105 82.9181C277.437 83.0297 276.752 82.9753 276.11 82.7599C272.55 81.0799 269.19 78.96 265.11 76.64L291.39 55.9098C293.23 54.4698 295.33 53.2499 296.84 51.5199C301.63 45.9899 306.45 46.0399 312.34 50.0499C315.05 51.9099 316.21 53.3298 315.93 56.6698C314.79 70.1398 313.93 83.67 312.99 97.11C312.88 98.58 312.58 100.01 312.27 102.07ZM294.27 70.2699L301.36 73.8998C301.73 70.1998 302.02 67.21 302.36 63.37L294.27 70.2699Z" fill="white"/>
<path d="M370.07 109.99L358.6 108.99C356.92 98.54 353.02 93.65 346.83 93.99C340.64 94.33 335.23 99.5 335.08 105.51C334.92 112.05 339.45 116.05 349.14 117.45C349.14 121.39 349.2 125.45 349.23 129.45C338.14 130.45 327.52 123.45 322.93 112.51C319.18 103.6 321.93 92.8301 329.56 86.0801C333.169 82.7857 337.74 80.7364 342.6 80.2342C347.461 79.7319 352.354 80.8031 356.56 83.2901C366.64 88.9101 372.17 99.48 370.07 109.99Z" fill="white"/>
<path d="M183.96 77.6201L170.54 81.3701C169.801 79.7255 169.209 78.0188 168.77 76.27C167.51 68.62 163.44 63 157.39 58.27C151.68 53.79 146.55 48.5801 140.5 43.0901C145.14 41.5301 148.81 40.0099 152.64 39.1599C154.07 38.8399 156.17 39.6699 157.41 40.6599C161.29 43.7699 164.91 47.21 169.21 51.04C170.38 46.37 171.74 42.3299 172.34 38.1899C172.94 34.0499 174.96 31.71 179.17 31.05C181.933 30.4446 184.664 29.6969 187.35 28.8101C186.55 32.4301 185.92 35.4101 185.23 38.3801C184.59 41.1401 184.05 43.9401 183.17 46.6301C180.17 55.8401 178.48 64.9999 183.32 74.1799C183.75 74.9799 183.69 76.0601 183.96 77.6201Z" fill="white"/>
<path d="M357.48 323.88L346.89 314.88L351.18 309.29L372.07 326.2C370.57 331.99 366.31 331.52 362.07 331.44C358.13 331.36 354.19 331.57 348.92 331.68L360.49 341.38L356.19 346.97L334.87 329.77C340.85 320.83 350.07 327.04 357.48 323.88Z" fill="black"/>
<path d="M310.48 373.17L319.07 376.68C314.95 380.89 311.4 381.26 307.07 378.49C305.59 377.54 303.07 378.18 300.19 378.06C301.6 381.48 302.46 383.55 303.43 385.89L297.43 389.27C293.01 381.15 288.83 373.44 284.33 365.17C289.33 362.56 293.7 359.37 298.63 357.96C301.63 357.1 305.96 358.11 308.7 359.84C312.05 361.95 312.94 366.03 311.4 370.12C311.13 370.87 310.94 371.65 310.48 373.17ZM298.16 375.24C300.79 372.33 303 370.31 304.54 367.86C304.92 367.27 303.03 364.11 302.26 364.14C299.42 364.24 296.61 365.19 293.11 365.97L298.16 375.24Z" fill="black"/>
<path d="M241.89 376.64L248.43 376.22C248.96 382.1 249.72 387.71 249.9 393.34C250.11 399.85 245.99 404.17 239.32 405.12C231.65 406.21 226.48 403.47 225.04 396.75C223.8 390.95 223.42 384.96 222.6 378.57L229.9 378.01C230.39 382.48 230.9 386.72 231.32 391.01C231.88 397.01 233.85 399.61 237.74 399.32C241.63 399.03 243 396.22 242.52 389.97C242.23 386.15 241.86 382.34 241.57 378.52C241.61 377.884 241.717 377.253 241.89 376.64Z" fill="black"/>
<path d="M101.17 331.46C102.655 331.018 104.215 330.88 105.754 331.056C107.294 331.232 108.782 331.718 110.129 332.484C111.476 333.25 112.655 334.281 113.593 335.514C114.531 336.747 115.211 338.157 115.59 339.66C117.5 346.48 111.72 355.34 103.87 357.66C102.386 358.102 100.829 358.241 99.2898 358.069C97.7512 357.896 96.2629 357.416 94.9137 356.657C93.5645 355.897 92.3819 354.874 91.4364 353.648C90.4908 352.422 89.8017 351.018 89.41 349.52C87.49 342.77 93.41 333.66 101.17 331.46ZM99.85 351.68C105.26 349.96 110.67 343.05 109.12 340.44C108.473 339.642 107.641 339.015 106.697 338.612C105.752 338.21 104.723 338.044 103.7 338.13C99.32 339.13 94.4 346.24 95.95 348.96C96.78 350.43 99 351.12 99.85 351.68Z" fill="black"/>
<path d="M374.43 275.17L379.36 276.47C380.63 272.59 381.82 268.98 383.13 265.02L387.99 266.39L384.72 278.22L389.89 279.9C391.43 275.17 392.89 270.76 394.39 266.08L399.63 267.63C397.46 274.63 395.37 281.46 393.17 288.58L366.9 280.58C368.95 273.83 370.9 267.35 373.03 260.39L378.39 261.56L374.43 275.17Z" fill="black"/>
<path d="M139.14 357.96C141.2 365.08 135.49 374.9 128.08 376.96C126.633 377.375 125.118 377.5 123.622 377.326C122.127 377.153 120.68 376.685 119.367 375.95C118.053 375.214 116.898 374.226 115.968 373.042C115.038 371.857 114.352 370.501 113.95 369.05C111.95 361.91 117.56 352.05 124.95 349.93C130.67 348.28 137.44 352.08 139.14 357.96ZM127.58 356.26C124.51 357.26 119.83 364.26 120.15 367.46C120.45 370.46 123.82 372.46 125.96 370.33C128.821 367.445 131.073 364.013 132.58 360.24C133.68 357.5 130.55 355.34 127.58 356.26Z" fill="black"/>
<path d="M378.2 231.77L383.56 232.69C382.92 237.27 382.3 241.69 381.65 246.34L386.74 247.34C387.43 243.16 388.08 239.28 388.74 235.17L393.74 236.03C393.22 240.03 392.74 243.76 392.19 247.94L397.49 249.11C398.34 244.26 399.14 239.75 400 234.84L405.31 235.47C404.24 242.66 403.22 249.53 402.09 257.11L374.88 252.95C376.07 245.77 377.07 239.05 378.2 231.77Z" fill="black"/>
<path d="M209.55 391.34L214.96 391.85C215.2 392.45 215.5 392.85 215.41 393.04C214.06 396.66 217.13 401.97 211.75 403.95C205.25 406.34 198.81 405.95 193.38 401.2C189.1 397.45 188.1 392.4 189.44 387C189.988 384.52 191.262 382.259 193.1 380.507C194.938 378.754 197.257 377.589 199.76 377.16C206.11 375.82 212.03 376.91 216.81 382.29C214.45 385.47 212.34 386.29 208.62 383.85C204.2 380.95 198.89 383.15 197.06 387.85C195.23 392.55 197.22 397.23 201.84 398.85C206.68 400.53 208.07 399.29 209.55 391.34Z" fill="black"/>
<path d="M259.07 401.58C260.13 392.58 261.07 383.77 262.22 375.04C262.72 371.32 268.52 369.2 270.94 371.86C276.94 378.48 282.74 385.32 288.94 392.47C285.3 394.21 282.61 396.34 279.52 392.23C277.69 389.79 266.82 392.58 266.66 395.58C266.44 400.5 263.45 401.07 259.07 401.58ZM269.07 379.08L267.84 379.35C267.66 382.13 267.49 384.9 267.3 387.93L274.6 385.93L269.07 379.08Z" fill="black"/>
<path d="M325.52 373.37C322.97 364.26 320.45 355.61 318.18 346.9C317.34 343.68 322.1 339.65 325.03 341.04C333.17 344.91 341.22 348.97 349.97 353.28L344.7 357.86C342.3 357.26 339.7 355.75 338.37 356.48C335.37 358.1 332.93 360.81 330.37 363.18C330.192 363.455 330.085 363.769 330.057 364.095C330.029 364.421 330.082 364.749 330.21 365.05C332.44 369.32 329.47 371.02 325.52 373.37ZM327.98 357.69L333.98 352.69L325.39 348.37L327.98 357.69Z" fill="black"/>
<path d="M370 286.68L366.51 294.05L385.07 304.82L382.01 311.16L362.75 301.09L358.44 308.37L353.12 305.54C357.65 298.64 361.96 292.1 366.26 285.54L365.15 284.48L370 286.68Z" fill="black"/>
<path d="M77.41 337.84C75.9 335.84 74.71 334.24 73.08 332.05L90.08 318.86L87.61 314.54L91.61 311.3L99.19 321.21L77.41 337.84Z" fill="black"/>
<path d="M174.07 371.22C164.31 377.57 155.88 383.22 147.29 388.51C146.1 389.25 144.14 388.74 142.53 388.81L142.03 387.21C150.87 381.49 159.65 375.7 168.6 370.21C169.43 369.62 171.29 370.64 174.07 371.22Z" fill="black"/>
<path d="M165.77 396.67C164.074 397.169 162.252 397.009 160.67 396.221C159.088 395.432 157.862 394.074 157.24 392.42C155.97 388.63 158.72 383.23 162.42 382.26C164.147 381.862 165.961 382.121 167.508 382.986C169.055 383.851 170.225 385.26 170.79 386.94C171.92 390.77 169.45 395.55 165.77 396.67ZM168.08 387.25C166.14 386.53 164.26 385.59 164.08 385.82C162.865 387.611 161.877 389.545 161.14 391.58C161.923 392.294 162.832 392.857 163.82 393.24C165.339 391.318 166.758 389.319 168.07 387.25H168.08Z" fill="black"/>
<path d="M157.4 367.09C157.978 369.01 157.796 371.078 156.891 372.867C155.987 374.656 154.429 376.028 152.54 376.7C151.721 376.994 150.852 377.12 149.984 377.071C149.116 377.022 148.266 376.798 147.486 376.414C146.706 376.029 146.011 375.492 145.443 374.833C144.875 374.174 144.446 373.408 144.18 372.58C143.845 371.6 143.709 370.564 143.78 369.531C143.851 368.498 144.127 367.489 144.593 366.564C145.058 365.639 145.704 364.817 146.492 364.145C147.279 363.472 148.193 362.964 149.18 362.65C150.01 362.369 150.89 362.262 151.763 362.336C152.637 362.41 153.486 362.664 154.257 363.08C155.028 363.497 155.705 364.068 156.246 364.758C156.787 365.448 157.18 366.242 157.4 367.09ZM154.75 367.66C152.9 366.8 151.06 365.77 150.96 365.92C149.728 367.699 148.72 369.624 147.96 371.65C147.84 371.97 149.7 373.01 150.64 373.71C151.83 371.93 153.07 370.14 154.75 367.66Z" fill="black"/>
<path d="M293.78 180.43C297.07 194.25 301.34 207.91 303.45 221.91C307.64 249.56 298.79 273.91 280.7 294.61C272.43 304.07 262.08 311.73 252.51 320C250.841 321.362 248.754 322.108 246.6 322.11C218.43 320.98 192.6 313.4 171.19 294.04C158.6 282.64 150.38 268.48 145.77 252.2C139.71 230.8 133.85 209.34 127.69 187.96C126.69 184.59 127.63 182.82 130.21 180.85C150.62 165.2 170.88 149.34 191.39 133.85C194.024 131.975 197.223 131.064 200.45 131.27C226.2 133.91 251.91 137.01 277.64 139.79C281.08 140.16 282.47 141.61 283.32 144.79C286.48 156.79 289.92 168.65 293.25 180.57L293.78 180.43ZM215.91 244.35C207.48 240.61 199.73 237.05 191.91 233.74C185.52 231.05 179.16 233.59 176.35 239.66C175.694 241.024 175.315 242.504 175.235 244.016C175.156 245.528 175.378 247.04 175.887 248.465C176.397 249.891 177.185 251.2 178.205 252.319C179.225 253.437 180.457 254.341 181.83 254.98C193.83 260.55 205.83 265.98 218.03 271.06C224.91 273.95 231.11 270.96 233.84 264.01C235.79 259.01 237.57 254.01 239.45 249.01C246.703 229.603 253.96 210.19 261.22 190.77C263.82 183.77 262.56 178.55 257.63 175.11C250.82 170.37 242.47 173.47 239.24 182.05C231.47 202.63 223.78 223.29 215.91 244.35Z" fill="#00CE5D" stroke="black" stroke-miterlimit="10"/>
<path d="M237.07 62.6599C237.41 60.4199 237.7 58.5099 238.07 55.9199C241.92 56.5699 245.53 56.9199 248.92 57.9199C250.18 58.3099 250.92 60.3699 251.92 61.6699C250.62 62.4699 249.3 63.98 248.02 63.95C244.35 63.7129 240.695 63.2823 237.07 62.6599Z" fill="#00CE5D" stroke="black" stroke-width="0.5" stroke-miterlimit="10"/>
<path d="M239.65 45.46L240.65 39.1001C243.821 39.5065 246.964 40.1108 250.06 40.9099C250.676 41.2178 251.203 41.6798 251.588 42.251C251.974 42.8221 252.205 43.4831 252.26 44.1699C252.19 45.0399 250.26 46.3999 249.16 46.4099C245.974 46.2762 242.799 45.959 239.65 45.46Z" fill="#00CE5D" stroke="black" stroke-width="0.5" stroke-miterlimit="10"/>
<path d="M46.68 172.61C46.2936 171.28 46.1753 169.886 46.332 168.51C46.4886 167.133 46.9171 165.802 47.5925 164.592C48.2679 163.383 49.1768 162.319 50.2665 161.464C51.3561 160.609 52.6048 159.979 53.94 159.61C60.19 157.93 67.25 161.68 68.74 167.47C69.3999 170.165 69.0068 173.011 67.6411 175.426C66.2754 177.842 64.0398 179.646 61.39 180.47C55.17 182.29 48.23 178.54 46.68 172.61Z" fill="#00CE5D" stroke="black" stroke-width="0.5" stroke-miterlimit="10"/>
<path d="M294.29 70.27L302.42 63.3701C302.04 67.2101 301.75 70.1999 301.42 73.8999L294.29 70.27Z" fill="#00CE5D" stroke="black" stroke-width="0.5" stroke-miterlimit="10"/>
<path d="M298.16 375.24L293.16 365.97C296.66 365.19 299.47 364.24 302.31 364.14C303.08 364.14 304.97 367.27 304.59 367.86C303 370.31 300.79 372.33 298.16 375.24Z" fill="white"/>
<path d="M99.85 351.68C99 351.12 96.78 350.43 95.95 348.96C94.4 346.24 99.32 339.11 103.7 338.13C104.723 338.044 105.752 338.21 106.697 338.612C107.641 339.015 108.473 339.642 109.12 340.44C110.67 343.05 105.26 349.96 99.85 351.68Z" fill="white"/>
<path d="M127.58 356.26C130.58 355.34 133.68 357.5 132.58 360.26C131.073 364.033 128.821 367.465 125.96 370.35C123.82 372.45 120.45 370.44 120.15 367.48C119.83 364.27 124.51 357.21 127.58 356.26Z" fill="white"/>
<path d="M269.07 379.08L274.6 385.89L267.3 387.89C267.49 384.89 267.66 382.09 267.84 379.31L269.07 379.08Z" fill="white"/>
<path d="M327.98 357.69L325.37 348.36L333.96 352.68L327.98 357.69Z" fill="white"/>
<path d="M168.07 387.25C166.765 389.321 165.353 391.324 163.84 393.25C162.852 392.866 161.943 392.304 161.16 391.59C161.897 389.555 162.885 387.62 164.1 385.83C164.26 385.59 166.14 386.53 168.07 387.25Z" fill="white"/>
<path d="M154.75 367.66C153.05 370.14 151.83 371.93 150.6 373.71C149.66 373.01 147.8 371.97 147.92 371.65C148.68 369.623 149.688 367.699 150.92 365.92C151.07 365.77 152.9 366.77 154.75 367.66Z" fill="white"/>
<path d="M215.91 244.35C223.78 223.29 231.47 202.63 239.21 182.01C242.44 173.43 250.79 170.33 257.6 175.07C262.53 178.51 263.79 183.74 261.19 190.73C253.957 210.157 246.7 229.57 239.42 248.97C237.54 253.97 235.76 259.03 233.81 263.97C231.08 270.97 224.88 273.91 218 271.02C205.83 265.9 193.77 260.51 181.8 254.94C180.427 254.302 179.195 253.397 178.175 252.279C177.155 251.16 176.367 249.851 175.858 248.425C175.348 247 175.126 245.488 175.205 243.976C175.285 242.465 175.664 240.984 176.32 239.62C179.13 233.55 185.49 231.01 191.88 233.7C199.73 237.05 207.48 240.61 215.91 244.35Z" fill="white"/>
</g>
<defs>
<clipPath id="clip0_23_968">
<rect width="441.35" height="441.5" fill="white"/>
</clipPath>
</defs>
</svg>
