<svg width="78" height="65" viewBox="0 0 78 65" fill="none" xmlns="http://www.w3.org/2000/svg">
<path d="M77.6912 7.12653V46.315C77.6854 48.2033 76.9336 50.0125 75.6001 51.3478C74.2665 52.683 72.4595 53.4357 70.5735 53.4415H50.5L38.8456 65L27.1544 53.4415H7.11761C5.23168 53.4357 3.4247 52.683 2.09114 51.3478C0.757583 50.0125 0.0057873 48.2033 -3.05176e-05 46.315V7.12653C0.0057873 5.23825 0.757583 3.42898 2.09114 2.09376C3.4247 0.758535 5.23168 0.00582506 7.11761 0H70.5735C72.4595 0.00582506 74.2665 0.758535 75.6001 2.09376C76.9336 3.42898 77.6854 5.23825 77.6912 7.12653Z" fill="#E86810"/>
</svg>
