<svg width="36" height="32" viewBox="0 0 36 32" fill="none" xmlns="http://www.w3.org/2000/svg">
<path d="M15.8706 31.0243C11.6604 31.0271 7.62122 29.3959 4.63985 26.4889C1.98085 23.888 0.354487 20.447 0.051523 16.7811C-0.251441 13.1152 0.788743 9.46349 2.98612 6.47872C4.96528 3.74872 7.80539 1.72881 11.071 0.728658C12.4566 0.288737 13.8998 0.0466567 15.3561 0.009901C18.3867 -0.0962006 21.3846 0.652308 23.9923 2.16617C25.1271 2.82486 26.1718 3.62191 27.1013 4.53811C27.3365 4.76811 27.3291 4.76092 27.5717 4.53811C27.8142 4.31529 28.2038 3.92713 28.5345 3.64681C29.0848 3.17059 29.7649 2.86131 30.4918 2.75666C31.2188 2.652 31.9612 2.75652 32.6284 3.05747C33.8559 3.52674 34.8722 4.40843 35.4949 5.54434C35.7752 5.99827 35.9455 6.50899 35.9926 7.03726C36.0398 7.56554 35.9625 8.09732 35.7668 8.59186C35.3271 9.67995 34.6498 10.6611 33.7824 11.4669C33.1135 12.1066 32.4594 12.7535 31.7979 13.3932C31.7302 13.4543 31.6792 13.5311 31.6497 13.6165C31.6201 13.7019 31.613 13.7932 31.6288 13.882C31.8721 16.1899 31.5831 18.5218 30.783 20.706C29.9829 22.8903 28.6921 24.8713 27.0057 26.5033C24.0449 29.37 20.0444 30.9746 15.8779 30.9668L15.8706 31.0243ZM30.5043 14.8738L30.4234 14.8307L30.0706 15.1685C29.0711 16.1245 28.0935 17.0804 27.0792 18.0435C25.0506 19.9267 23.0073 21.7883 20.9714 23.6642C20.4569 24.1386 19.9865 24.6633 19.4573 25.1017C18.7142 25.6764 17.8096 26.0159 16.8641 26.0749C15.9187 26.134 14.9772 25.9098 14.1654 25.4323C13.4114 24.9315 12.7271 24.3372 12.1294 23.6642C10.6595 22.0758 9.31441 20.437 7.92527 18.8054C7.03078 17.8099 6.33521 16.6592 5.87465 15.4129C5.53117 14.6144 5.46911 13.7268 5.69824 12.8901C6.07149 11.7415 6.85393 10.7621 7.90323 10.13C8.49837 9.72687 9.18914 9.47943 9.90976 9.41126C10.5593 9.39559 11.2048 9.51571 11.8031 9.76362C12.4014 10.0115 12.9386 10.3815 13.3789 10.8488C14.0457 11.5637 14.6737 12.3122 15.2605 13.0913C15.6942 13.616 16.1205 14.1479 16.5468 14.6798C16.6864 14.8523 16.804 14.8379 16.951 14.6798C17.3405 14.2844 17.7374 13.8891 18.1417 13.5082C20.0453 11.7472 21.9563 9.99347 23.8526 8.21814C24.6978 7.42751 25.5137 6.60093 26.3442 5.78874C26.4765 5.66655 26.4398 5.5803 26.3442 5.47968C25.7709 4.99811 25.2197 4.47342 24.6096 4.04216C22.9805 2.86427 21.1189 2.03005 19.1429 1.59232C17.1669 1.15459 15.1195 1.12288 13.1303 1.49923C11.1411 1.87557 9.25349 2.65177 7.58702 3.77864C5.92054 4.90551 4.51152 6.35849 3.44916 8.0456C2.38176 9.73909 1.68695 11.6315 1.40903 13.6022C1.13112 15.5729 1.27621 17.5786 1.83505 19.4915C2.39389 21.4043 3.35421 23.1822 4.65478 24.7119C5.95535 26.2416 7.56762 27.4894 9.38878 28.3759C11.2099 29.2623 13.2 29.7679 15.2321 29.8604C17.2642 29.9529 19.2937 29.6303 21.1911 28.9131C23.0886 28.1959 24.8125 27.0999 26.2527 25.6949C27.693 24.29 28.818 22.607 29.5561 20.7533C30.1413 19.2931 30.4765 17.7486 30.5484 16.1819C30.5043 15.7291 30.5043 15.305 30.5043 14.8738Z" fill="black"/>
</svg>
